<svg height="2766" width="1521" xmlns="http://www.w3.org/2000/svg" xmlns:ed="https://www.edrawsoft.cn/xml/2017/SVGExtensions/" ed:hSpacing="30" ed:vSpacing="30" xmlns:xlink="http://www.w3.org/1999/xlink" viewBox="0 0 1521 2766" xmlns:ev="http://www.w3.org/2001/xml-events" ed:name="Page-1" id="page100"><style type="text/css"><![CDATA[
g[ed\:togtopicid],g[ed\:hyperlink],g[ed\:comment],g[ed\:note] {cursor:pointer;}
g[id] {-moz-user-select: none;-ms-user-select: none;user-select: none;}
svg text::selection,svg tspan::selection{background-color: #4285f4;color: #ffffff;fill: #ffffff;}
.st2 {fill:#303030;font-family:微软雅黑;font-size:12pt}
.st3 {fill:#454545;font-family:微软雅黑;font-size:10pt}
.st1 {fill:#ffffff;font-family:微软雅黑;font-size:14pt}
]]></style><defs><linearGradient x2="0%" y2="100%" y1="0%" x1="0%" id="lg1"><stop offset="0" stop-color="#ffffff"/><stop offset="0.25" stop-color="#f0f5f0"/><stop offset="0.75" stop-color="#e1ebe1"/><stop offset="1" stop-color="#c8d7c8"/></linearGradient></defs><rect height="2766" y="0" width="1521" fill="#ffffff" x="0"/><path transform="matrix(1,0,0,1,315,896)" stroke="#696969" stroke-linecap="round" fill="none" ed:parentid="101" d="M-77,458.4C17.6,297.8,-94.1,-486.9,118.3,-486.9" ed:tosuperid="102" stroke-linejoin="round" id="103"/><path transform="matrix(1,0,0,1,315,1161)" stroke="#696969" stroke-linecap="round" fill="none" ed:parentid="101" d="M-67,193.4C3.3,95.4,-35.8,-221.9,118.3,-221.9" ed:tosuperid="104" stroke-linejoin="round" id="105"/><path transform="matrix(1,0,0,1,315,1330)" stroke="#696969" stroke-linecap="round" fill="none" ed:parentid="101" d="M-30.1,24.6C17,-6.8,52.2,-53.1,118.3,-53.1" ed:tosuperid="106" stroke-linejoin="round" id="107"/><path transform="matrix(1,0,0,1,315,1518)" stroke="#696969" stroke-linecap="round" fill="none" ed:parentid="101" d="M-58.8,-106.1C1.5,-36.9,4.5,134.6,118.3,134.6" ed:tosuperid="108" stroke-linejoin="round" id="109"/><path transform="matrix(1,0,0,1,315,1754)" stroke="#696969" stroke-linecap="round" fill="none" ed:parentid="101" d="M-73.1,-342.6C12.7,-206.5,-82.1,371.1,118.3,371.1" ed:tosuperid="110" stroke-linejoin="round" id="111"/><path transform="matrix(1,0,0,1,315,1991)" stroke="#696969" stroke-linecap="round" fill="none" ed:parentid="101" d="M-80.6,-579.1C20.4,-396,-96.7,607.6,118.3,607.6" ed:tosuperid="112" stroke-linejoin="round" id="113"/><path transform="matrix(1,0,0,1,837,82)" stroke="#696969" stroke-linecap="round" fill="none" ed:parentid="125" d="M-13.5,17.3C1.2,17.3,-3.7,-17.3,13.5,-17.3" ed:tosuperid="117" stroke-linejoin="round" id="118"/><path transform="matrix(1,0,0,1,837,126)" stroke="#696969" stroke-linecap="round" fill="none" ed:parentid="125" d="M-13.5,-26.8C3,-26.8,-7.9,26.8,13.5,26.8" ed:tosuperid="119" stroke-linejoin="round" id="120"/><path transform="matrix(1,0,0,1,662,254)" stroke="#696969" stroke-linecap="round" fill="none" ed:parentid="102" d="M-13.5,155.1C5.4,155.1,-13.5,-155.1,13.5,-155.1" ed:tosuperid="125" stroke-linejoin="round" id="126"/><path transform="matrix(1,0,0,1,662,386)" stroke="#696969" stroke-linecap="round" fill="none" ed:parentid="102" d="M-13.5,23.6C2.4,23.6,-6.6,-23.6,13.5,-23.6" ed:tosuperid="127" stroke-linejoin="round" id="128"/><path transform="matrix(1,0,0,1,850,273)" stroke="#696969" stroke-linecap="round" fill="none" ed:parentid="127" d="M-13.5,89.3C5.4,89.3,-13.5,-89.3,13.5,-89.3" ed:tosuperid="129" stroke-linejoin="round" id="130"/><path transform="matrix(1,0,0,1,850,298)" stroke="#696969" stroke-linecap="round" fill="none" ed:parentid="127" d="M-13.5,64.3C5.4,64.3,-13.5,-64.3,13.5,-64.3" ed:tosuperid="131" stroke-linejoin="round" id="132"/><path transform="matrix(1,0,0,1,850,323)" stroke="#696969" stroke-linecap="round" fill="none" ed:parentid="127" d="M-13.5,39.3C4.7,39.3,-11.8,-39.3,13.5,-39.3" ed:tosuperid="133" stroke-linejoin="round" id="134"/><path transform="matrix(1,0,0,1,850,348)" stroke="#696969" stroke-linecap="round" fill="none" ed:parentid="127" d="M-13.5,14.3C0.6,14.3,-2.2,-14.3,13.5,-14.3" ed:tosuperid="135" stroke-linejoin="round" id="136"/><path transform="matrix(1,0,0,1,850,401)" stroke="#696969" stroke-linecap="round" fill="none" ed:parentid="127" d="M-13.5,-39.3C4.7,-39.3,-11.8,39.3,13.5,39.3" ed:tosuperid="137" stroke-linejoin="round" id="138"/><path transform="matrix(1,0,0,1,850,436)" stroke="#696969" stroke-linecap="round" fill="none" ed:parentid="127" d="M-13.5,-73.8C5.4,-73.8,-13.5,73.8,13.5,73.8" ed:tosuperid="139" stroke-linejoin="round" id="140"/><path transform="matrix(1,0,0,1,850,451)" stroke="#696969" stroke-linecap="round" fill="none" ed:parentid="127" d="M-13.5,-89.3C5.4,-89.3,-13.5,89.3,13.5,89.3" ed:tosuperid="141" stroke-linejoin="round" id="142"/><path transform="matrix(1,0,0,1,662,547)" stroke="#696969" stroke-linecap="round" fill="none" ed:parentid="102" d="M-13.5,-137.6C5.4,-137.6,-13.5,137.6,13.5,137.6" ed:tosuperid="143" stroke-linejoin="round" id="144"/><path transform="matrix(1,0,0,1,837,638)" stroke="#696969" stroke-linecap="round" fill="none" ed:parentid="143" d="M-13.5,47C5.2,47,-13.1,-47,13.5,-47" ed:tosuperid="145" stroke-linejoin="round" id="146"/><path transform="matrix(1,0,0,1,837,653)" stroke="#696969" stroke-linecap="round" fill="none" ed:parentid="143" d="M-13.5,31.5C3.7,31.5,-9.6,-31.5,13.5,-31.5" ed:tosuperid="147" stroke-linejoin="round" id="148"/><path transform="matrix(1,0,0,1,837,726)" stroke="#696969" stroke-linecap="round" fill="none" ed:parentid="143" d="M-13.5,-41C4.8,-41,-12.2,41,13.5,41" ed:tosuperid="149" stroke-linejoin="round" id="150"/><path transform="matrix(1,0,0,1,837,741)" stroke="#696969" stroke-linecap="round" fill="none" ed:parentid="143" d="M-13.5,-56.5C5.4,-56.5,-13.5,56.5,13.5,56.5" ed:tosuperid="151" stroke-linejoin="round" id="152"/><path transform="matrix(1,0,0,1,662,930)" stroke="#696969" stroke-linecap="round" fill="none" ed:parentid="104" d="M-13.5,9.4C-0.5,9.4,0.3,-9.4,13.5,-9.4" ed:tosuperid="153" stroke-linejoin="round" id="154"/><path transform="matrix(1,0,0,1,662,978)" stroke="#696969" stroke-linecap="round" fill="none" ed:parentid="104" d="M-13.5,-38.9C4.6,-38.9,-11.7,38.9,13.5,38.9" ed:tosuperid="155" stroke-linejoin="round" id="156"/><path transform="matrix(1,0,0,1,662,994)" stroke="#696969" stroke-linecap="round" fill="none" ed:parentid="104" d="M-13.5,-54.4C5.4,-54.4,-13.5,54.4,13.5,54.4" ed:tosuperid="157" stroke-linejoin="round" id="158"/><path transform="matrix(1,0,0,1,694,1214)" stroke="#696969" stroke-linecap="round" fill="none" ed:parentid="106" d="M-13.5,62.4C5.4,62.4,-13.5,-62.4,13.5,-62.4" ed:tosuperid="159" stroke-linejoin="round" id="160"/><path transform="matrix(1,0,0,1,694,1253)" stroke="#696969" stroke-linecap="round" fill="none" ed:parentid="106" d="M-13.5,23.6C2.4,23.6,-6.6,-23.6,13.5,-23.6" ed:tosuperid="161" stroke-linejoin="round" id="162"/><path transform="matrix(1,0,0,1,694,1289)" stroke="#696969" stroke-linecap="round" fill="none" ed:parentid="106" d="M-13.5,-12.1C0.1,-12.1,-1.1,12.1,13.5,12.1" ed:tosuperid="163" stroke-linejoin="round" id="164"/><path transform="matrix(1,0,0,1,694,1350)" stroke="#696969" stroke-linecap="round" fill="none" ed:parentid="106" d="M-13.5,-72.9C5.4,-72.9,-13.5,72.9,13.5,72.9" ed:tosuperid="165" stroke-linejoin="round" id="166"/><path transform="matrix(1,0,0,1,678,1604)" stroke="#696969" stroke-linecap="round" fill="none" ed:parentid="108" d="M-13.5,48.6C5.3,48.6,-13.3,-48.6,13.5,-48.6" ed:tosuperid="167" stroke-linejoin="round" id="168"/><path transform="matrix(1,0,0,1,678,1679)" stroke="#696969" stroke-linecap="round" fill="none" ed:parentid="108" d="M-13.5,-26.4C2.9,-26.4,-7.7,26.4,13.5,26.4" ed:tosuperid="169" stroke-linejoin="round" id="170"/><path transform="matrix(1,0,0,1,758,1991)" stroke="#696969" stroke-linecap="round" fill="none" ed:parentid="110" d="M-13.5,134.4C5.4,134.4,-13.5,-134.4,13.5,-134.4" ed:tosuperid="171" stroke-linejoin="round" id="172"/><path transform="matrix(1,0,0,1,758,2039)" stroke="#696969" stroke-linecap="round" fill="none" ed:parentid="110" d="M-13.5,86.1C5.4,86.1,-13.5,-86.1,13.5,-86.1" ed:tosuperid="173" stroke-linejoin="round" id="174"/><path transform="matrix(1,0,0,1,758,2095)" stroke="#696969" stroke-linecap="round" fill="none" ed:parentid="110" d="M-13.5,30.1C3.5,30.1,-9.1,-30.1,13.5,-30.1" ed:tosuperid="175" stroke-linejoin="round" id="176"/><path transform="matrix(1,0,0,1,758,2170)" stroke="#696969" stroke-linecap="round" fill="none" ed:parentid="110" d="M-13.5,-44.9C5.1,-44.9,-12.8,44.9,13.5,44.9" ed:tosuperid="177" stroke-linejoin="round" id="178"/><path transform="matrix(1,0,0,1,758,2247)" stroke="#696969" stroke-linecap="round" fill="none" ed:parentid="110" d="M-13.5,-121.6C5.4,-121.6,-13.5,121.6,13.5,121.6" ed:tosuperid="179" stroke-linejoin="round" id="180"/><path transform="matrix(1,0,0,1,758,2272)" stroke="#696969" stroke-linecap="round" fill="none" ed:parentid="110" d="M-13.5,-146.6C5.4,-146.6,-13.5,146.6,13.5,146.6" ed:tosuperid="181" stroke-linejoin="round" id="182"/><path transform="matrix(1,0,0,1,710,2579)" stroke="#696969" stroke-linecap="round" fill="none" ed:parentid="112" d="M-13.5,18.9C1.5,18.9,-4.5,-18.9,13.5,-18.9" ed:tosuperid="183" stroke-linejoin="round" id="184"/><path transform="matrix(1,0,0,1,710,2654)" stroke="#696969" stroke-linecap="round" fill="none" ed:parentid="112" d="M-13.5,-56.1C5.4,-56.1,-13.5,56.1,13.5,56.1" ed:tosuperid="185" stroke-linejoin="round" id="186"/><path transform="matrix(1,0,0,1,902,888)" stroke="#696969" stroke-linecap="round" fill="none" ed:parentid="153" d="M-13.5,32.8C3.9,32.8,-10,-32.8,13.5,-32.8" ed:tosuperid="187" stroke-linejoin="round" id="188"/><path transform="matrix(1,0,0,1,902,913)" stroke="#696969" stroke-linecap="round" fill="none" ed:parentid="153" d="M-13.5,7.8C-0.9,7.8,1.2,-7.8,13.5,-7.8" ed:tosuperid="189" stroke-linejoin="round" id="190"/><path transform="matrix(1,0,0,1,902,928)" stroke="#696969" stroke-linecap="round" fill="none" ed:parentid="153" d="M-13.5,-7.8C-0.9,-7.8,1.2,7.8,13.5,7.8" ed:tosuperid="191" stroke-linejoin="round" id="192"/><path transform="matrix(1,0,0,1,902,953)" stroke="#696969" stroke-linecap="round" fill="none" ed:parentid="153" d="M-13.5,-32.8C3.9,-32.8,-10,32.8,13.5,32.8" ed:tosuperid="193" stroke-linejoin="round" id="194"/><path transform="matrix(1,0,0,1,830,1129)" stroke="#696969" stroke-linecap="round" fill="none" ed:parentid="159" d="M-13.5,23.3C2.4,23.3,-6.4,-23.3,13.5,-23.3" ed:tosuperid="195" stroke-linejoin="round" id="196"/><path transform="matrix(1,0,0,1,830,1144)" stroke="#696969" stroke-linecap="round" fill="none" ed:parentid="159" d="M-13.5,7.8C-0.9,7.8,1.2,-7.8,13.5,-7.8" ed:tosuperid="197" stroke-linejoin="round" id="198"/><path transform="matrix(1,0,0,1,830,1160)" stroke="#696969" stroke-linecap="round" fill="none" ed:parentid="159" d="M-13.5,-7.8C-0.9,-7.8,1.2,7.8,13.5,7.8" ed:tosuperid="199" stroke-linejoin="round" id="200"/><path transform="matrix(1,0,0,1,830,1175)" stroke="#696969" stroke-linecap="round" fill="none" ed:parentid="159" d="M-13.5,-23.3C2.4,-23.3,-6.4,23.3,13.5,23.3" ed:tosuperid="201" stroke-linejoin="round" id="202"/><path transform="matrix(1,0,0,1,830,1290)" stroke="#696969" stroke-linecap="round" fill="none" ed:parentid="163" d="M-13.5,10.8C-0.2,10.8,-0.4,-10.8,13.5,-10.8" ed:tosuperid="203" stroke-linejoin="round" id="204"/><path transform="matrix(1,0,0,1,830,1306)" stroke="#696969" stroke-linecap="round" fill="none" ed:parentid="163" d="M-13.5,-4.8C-1.6,-4.8,2.8,4.8,13.5,4.8" ed:tosuperid="205" stroke-linejoin="round" id="206"/><path transform="matrix(1,0,0,1,830,1321)" stroke="#696969" stroke-linecap="round" fill="none" ed:parentid="163" d="M-13.5,-20.3C1.8,-20.3,-5.1,20.3,13.5,20.3" ed:tosuperid="207" stroke-linejoin="round" id="208"/><path transform="matrix(1,0,0,1,830,1407)" stroke="#696969" stroke-linecap="round" fill="none" ed:parentid="165" d="M-13.5,15.5C0.8,15.5,-2.8,-15.5,13.5,-15.5" ed:tosuperid="209" stroke-linejoin="round" id="210"/><path transform="matrix(1,0,0,1,830,1448)" stroke="#696969" stroke-linecap="round" fill="none" ed:parentid="165" d="M-13.5,-25C2.7,-25,-7.2,25,13.5,25" ed:tosuperid="211" stroke-linejoin="round" id="212"/><path transform="matrix(1,0,0,1,830,1432)" stroke="#696969" stroke-linecap="round" fill="none" ed:parentid="165" d="M-13.5,-9.5C-0.5,-9.5,0.2,9.5,13.5,9.5" ed:tosuperid="213" stroke-linejoin="round" id="214"/><path transform="matrix(1,0,0,1,918,1543)" stroke="#696969" stroke-linecap="round" fill="none" ed:parentid="167" d="M-13.5,12.5C0.2,12.5,-1.3,-12.5,13.5,-12.5" ed:tosuperid="215" stroke-linejoin="round" id="216"/><path transform="matrix(1,0,0,1,918,1568)" stroke="#696969" stroke-linecap="round" fill="none" ed:parentid="167" d="M-13.5,-12.5C0.2,-12.5,-1.3,12.5,13.5,12.5" ed:tosuperid="217" stroke-linejoin="round" id="218"/><path transform="matrix(1,0,0,1,879,1668)" stroke="#696969" stroke-linecap="round" fill="none" ed:parentid="169" d="M-13.5,37.5C4.5,37.5,-11.4,-37.5,13.5,-37.5" ed:tosuperid="219" stroke-linejoin="round" id="220"/><path transform="matrix(1,0,0,1,879,1683)" stroke="#696969" stroke-linecap="round" fill="none" ed:parentid="169" d="M-13.5,22C2.1,22,-5.9,-22,13.5,-22" ed:tosuperid="221" stroke-linejoin="round" id="222"/><path transform="matrix(1,0,0,1,879,1699)" stroke="#696969" stroke-linecap="round" fill="none" ed:parentid="169" d="M-13.5,6.5C-1.2,6.5,1.8,-6.5,13.5,-6.5" ed:tosuperid="223" stroke-linejoin="round" id="224"/><path transform="matrix(1,0,0,1,879,1752)" stroke="#696969" stroke-linecap="round" fill="none" ed:parentid="169" d="M-13.5,-47C5.2,-47,-13.1,47,13.5,47" ed:tosuperid="225" stroke-linejoin="round" id="226"/><path transform="matrix(1,0,0,1,884,2518)" stroke="#696969" stroke-linecap="round" fill="none" ed:parentid="183" d="M-13.5,42.3C4.9,42.3,-12.4,-42.3,13.5,-42.3" ed:tosuperid="227" stroke-linejoin="round" id="228"/><path transform="matrix(1,0,0,1,884,2553)" stroke="#696969" stroke-linecap="round" fill="none" ed:parentid="183" d="M-13.5,7.8C-0.9,7.8,1.2,-7.8,13.5,-7.8" ed:tosuperid="229" stroke-linejoin="round" id="230"/><path transform="matrix(1,0,0,1,884,2578)" stroke="#696969" stroke-linecap="round" fill="none" ed:parentid="183" d="M-13.5,-17.3C1.2,-17.3,-3.7,17.3,13.5,17.3" ed:tosuperid="231" stroke-linejoin="round" id="232"/><path transform="matrix(1,0,0,1,884,2603)" stroke="#696969" stroke-linecap="round" fill="none" ed:parentid="183" d="M-13.5,-42.3C4.9,-42.3,-12.4,42.3,13.5,42.3" ed:tosuperid="233" stroke-linejoin="round" id="234"/><path transform="matrix(1,0,0,1,872,2703)" stroke="#696969" stroke-linecap="round" fill="none" ed:parentid="185" d="M-13.5,7.8C-0.9,7.8,1.2,-7.8,13.5,-7.8" ed:tosuperid="235" stroke-linejoin="round" id="236"/><path transform="matrix(1,0,0,1,872,2728)" stroke="#696969" stroke-linecap="round" fill="none" ed:parentid="185" d="M-13.5,-17.3C1.2,-17.3,-3.7,17.3,13.5,17.3" ed:tosuperid="237" stroke-linejoin="round" id="238"/><path transform="matrix(1,0,0,1,881,1920)" stroke="#696969" stroke-linecap="round" fill="none" ed:parentid="173" d="M-13.5,32.8C3.9,32.8,-10,-32.8,13.5,-32.8" ed:tosuperid="239" stroke-linejoin="round" id="240"/><path transform="matrix(1,0,0,1,881,1945)" stroke="#696969" stroke-linecap="round" fill="none" ed:parentid="173" d="M-13.5,7.8C-0.9,7.8,1.2,-7.8,13.5,-7.8" ed:tosuperid="241" stroke-linejoin="round" id="242"/><path transform="matrix(1,0,0,1,881,1970)" stroke="#696969" stroke-linecap="round" fill="none" ed:parentid="173" d="M-13.5,-17.3C1.2,-17.3,-3.7,17.3,13.5,17.3" ed:tosuperid="243" stroke-linejoin="round" id="244"/><path transform="matrix(1,0,0,1,881,1986)" stroke="#696969" stroke-linecap="round" fill="none" ed:parentid="173" d="M-13.5,-32.8C3.9,-32.8,-10,32.8,13.5,32.8" ed:tosuperid="245" stroke-linejoin="round" id="246"/><path transform="matrix(1,0,0,1,881,2057)" stroke="#696969" stroke-linecap="round" fill="none" ed:parentid="175" d="M-13.5,7.8C-0.9,7.8,1.2,-7.8,13.5,-7.8" ed:tosuperid="247" stroke-linejoin="round" id="248"/><path transform="matrix(1,0,0,1,881,2073)" stroke="#696969" stroke-linecap="round" fill="none" ed:parentid="175" d="M-13.5,-7.8C-0.9,-7.8,1.2,7.8,13.5,7.8" ed:tosuperid="249" stroke-linejoin="round" id="250"/><path transform="matrix(1,0,0,1,881,1857)" stroke="#696969" stroke-linecap="round" fill="none" ed:parentid="171" d="M-13.5,0C-2.7,0,5.4,0,13.5,0" ed:tosuperid="251" stroke-linejoin="round" id="252"/><path transform="matrix(1,0,0,1,973,2192)" stroke="#696969" stroke-linecap="round" fill="none" ed:parentid="177" d="M-13.5,23.3C2.4,23.3,-6.4,-23.3,13.5,-23.3" ed:tosuperid="253" stroke-linejoin="round" id="254"/><path transform="matrix(1,0,0,1,973,2217)" stroke="#696969" stroke-linecap="round" fill="none" ed:parentid="177" d="M-13.5,-1.8C-2.3,-1.8,4.4,1.8,13.5,1.8" ed:tosuperid="255" stroke-linejoin="round" id="256"/><path transform="matrix(1,0,0,1,973,2242)" stroke="#696969" stroke-linecap="round" fill="none" ed:parentid="177" d="M-13.5,-26.8C3,-26.8,-7.9,26.8,13.5,26.8" ed:tosuperid="257" stroke-linejoin="round" id="258"/><path transform="matrix(1,0,0,1,973,2267)" stroke="#696969" stroke-linecap="round" fill="none" ed:parentid="177" d="M-13.5,-51.8C5.4,-51.8,-13.5,51.8,13.5,51.8" ed:tosuperid="259" stroke-linejoin="round" id="260"/><path transform="matrix(1,0,0,1,907,2378)" stroke="#696969" stroke-linecap="round" fill="none" ed:parentid="179" d="M-13.5,-9.5C-0.5,-9.5,0.2,9.5,13.5,9.5" ed:tosuperid="261" stroke-linejoin="round" id="262"/><path transform="matrix(1,0,0,1,907,2419)" stroke="#696969" stroke-linecap="round" fill="none" ed:parentid="181" d="M-13.5,0C-2.7,0,5.4,0,13.5,0" ed:tosuperid="263" stroke-linejoin="round" id="264"/><g transform="matrix(1,0,0,1,23,1355)" ed:layout="rightmap" ed:topictype="mainidea" id="101" ed:height="57" ed:width="347"><path fill="#435fbc" stroke="#435fbc" d="M4,0L343,0C345.7,0,347,1.3,347,4L347,53C347,55.7,345.7,57,343,57L4,57C1.3,57,0,55.7,0,53L0,4C0,1.3,1.3,0,4,0z" stroke-linejoin="round" stroke-width="3"/><text class="st1"><tspan style="white-space:pre" y="34.5" x="21">《大数据时代的数据中台》-DataSir</tspan></text></g><g transform="matrix(1,0,0,1,433,391)" ed:parentid="101" id="102" ed:height="37" ed:width="215"><path fill="#ebecf3" stroke="#ebecf3" d="M4,0L211,0C213.7,0,215,1.3,215,4L215,33C215,35.7,213.7,37,211,37L4,37C1.3,37,0,35.7,0,33L0,4C0,1.3,1.3,0,4,0z" stroke-linejoin="round"/><text class="st2"><tspan style="white-space:pre" y="23.4" x="18">第一章：火热的数据中台</tspan></text></g><g transform="matrix(1,0,0,1,433,921)" ed:parentid="101" id="104" ed:height="37" ed:width="215"><path fill="#ebecf3" stroke="#ebecf3" d="M4,0L211,0C213.7,0,215,1.3,215,4L215,33C215,35.7,213.7,37,211,37L4,37C1.3,37,0,35.7,0,33L0,4C0,1.3,1.3,0,4,0z" stroke-linejoin="round"/><text class="st2"><tspan style="white-space:pre" y="23.4" x="18">第二章：打造企业数智化</tspan></text></g><g transform="matrix(1,0,0,1,433,1258)" ed:parentid="101" id="106" ed:height="37" ed:width="247"><path fill="#ebecf3" stroke="#ebecf3" d="M4,0L243,0C245.7,0,247,1.3,247,4L247,33C247,35.7,245.7,37,243,37L4,37C1.3,37,0,35.7,0,33L0,4C0,1.3,1.3,0,4,0z" stroke-linejoin="round"/><text class="st2"><tspan style="white-space:pre" y="23.4" x="18">第三章：数据中台落地方法论</tspan></text></g><g transform="matrix(1,0,0,1,433,1634)" ed:parentid="101" id="108" ed:height="37" ed:width="231"><path fill="#ebecf3" stroke="#ebecf3" d="M4,0L227,0C229.7,0,231,1.3,231,4L231,33C231,35.7,229.7,37,227,37L4,37C1.3,37,0,35.7,0,33L0,4C0,1.3,1.3,0,4,0z" stroke-linejoin="round"/><text class="st2"><tspan style="white-space:pre" y="23.4" x="18">第四章：数据中台落地分析</tspan></text></g><g transform="matrix(1,0,0,1,433,2107)" ed:parentid="101" id="110" ed:height="37" ed:width="311"><path fill="#ebecf3" stroke="#ebecf3" d="M4,0L307,0C309.7,0,311,1.3,311,4L311,33C311,35.7,309.7,37,307,37L4,37C1.3,37,0,35.7,0,33L0,4C0,1.3,1.3,0,4,0z" stroke-linejoin="round"/><text class="st2"><tspan style="white-space:pre" y="23.4" x="18">第五章：数据中台最具价值的建模体系</tspan></text></g><g transform="matrix(1,0,0,1,433,2580)" ed:parentid="101" id="112" ed:height="37" ed:width="263"><path fill="#ebecf3" stroke="#ebecf3" d="M4,0L259,0C261.7,0,263,1.3,263,4L263,33C263,35.7,261.7,37,259,37L4,37C1.3,37,0,35.7,0,33L0,4C0,1.3,1.3,0,4,0z" stroke-linejoin="round"/><text class="st2"><tspan style="white-space:pre" y="23.4" x="18">第六章：中台赋能场景创新智能</tspan></text></g><g transform="matrix(1,0,0,1,850,21)" ed:parentid="125" id="117" ed:height="43.5" ed:width="514"><path stroke="#696969" fill="none" d="M0,43.5L514,43.5" stroke-linejoin="round"/><text class="st3"><tspan style="white-space:pre" y="16.1" x="8">适合人群：数据产品经理、数据研发同学、大数据应用架构师、数据中台售前咨询、大</tspan><tspan style="white-space:pre" y="35.1" x="8">数据解决方案专家、数据方案实施专家、数据项目经理、中台业务专家</tspan></text></g><g transform="matrix(1,0,0,1,850,71)" ed:parentid="125" id="119" ed:height="81.5" ed:width="514"><path stroke="#696969" fill="none" d="M0,81.5L514,81.5" stroke-linejoin="round"/><text class="st3"><tspan style="white-space:pre" y="16.1" x="8">移动用户行为分析工具（数据采集）：采集（注册、浏览、下单、支付、收货）、建模</tspan><tspan style="white-space:pre" y="35.1" x="8">（事件分析、漏斗分析、留存分析、行为序列、用户分群、用户路径、点击分析、触达</tspan><tspan style="white-space:pre" y="54.1" x="8">分析、分布分析、用户属性）、分析（日常数据监测、产品改进分析、广告投放分析、</tspan><tspan style="white-space:pre" y="73.1" x="8">精细化运营、线索质量评估）</tspan></text></g><g transform="matrix(1,0,0,1,675,75)" ed:parentid="102" id="125" ed:height="24.5" ed:width="148"><path stroke="#696969" fill="none" d="M0,24.5L148,24.5" stroke-linejoin="round"/><text class="st3"><tspan style="white-space:pre" y="16.1" x="8">1.1. 数据中台课程大纲</tspan></text></g><g transform="matrix(1,0,0,1,675,338)" ed:parentid="102" id="127" ed:height="24.5" ed:width="161"><path stroke="#696969" fill="none" d="M0,24.5L161,24.5" stroke-linejoin="round"/><text class="st3"><tspan style="white-space:pre" y="16.1" x="8">1.2. 数据中台为什么火了</tspan></text></g><g transform="matrix(1,0,0,1,863,159)" ed:parentid="127" id="129" ed:height="24.5" ed:width="248"><path stroke="#696969" fill="none" d="M0,24.5L248,24.5" stroke-linejoin="round"/><text class="st3"><tspan style="white-space:pre" y="16.1" x="8">为什么需要数据中台：IT时代=>DT时代</tspan></text></g><g transform="matrix(1,0,0,1,863,190)" ed:parentid="127" id="131" ed:height="43.5" ed:width="514"><path stroke="#696969" fill="none" d="M0,43.5L514,43.5" stroke-linejoin="round"/><text class="st3"><tspan style="white-space:pre" y="16.1" x="8">大数据特点：4个V，容量（Volume）、种类（Variety）、速度（Velocity）、价值</tspan><tspan style="white-space:pre" y="35.1" x="8">（value）</tspan></text></g><g transform="matrix(1,0,0,1,863,240)" ed:parentid="127" id="133" ed:height="43.5" ed:width="514"><path stroke="#696969" fill="none" d="M0,43.5L514,43.5" stroke-linejoin="round"/><text class="st3"><tspan style="white-space:pre" y="16.1" x="8">大数据下的数据消费思维：从样本思维转向总体思维、从精确思维转向容错思维、从因</tspan><tspan style="white-space:pre" y="35.1" x="8">果思维转向相关思维</tspan></text></g><g transform="matrix(1,0,0,1,863,290)" ed:parentid="127" id="135" ed:height="43.5" ed:width="514"><path stroke="#696969" fill="none" d="M0,43.5L514,43.5" stroke-linejoin="round"/><text class="st3"><tspan style="white-space:pre" y="16.1" x="8">TOB价值驱动力：场景化体验、全流程的自动化、数据支撑的决策。数据驱动：从记录</tspan><tspan style="white-space:pre" y="35.1" x="8">系统的副产物，变为业务执行系统的核心资产</tspan></text></g><g transform="matrix(1,0,0,1,863,340)" ed:parentid="127" id="137" ed:height="100.5" ed:width="514"><path stroke="#696969" fill="none" d="M0,100.5L514,100.5" stroke-linejoin="round"/><text class="st3"><tspan style="white-space:pre" y="16.1" x="8">TOC价值驱动力：产品改造（个性化Feed、猜你喜欢、相关推荐）、体验升级（推荐</tspan><tspan style="white-space:pre" y="35.1" x="8">喜欢的内容、发现更大的世界、增强用户粘性）、指标提升（点击率、留存率、付费</tspan><tspan style="white-space:pre" y="54.1" x="8">率）、其他场景（精准营销、反作弊、用户画像）、运营监控（用户拉新、用户留存、</tspan><tspan style="white-space:pre" y="73.1" x="8">产品变现）、产品改进（新功能构建、测量功能优势、衡量改版结果）、营销分析（渠</tspan><tspan style="white-space:pre" y="92.1" x="8">道投放监控、渠道拉新转化、ROI分析）、商业决策（客户分布、画像描述）</tspan></text></g><g transform="matrix(1,0,0,1,863,447)" ed:parentid="127" id="139" ed:height="62.5" ed:width="514"><path stroke="#696969" fill="none" d="M0,62.5L514,62.5" stroke-linejoin="round"/><text class="st3"><tspan style="white-space:pre" y="16.1" x="8">数据中台价值表现：创新力（帮助企业用数据思维实现创新，赋能业务发展）、场景驱</tspan><tspan style="white-space:pre" y="35.1" x="8">动（外部环境及内部业务调整，快速适应不断变化的需求）、经验沉淀（资产价值挖掘</tspan><tspan style="white-space:pre" y="54.1" x="8">过程中，需将经验转换为数据资产体系的一部分）</tspan></text></g><g transform="matrix(1,0,0,1,863,516)" ed:parentid="127" id="141" ed:height="24.5" ed:width="284"><path stroke="#696969" fill="none" d="M0,24.5L284,24.5" stroke-linejoin="round"/><text class="st3"><tspan style="white-space:pre" y="16.1" x="8">数据中台-提效降本、创新发展、实现降维打击</tspan></text></g><g transform="matrix(1,0,0,1,675,660)" ed:parentid="102" id="143" ed:height="24.5" ed:width="148"><path stroke="#696969" fill="none" d="M0,24.5L148,24.5" stroke-linejoin="round"/><text class="st3"><tspan style="white-space:pre" y="16.1" x="8">1.3. 数据中台能力范式</tspan></text></g><g transform="matrix(1,0,0,1,850,547)" ed:parentid="143" id="145" ed:height="43.5" ed:width="514"><path stroke="#696969" fill="none" d="M0,43.5L514,43.5" stroke-linejoin="round"/><text class="st3"><tspan style="white-space:pre" y="16.1" x="8">场景解读：Supercell游戏公司（中台支撑一定的基础开发工作，如模拟物理环境、碰</tspan><tspan style="white-space:pre" y="35.1" x="8">撞检测、动画建模等通用出来）</tspan></text></g><g transform="matrix(1,0,0,1,850,597)" ed:parentid="143" id="147" ed:height="24.5" ed:width="278"><path stroke="#696969" fill="none" d="M0,24.5L278,24.5" stroke-linejoin="round"/><text class="st3"><tspan style="white-space:pre" y="16.1" x="8">场景解读：阿里数据中台“大中台、小前台”</tspan></text></g><g transform="matrix(1,0,0,1,850,628)" ed:parentid="143" id="149" ed:height="138.5" ed:width="514"><path stroke="#696969" fill="none" d="M0,138.5L514,138.5" stroke-linejoin="round"/><text class="st3"><tspan style="white-space:pre" y="16.1" x="8">数据中台产品架构：数据资产（元数据管理、数据地图、数据运营、数据标准、数据质</tspan><tspan style="white-space:pre" y="35.1" x="8">量、数据安全）、数据采集代理（公有云服务、专有云、工业边缘）、数据移动（全量</tspan><tspan style="white-space:pre" y="54.1" x="8">移动、增量移动、多源支持、插件化扩展、调度监控）、统一存储（索引存储、关系存</tspan><tspan style="white-space:pre" y="73.1" x="8">储、分析存储、非结构化存储）、融合计算（机器学习、批计算、流式计算、任务调</tspan><tspan style="white-space:pre" y="92.1" x="8">度）、数据应用（决策分析、智慧运营、智能营销）、数据工场（数据采集任务开发、</tspan><tspan style="white-space:pre" y="111.1" x="8">数据建模、离线处理任务开发、实时处理任务开发、数据质量规则开发、任务管理和监</tspan><tspan style="white-space:pre" y="130.1" x="8">控）</tspan></text></g><g transform="matrix(1,0,0,1,850,773)" ed:parentid="143" id="151" ed:height="24.5" ed:width="122"><path stroke="#696969" fill="none" d="M0,24.5L122,24.5" stroke-linejoin="round"/><text class="st3"><tspan style="white-space:pre" y="16.1" x="8">数据中台能力范式</tspan></text></g><g transform="matrix(1,0,0,1,675,896)" ed:parentid="104" id="153" ed:height="24.5" ed:width="213"><path stroke="#696969" fill="none" d="M0,24.5L213,24.5" stroke-linejoin="round"/><text class="st3"><tspan style="white-space:pre" y="16.1" x="8">2.1. 阿里巴巴为什么构建数据中台</tspan></text></g><g transform="matrix(1,0,0,1,675,993)" ed:parentid="104" id="155" ed:height="24.5" ed:width="200"><path stroke="#696969" fill="none" d="M0,24.5L200,24.5" stroke-linejoin="round"/><text class="st3"><tspan style="white-space:pre" y="16.1" x="8">2.2. 数据中台与数据仓库的区别</tspan></text></g><g transform="matrix(1,0,0,1,675,1024)" ed:parentid="104" id="157" ed:height="24.5" ed:width="187"><path stroke="#696969" fill="none" d="M0,24.5L187,24.5" stroke-linejoin="round"/><text class="st3"><tspan style="white-space:pre" y="16.1" x="8">2.3. 离线与实时数据仓库发展</tspan></text></g><g transform="matrix(1,0,0,1,707,1128)" ed:parentid="106" id="159" ed:height="24.5" ed:width="109"><path stroke="#696969" fill="none" d="M0,24.5L109,24.5" stroke-linejoin="round"/><text class="st3"><tspan style="white-space:pre" y="16.1" x="8">3.1. 业务数据化</tspan></text></g><g transform="matrix(1,0,0,1,707,1205)" ed:parentid="106" id="161" ed:height="24.5" ed:width="161"><path stroke="#696969" fill="none" d="M0,24.5L161,24.5" stroke-linejoin="round"/><text class="st3"><tspan style="white-space:pre" y="16.1" x="8">3.2. 业务数据化六大现状</tspan></text></g><g transform="matrix(1,0,0,1,707,1277)" ed:parentid="106" id="163" ed:height="24.5" ed:width="109"><path stroke="#696969" fill="none" d="M0,24.5L109,24.5" stroke-linejoin="round"/><text class="st3"><tspan style="white-space:pre" y="16.1" x="8">3.3. 数据资产化</tspan></text></g><g transform="matrix(1,0,0,1,707,1398)" ed:parentid="106" id="165" ed:height="24.5" ed:width="109"><path stroke="#696969" fill="none" d="M0,24.5L109,24.5" stroke-linejoin="round"/><text class="st3"><tspan style="white-space:pre" y="16.1" x="8">3.4. 资产服务化</tspan></text></g><g transform="matrix(1,0,0,1,691,1531)" ed:parentid="108" id="167" ed:height="24.5" ed:width="213"><path stroke="#696969" fill="none" d="M0,24.5L213,24.5" stroke-linejoin="round"/><text class="st3"><tspan style="white-space:pre" y="16.1" x="8">4.1. 企业数据应用能力成熟度分析</tspan></text></g><g transform="matrix(1,0,0,1,691,1681)" ed:parentid="108" id="169" ed:height="24.5" ed:width="174"><path stroke="#696969" fill="none" d="M0,24.5L174,24.5" stroke-linejoin="round"/><text class="st3"><tspan style="white-space:pre" y="16.1" x="8">4.2. 数据中台建设之存通用</tspan></text></g><g transform="matrix(1,0,0,1,771,1832)" ed:parentid="110" id="171" ed:height="24.5" ed:width="96"><path stroke="#696969" fill="none" d="M0,24.5L96,24.5" stroke-linejoin="round"/><text class="st3"><tspan style="white-space:pre" y="16.1" x="8">5.1. 数据采集</tspan></text></g><g transform="matrix(1,0,0,1,771,1929)" ed:parentid="110" id="173" ed:height="24.5" ed:width="96"><path stroke="#696969" fill="none" d="M0,24.5L96,24.5" stroke-linejoin="round"/><text class="st3"><tspan style="white-space:pre" y="16.1" x="8">5.2. 数据同步</tspan></text></g><g transform="matrix(1,0,0,1,771,2041)" ed:parentid="110" id="175" ed:height="24.5" ed:width="96"><path stroke="#696969" fill="none" d="M0,24.5L96,24.5" stroke-linejoin="round"/><text class="st3"><tspan style="white-space:pre" y="16.1" x="8">5.3. 维度建模</tspan></text></g><g transform="matrix(1,0,0,1,771,2191)" ed:parentid="110" id="177" ed:height="24.5" ed:width="188"><path stroke="#696969" fill="none" d="M0,24.5L188,24.5" stroke-linejoin="round"/><text class="st3"><tspan style="white-space:pre" y="16.1" x="8">5.4. DataVault与BitMap技术</tspan></text></g><g transform="matrix(1,0,0,1,771,2344)" ed:parentid="110" id="179" ed:height="24.5" ed:width="122"><path stroke="#696969" fill="none" d="M0,24.5L122,24.5" stroke-linejoin="round"/><text class="st3"><tspan style="white-space:pre" y="16.1" x="8">5.5. 知识图谱建模</tspan></text></g><g transform="matrix(1,0,0,1,771,2394)" ed:parentid="110" id="181" ed:height="24.5" ed:width="122"><path stroke="#696969" fill="none" d="M0,24.5L122,24.5" stroke-linejoin="round"/><text class="st3"><tspan style="white-space:pre" y="16.1" x="8">5.6. 智能搜索建模</tspan></text></g><g transform="matrix(1,0,0,1,723,2536)" ed:parentid="112" id="183" ed:height="24.5" ed:width="147"><path stroke="#696969" fill="none" d="M0,24.5L147,24.5" stroke-linejoin="round"/><text class="st3"><tspan style="white-space:pre" y="16.1" x="8">6.1. 业务与AI、BI应用</tspan></text></g><g transform="matrix(1,0,0,1,723,2686)" ed:parentid="112" id="185" ed:height="24.5" ed:width="135"><path stroke="#696969" fill="none" d="M0,24.5L135,24.5" stroke-linejoin="round"/><text class="st3"><tspan style="white-space:pre" y="16.1" x="8">6.2. 画像建模与应用</tspan></text></g><g transform="matrix(1,0,0,1,915,831)" ed:parentid="153" id="187" ed:height="24.5" ed:width="118"><path stroke="#696969" fill="none" d="M0,24.5L118,24.5" stroke-linejoin="round"/><text class="st3"><tspan style="white-space:pre" y="16.1" x="8">IT时代=>DT时代</tspan></text></g><g transform="matrix(1,0,0,1,915,862)" ed:parentid="153" id="189" ed:height="43.5" ed:width="514"><path stroke="#696969" fill="none" d="M0,43.5L514,43.5" stroke-linejoin="round"/><text class="st3"><tspan style="white-space:pre" y="16.1" x="8">数字化转型，本质上就是利用数据驱动业务，洞察新的商业机会，提高企业执行效率，</tspan><tspan style="white-space:pre" y="35.1" x="8">减低风险，提升企业利润</tspan></text></g><g transform="matrix(1,0,0,1,915,912)" ed:parentid="153" id="191" ed:height="24.5" ed:width="408"><path stroke="#696969" fill="none" d="M0,24.5L408,24.5" stroke-linejoin="round"/><text class="st3"><tspan style="white-space:pre" y="16.1" x="8">企业数字化转型最主要的三大挑战：业务挑战、技术挑战、组织挑战</tspan></text></g><g transform="matrix(1,0,0,1,915,943)" ed:parentid="153" id="193" ed:height="43.5" ed:width="514"><path stroke="#696969" fill="none" d="M0,43.5L514,43.5" stroke-linejoin="round"/><text class="st3"><tspan style="white-space:pre" y="16.1" x="8">数据治理的七个要素：数据质量、合规使用、数据安全、标准定义、标准模型、元数据</tspan><tspan style="white-space:pre" y="35.1" x="8">管理、数据研发</tspan></text></g><g transform="matrix(1,0,0,1,843,1081)" ed:parentid="159" id="195" ed:height="24.5" ed:width="421"><path stroke="#696969" fill="none" d="M0,24.5L421,24.5" stroke-linejoin="round"/><text class="st3"><tspan style="white-space:pre" y="16.1" x="8">企业转型数智化：业务数据化、数据资产化、资产服务化、服务数据化</tspan></text></g><g transform="matrix(1,0,0,1,843,1112)" ed:parentid="159" id="197" ed:height="24.5" ed:width="512"><path stroke="#696969" fill="none" d="M0,24.5L512,24.5" stroke-linejoin="round"/><text class="st3"><tspan style="white-space:pre" y="16.1" x="8">业务生产数据、数据反哺业务，前者强调业务数据的沉淀和收集，后者强调数据的应用</tspan></text></g><g transform="matrix(1,0,0,1,843,1143)" ed:parentid="159" id="199" ed:height="24.5" ed:width="289"><path stroke="#696969" fill="none" d="M0,24.5L289,24.5" stroke-linejoin="round"/><text class="st3"><tspan style="white-space:pre" y="16.1" x="8">IT时代业务数据化的困局：有因无果、有线无面</tspan></text></g><g transform="matrix(1,0,0,1,843,1174)" ed:parentid="159" id="201" ed:height="24.5" ed:width="282"><path stroke="#696969" fill="none" d="M0,24.5L282,24.5" stroke-linejoin="round"/><text class="st3"><tspan style="white-space:pre" y="16.1" x="8">DT时代业务数据化：场景化思维、大数据思维</tspan></text></g><g transform="matrix(1,0,0,1,843,1236)" ed:parentid="163" id="203" ed:height="43.5" ed:width="514"><path stroke="#696969" fill="none" d="M0,43.5L514,43.5" stroke-linejoin="round"/><text class="st3"><tspan style="white-space:pre" y="16.1" x="8">数据资产分类：数据模型、标签模型构建的标签、搜索模型构建的索引、日志模型、图</tspan><tspan style="white-space:pre" y="35.1" x="8">谱模型构建的知识库</tspan></text></g><g transform="matrix(1,0,0,1,843,1286)" ed:parentid="163" id="205" ed:height="24.5" ed:width="304"><path stroke="#696969" fill="none" d="M0,24.5L304,24.5" stroke-linejoin="round"/><text class="st3"><tspan style="white-space:pre" y="16.1" x="8">数据资产实现的目标：可见、可懂、可用、可运营</tspan></text></g><g transform="matrix(1,0,0,1,843,1317)" ed:parentid="163" id="207" ed:height="24.5" ed:width="523"><path stroke="#696969" fill="none" d="M0,24.5L523,24.5" stroke-linejoin="round"/><text class="st3"><tspan style="white-space:pre" y="16.1" x="8">数据资产：标签层、应用层（TDM/ADM）、数仓层（DWD/DWS）、贴源层（ODS）</tspan></text></g><g transform="matrix(1,0,0,1,843,1348)" ed:parentid="165" id="209" ed:height="43.5" ed:width="514"><path stroke="#696969" fill="none" d="M0,43.5L514,43.5" stroke-linejoin="round"/><text class="st3"><tspan style="white-space:pre" y="16.1" x="8">开发者基础服务（数据API服务、查询/分析服务、数据可视化服务、标签服务、视频结</tspan><tspan style="white-space:pre" y="35.1" x="8">构化服务）、行业应用服务市场、行业AI模型</tspan></text></g><g transform="matrix(1,0,0,1,843,1448)" ed:parentid="165" id="211" ed:height="24.5" ed:width="369"><path stroke="#696969" fill="none" d="M0,24.5L369,24.5" stroke-linejoin="round"/><text class="st3"><tspan style="white-space:pre" y="16.1" x="8">AI模型服务：销售预测、智能要货、商品关联推荐、智能营销</tspan></text></g><g transform="matrix(1,0,0,1,843,1398)" ed:parentid="165" id="213" ed:height="43.5" ed:width="514"><path stroke="#696969" fill="none" d="M0,43.5L514,43.5" stroke-linejoin="round"/><text class="st3"><tspan style="white-space:pre" y="16.1" x="8">标签服务：游戏偏好、应用兴趣、人口属性、消费偏好、地理位置、游戏深度、行业标</tspan><tspan style="white-space:pre" y="35.1" x="8">签</tspan></text></g><g transform="matrix(1,0,0,1,931,1506)" ed:parentid="167" id="215" ed:height="24.5" ed:width="395"><path stroke="#696969" fill="none" d="M0,24.5L395,24.5" stroke-linejoin="round"/><text class="st3"><tspan style="white-space:pre" y="16.1" x="8">数据应用能力成熟度：统计分析、决策分析、数据驱动、运营优化</tspan></text></g><g transform="matrix(1,0,0,1,931,1537)" ed:parentid="167" id="217" ed:height="43.5" ed:width="514"><path stroke="#696969" fill="none" d="M0,43.5L514,43.5" stroke-linejoin="round"/><text class="st3"><tspan style="white-space:pre" y="16.1" x="8">可以加速考虑建立中台：有信息化基础、沉淀了数据，实现了业务数据化过程；业务复</tspan><tspan style="white-space:pre" y="35.1" x="8">杂，有丰富的数据维度和多个业务场景；有数字化转型、精细化运营需求</tspan></text></g><g transform="matrix(1,0,0,1,892,1587)" ed:parentid="169" id="219" ed:height="43.5" ed:width="514"><path stroke="#696969" fill="none" d="M0,43.5L514,43.5" stroke-linejoin="round"/><text class="st3"><tspan style="white-space:pre" y="16.1" x="8">数据移动：数据采集（收集任何来源的数据）、数据处理（支持复杂的数据处理如</tspan><tspan style="white-space:pre" y="35.1" x="8">ETL）、数据湖（支持多样化的数据存储目标）</tspan></text></g><g transform="matrix(1,0,0,1,892,1637)" ed:parentid="169" id="221" ed:height="24.5" ed:width="382"><path stroke="#696969" fill="none" d="M0,24.5L382,24.5" stroke-linejoin="round"/><text class="st3"><tspan style="white-space:pre" y="16.1" x="8">数据资产实施步骤：摸现状、建规范、搭平台、管资产、做运营</tspan></text></g><g transform="matrix(1,0,0,1,892,1668)" ed:parentid="169" id="223" ed:height="24.5" ed:width="473"><path stroke="#696969" fill="none" d="M0,24.5L473,24.5" stroke-linejoin="round"/><text class="st3"><tspan style="white-space:pre" y="16.1" x="8">全新设计的数据工场：一站式、智能向导、可视化、数据融合、零编程、组合态</tspan></text></g><g transform="matrix(1,0,0,1,892,1699)" ed:parentid="169" id="225" ed:height="100.5" ed:width="514"><path stroke="#696969" fill="none" d="M0,100.5L514,100.5" stroke-linejoin="round"/><text class="st3"><tspan style="white-space:pre" y="16.1" x="8">数据工场特性：数据规范定义、多视角多方式可视化建模、设计即开发、面向数仓分层</tspan><tspan style="white-space:pre" y="35.1" x="8">管理模式、增量/整库数据集成、拖拽式流程设计器、丰富的数据处理组件、独特性数</tspan><tspan style="white-space:pre" y="54.1" x="8">仓应用组件、规则化数据清洗组件、模版化批量处理、可视化调试、科学完善的数据安</tspan><tspan style="white-space:pre" y="73.1" x="8">全脱敏、个性化模型资源检索、数据资产管理、主题式分析、灵活的调度服务、多角度</tspan><tspan style="white-space:pre" y="92.1" x="8">监控运维、全面完整的监控体系</tspan></text></g><g transform="matrix(1,0,0,1,897,2452)" ed:parentid="183" id="227" ed:height="24.5" ed:width="315"><path stroke="#696969" fill="none" d="M0,24.5L315,24.5" stroke-linejoin="round"/><text class="st3"><tspan style="white-space:pre" y="16.1" x="8">数据中台能力范式：收集、治理、处理、分析&amp;智能</tspan></text></g><g transform="matrix(1,0,0,1,897,2483)" ed:parentid="183" id="229" ed:height="62.5" ed:width="514"><path stroke="#696969" fill="none" d="M0,62.5L514,62.5" stroke-linejoin="round"/><text class="st3"><tspan style="white-space:pre" y="16.1" x="8">数据展示与分析：描述性分析（自助式分析、类Excel报表、即席查询、数字大屏）、</tspan><tspan style="white-space:pre" y="35.1" x="8">预测性分析（分类、预测、挖掘、回归）、图谱分析、数据搜索、用户行为分析、标签</tspan><tspan style="white-space:pre" y="54.1" x="8">画像分析</tspan></text></g><g transform="matrix(1,0,0,1,897,2552)" ed:parentid="183" id="231" ed:height="43.5" ed:width="514"><path stroke="#696969" fill="none" d="M0,43.5L514,43.5" stroke-linejoin="round"/><text class="st3"><tspan style="white-space:pre" y="16.1" x="8">面向C端的数据中台：业务价值的核心在流量，面向营销，增加客户接触面，获客、转</tspan><tspan style="white-space:pre" y="35.1" x="8">化、留存</tspan></text></g><g transform="matrix(1,0,0,1,897,2602)" ed:parentid="183" id="233" ed:height="43.5" ed:width="514"><path stroke="#696969" fill="none" d="M0,43.5L514,43.5" stroke-linejoin="round"/><text class="st3"><tspan style="white-space:pre" y="16.1" x="8">面向B端的数据中台：业务价值的核心在于高效协同、实时运营，降本增效，实现企业</tspan><tspan style="white-space:pre" y="35.1" x="8">数智化的综合能力提升</tspan></text></g><g transform="matrix(1,0,0,1,885,2652)" ed:parentid="185" id="235" ed:height="43.5" ed:width="514"><path stroke="#696969" fill="none" d="M0,43.5L514,43.5" stroke-linejoin="round"/><text class="st3"><tspan style="white-space:pre" y="16.1" x="8">定性分析：定性就是用文字语言进行相关描述。定量分析：定量就是用数学语言进行描</tspan><tspan style="white-space:pre" y="35.1" x="8">述。定性分析与定量分析应该是统一的，相互补充的。</tspan></text></g><g transform="matrix(1,0,0,1,885,2702)" ed:parentid="185" id="237" ed:height="43.5" ed:width="514"><path stroke="#696969" fill="none" d="M0,43.5L514,43.5" stroke-linejoin="round"/><text class="st3"><tspan style="white-space:pre" y="16.1" x="8">用户画像常用来作为精准营销、推荐系统的基础性工作。其作用总体包括：精准营销、</tspan><tspan style="white-space:pre" y="35.1" x="8">用户分析、数据挖掘、服务产品、行业报告&amp;用户研究</tspan></text></g><g transform="matrix(1,0,0,1,894,1863)" ed:parentid="173" id="239" ed:height="24.5" ed:width="216"><path stroke="#696969" fill="none" d="M0,24.5L216,24.5" stroke-linejoin="round"/><text class="st3"><tspan style="white-space:pre" y="16.1" x="8">数据同步类型：ETL架构和ELT架构</tspan></text></g><g transform="matrix(1,0,0,1,894,1894)" ed:parentid="173" id="241" ed:height="43.5" ed:width="514"><path stroke="#696969" fill="none" d="M0,43.5L514,43.5" stroke-linejoin="round"/><text class="st3"><tspan style="white-space:pre" y="16.1" x="8">ETL在转化的过程中，主要体现在以下方面：空值处理、规范化数据格式、拆分数据、</tspan><tspan style="white-space:pre" y="35.1" x="8">验证数据正确性、数据替换、Lookup、建立ETL过程的主外键约束</tspan></text></g><g transform="matrix(1,0,0,1,894,1944)" ed:parentid="173" id="243" ed:height="43.5" ed:width="514"><path stroke="#696969" fill="none" d="M0,43.5L514,43.5" stroke-linejoin="round"/><text class="st3"><tspan style="white-space:pre" y="16.1" x="8">数据转换需要做的四方面：清洗（缺失值、异常值、重复值）、融合（实体识别、冗余</tspan><tspan style="white-space:pre" y="35.1" x="8">性识别）、变换（离散化、属性构造）、规约（特征规约、样本规约）</tspan></text></g><g transform="matrix(1,0,0,1,894,1994)" ed:parentid="173" id="245" ed:height="24.5" ed:width="467"><path stroke="#696969" fill="none" d="M0,24.5L467,24.5" stroke-linejoin="round"/><text class="st3"><tspan style="white-space:pre" y="16.1" x="8">数据加工产品：ETL开发（Kettle、Sqoop）、调度管理（Firflow、Azkaban）</tspan></text></g><g transform="matrix(1,0,0,1,894,2025)" ed:parentid="175" id="247" ed:height="24.5" ed:width="369"><path stroke="#696969" fill="none" d="M0,24.5L369,24.5" stroke-linejoin="round"/><text class="st3"><tspan style="white-space:pre" y="16.1" x="8">指标设计：原子指标、时间修饰词、其他修饰类型、派生指标</tspan></text></g><g transform="matrix(1,0,0,1,894,2056)" ed:parentid="175" id="249" ed:height="24.5" ed:width="486"><path stroke="#696969" fill="none" d="M0,24.5L486,24.5" stroke-linejoin="round"/><text class="st3"><tspan style="white-space:pre" y="16.1" x="8">事实表设计步骤：确定业务过程、定义粒度、确定维度、确定事实、冗余维度属性</tspan></text></g><g transform="matrix(1,0,0,1,894,1832)" ed:parentid="171" id="251" ed:height="24.5" ed:width="338"><path stroke="#696969" fill="none" d="M0,24.5L338,24.5" stroke-linejoin="round"/><text class="st3"><tspan style="white-space:pre" y="16.1" x="8">数据采集产品：业务数据、爬虫产品、API、填报、埋点</tspan></text></g><g transform="matrix(1,0,0,1,986,2087)" ed:parentid="177" id="253" ed:height="81.5" ed:width="514"><path stroke="#696969" fill="none" d="M0,81.5L514,81.5" stroke-linejoin="round"/><text class="st3"><tspan style="white-space:pre" y="16.1" x="8">Data Vault模型定义：按照Dan Linstedt的定义，Data Vault模型是面向细节的、可追</tspan><tspan style="white-space:pre" y="35.1" x="8">踪历史的、一组有链连接关系的规范化的表的集合。它综合了三范式建模和星型模型的</tspan><tspan style="white-space:pre" y="54.1" x="8">优点，其设计理念是满足企业对数据模型灵活性、可扩展性、一致性和对需求的适应性</tspan><tspan style="white-space:pre" y="73.1" x="8">要求，是专门针对企业级数据仓库需要的一套建模方法</tspan></text></g><g transform="matrix(1,0,0,1,986,2175)" ed:parentid="177" id="255" ed:height="43.5" ed:width="514"><path stroke="#696969" fill="none" d="M0,43.5L514,43.5" stroke-linejoin="round"/><text class="st3"><tspan style="white-space:pre" y="16.1" x="8">Hub组件，是一个数据表，用于记录在业务应用中常用到的业务实体键值，如员工ID，</tspan><tspan style="white-space:pre" y="35.1" x="8">发票号</tspan></text></g><g transform="matrix(1,0,0,1,986,2225)" ed:parentid="177" id="257" ed:height="43.5" ed:width="514"><path stroke="#696969" fill="none" d="M0,43.5L514,43.5" stroke-linejoin="round"/><text class="st3"><tspan style="white-space:pre" y="16.1" x="8">Link组件，通过存储相关业务实体间Hub表的SK（Surrorgate Key），以记录一对</tspan><tspan style="white-space:pre" y="35.1" x="8">多，多对多的业务实体间关系，如员工与企业的雇佣关系，账户与客户之前的关系等</tspan></text></g><g transform="matrix(1,0,0,1,986,2275)" ed:parentid="177" id="259" ed:height="43.5" ed:width="514"><path stroke="#696969" fill="none" d="M0,43.5L514,43.5" stroke-linejoin="round"/><text class="st3"><tspan style="white-space:pre" y="16.1" x="8">BitMap可以理解为通过一个bit数组来存储特定数据的一种数据结构：由于bit是数据的</tspan><tspan style="white-space:pre" y="35.1" x="8">最小单位，所以这种数据结构往往是非常节省存储空间的</tspan></text></g><g transform="matrix(1,0,0,1,920,2325)" ed:parentid="179" id="261" ed:height="62.5" ed:width="514"><path stroke="#696969" fill="none" d="M0,62.5L514,62.5" stroke-linejoin="round"/><text class="st3"><tspan style="white-space:pre" y="16.1" x="8">BEAF原则：业务原则（实体是以业务为中心的）、分析原则（任何一个实体都是为关</tspan><tspan style="white-space:pre" y="35.1" x="8">系分析而服务的）、冗余原则（避免存放任何重复的信息）、效率原则（尽量轻便，只</tspan><tspan style="white-space:pre" y="54.1" x="8">存储关键信息）</tspan></text></g><g transform="matrix(1,0,0,1,920,2394)" ed:parentid="181" id="263" ed:height="24.5" ed:width="457"><path stroke="#696969" fill="none" d="M0,24.5L457,24.5" stroke-linejoin="round"/><text class="st3"><tspan style="white-space:pre" y="16.1" x="8">电商搜索（ES索引模型）、智能问答（NL-SQL建模）、知识模型（KBQA）</tspan></text></g><symbol id="plus"><path fill="url(#lg1)" d="M11,6C11,8.8,8.8,11,6,11C3.2,11,1,8.8,1,6C1,3.2,3.2,1,6,1C8.8,1,11,3.2,11,6z"/><path fill="none" stroke="#46a000" d="M11,6C11,8.8,8.8,11,6,11C3.2,11,1,8.8,1,6C1,3.2,3.2,1,6,1C8.8,1,11,3.2,11,6zM3,6L9,6M6,3L6,9" stroke-width="0.7"/></symbol><symbol id="minus"><path fill="url(#lg1)" d="M11,6C11,8.8,8.8,11,6,11C3.2,11,1,8.8,1,6C1,3.2,3.2,1,6,1C8.8,1,11,3.2,11,6z"/><path fill="none" stroke="#46a000" d="M11,6C11,8.8,8.8,11,6,11C3.2,11,1,8.8,1,6C1,3.2,3.2,1,6,1C8.8,1,11,3.2,11,6zM3,6L9,6" stroke-width="0.7"/></symbol><g transform="translate(371,1377)" ed:togtopicid="101"><use xlink:href="#minus"/></g><g transform="translate(649,403)" ed:togtopicid="102"><use xlink:href="#minus"/></g><g transform="translate(649,933)" ed:togtopicid="104"><use xlink:href="#minus"/></g><g transform="translate(681,1271)" ed:togtopicid="106"><use xlink:href="#minus"/></g><g transform="translate(665,1646)" ed:togtopicid="108"><use xlink:href="#minus"/></g><g transform="translate(745,2119)" ed:togtopicid="110"><use xlink:href="#minus"/></g><g transform="translate(697,2592)" ed:togtopicid="112"><use xlink:href="#minus"/></g><g transform="translate(824,81)" ed:togtopicid="125"><use xlink:href="#minus"/></g><g transform="translate(837,344)" ed:togtopicid="127"><use xlink:href="#minus"/></g><g transform="translate(824,666)" ed:togtopicid="143"><use xlink:href="#minus"/></g><g transform="translate(889,902)" ed:togtopicid="153"><use xlink:href="#minus"/></g><g transform="translate(817,1134)" ed:togtopicid="159"><use xlink:href="#minus"/></g><g transform="translate(817,1283)" ed:togtopicid="163"><use xlink:href="#minus"/></g><g transform="translate(817,1404)" ed:togtopicid="165"><use xlink:href="#minus"/></g><g transform="translate(905,1537)" ed:togtopicid="167"><use xlink:href="#minus"/></g><g transform="translate(866,1687)" ed:togtopicid="169"><use xlink:href="#minus"/></g><g transform="translate(868,1838)" ed:togtopicid="171"><use xlink:href="#minus"/></g><g transform="translate(868,1935)" ed:togtopicid="173"><use xlink:href="#minus"/></g><g transform="translate(868,2047)" ed:togtopicid="175"><use xlink:href="#minus"/></g><g transform="translate(960,2197)" ed:togtopicid="177"><use xlink:href="#minus"/></g><g transform="translate(894,2350)" ed:togtopicid="179"><use xlink:href="#minus"/></g><g transform="translate(894,2400)" ed:togtopicid="181"><use xlink:href="#minus"/></g><g transform="translate(871,2542)" ed:togtopicid="183"><use xlink:href="#minus"/></g><g transform="translate(859,2692)" ed:togtopicid="185"><use xlink:href="#minus"/></g></svg>