<svg height="2131" width="1525" xmlns="http://www.w3.org/2000/svg" xmlns:ed="https://www.edrawsoft.cn/xml/2017/SVGExtensions/" ed:hSpacing="30" ed:vSpacing="30" xmlns:xlink="http://www.w3.org/1999/xlink" viewBox="0 0 1525 2131" xmlns:ev="http://www.w3.org/2001/xml-events" ed:name="Page-1" id="page100"><style type="text/css"><![CDATA[
g[ed\:togtopicid],g[ed\:hyperlink],g[ed\:comment],g[ed\:note] {cursor:pointer;}
g[id] {-moz-user-select: none;-ms-user-select: none;user-select: none;}
svg text::selection,svg tspan::selection{background-color: #4285f4;color: #ffffff;fill: #ffffff;}
.st2 {fill:#303030;font-family:宋体;font-size:11pt}
.st3 {fill:#454545;font-family:宋体;font-size:9pt}
.st1 {fill:#ffffff;font-family:宋体;font-size:14pt}
]]></style><defs><linearGradient x2="0%" y2="100%" y1="0%" x1="0%" id="lg1"><stop offset="0" stop-color="#ffffff"/><stop offset="0.25" stop-color="#f0f5f0"/><stop offset="0.75" stop-color="#e1ebe1"/><stop offset="1" stop-color="#c8d7c8"/></linearGradient></defs><rect height="2131" y="0" width="1525" fill="#ffffff" x="0"/><path transform="matrix(1,0,0,1,370,726)" stroke="#696969" stroke-linecap="round" fill="none" ed:parentid="101" d="M-85.4,312C11.4,185.9,-74.8,-339,136.5,-339" ed:tosuperid="102" stroke-linejoin="round" id="103"/><path transform="matrix(1,0,0,1,740,274)" stroke="#696969" stroke-linecap="round" fill="none" ed:parentid="102" d="M-13.5,113.1C5.4,113.1,-13.5,-113.1,13.5,-113.1" ed:tosuperid="104" stroke-linejoin="round" id="105"/><path transform="matrix(1,0,0,1,740,353)" stroke="#696969" stroke-linecap="round" fill="none" ed:parentid="102" d="M-13.5,33.6C4,33.6,-10.3,-33.6,13.5,-33.6" ed:tosuperid="106" stroke-linejoin="round" id="107"/><path transform="matrix(1,0,0,1,740,413)" stroke="#696969" stroke-linecap="round" fill="none" ed:parentid="102" d="M-13.5,-25.9C2.8,-25.9,-7.5,25.9,13.5,25.9" ed:tosuperid="108" stroke-linejoin="round" id="109"/><path transform="matrix(1,0,0,1,740,472)" stroke="#696969" stroke-linecap="round" fill="none" ed:parentid="102" d="M-13.5,-85.4C5.4,-85.4,-13.5,85.4,13.5,85.4" ed:tosuperid="110" stroke-linejoin="round" id="111"/><path transform="matrix(1,0,0,1,740,531)" stroke="#696969" stroke-linecap="round" fill="none" ed:parentid="102" d="M-13.5,-143.9C5.4,-143.9,-13.5,143.9,13.5,143.9" ed:tosuperid="112" stroke-linejoin="round" id="113"/><path transform="matrix(1,0,0,1,370,987)" stroke="#696969" stroke-linecap="round" fill="none" ed:parentid="101" d="M-53.9,51.3C9.3,6.5,44.9,-78.3,136.5,-78.3" ed:tosuperid="116" stroke-linejoin="round" id="117"/><path transform="matrix(1,0,0,1,370,1128)" stroke="#696969" stroke-linecap="round" fill="none" ed:parentid="101" d="M-45.5,-36.5C14.2,0.8,54.6,63.5,136.5,63.5" ed:tosuperid="118" stroke-linejoin="round" id="119"/><path transform="matrix(1,0,0,1,683,870)" stroke="#696969" stroke-linecap="round" fill="none" ed:parentid="116" d="M-13.5,38.6C4.6,38.6,-11.6,-38.6,13.5,-38.6" ed:tosuperid="120" stroke-linejoin="round" id="121"/><path transform="matrix(1,0,0,1,683,933)" stroke="#696969" stroke-linecap="round" fill="none" ed:parentid="116" d="M-13.5,-24.4C2.6,-24.4,-6.9,24.4,13.5,24.4" ed:tosuperid="122" stroke-linejoin="round" id="123"/><path transform="matrix(1,0,0,1,788,1144)" stroke="#696969" stroke-linecap="round" fill="none" ed:parentid="118" d="M-13.5,47.6C5.3,47.6,-13.2,-47.6,13.5,-47.6" ed:tosuperid="124" stroke-linejoin="round" id="125"/><path transform="matrix(1,0,0,1,788,1164)" stroke="#696969" stroke-linecap="round" fill="none" ed:parentid="118" d="M-13.5,28.1C3.2,28.1,-8.4,-28.1,13.5,-28.1" ed:tosuperid="126" stroke-linejoin="round" id="127"/><path transform="matrix(1,0,0,1,788,1190)" stroke="#696969" stroke-linecap="round" fill="none" ed:parentid="118" d="M-13.5,2.1C-2.2,2.1,4.2,-2.1,13.5,-2.1" ed:tosuperid="128" stroke-linejoin="round" id="129"/><path transform="matrix(1,0,0,1,788,1226)" stroke="#696969" stroke-linecap="round" fill="none" ed:parentid="118" d="M-13.5,-33.9C4.1,-33.9,-10.4,33.9,13.5,33.9" ed:tosuperid="130" stroke-linejoin="round" id="131"/><path transform="matrix(1,0,0,1,788,1252)" stroke="#696969" stroke-linecap="round" fill="none" ed:parentid="118" d="M-13.5,-60.4C5.4,-60.4,-13.5,60.4,13.5,60.4" ed:tosuperid="132" stroke-linejoin="round" id="133"/><path transform="matrix(1,0,0,1,370,1300)" stroke="#696969" stroke-linecap="round" fill="none" ed:parentid="101" d="M-80.6,-207.7C4.2,-107.9,-35.5,234.8,136.5,234.8" ed:tosuperid="134" stroke-linejoin="round" id="135"/><path transform="matrix(1,0,0,1,755,1496)" stroke="#696969" stroke-linecap="round" fill="none" ed:parentid="134" d="M-13.5,38.6C4.6,38.6,-11.6,-38.6,13.5,-38.6" ed:tosuperid="136" stroke-linejoin="round" id="137"/><path transform="matrix(1,0,0,1,755,1561)" stroke="#696969" stroke-linecap="round" fill="none" ed:parentid="134" d="M-13.5,-26.9C3,-26.9,-7.9,26.9,13.5,26.9" ed:tosuperid="138" stroke-linejoin="round" id="139"/><path transform="matrix(1,0,0,1,755,1605)" stroke="#696969" stroke-linecap="round" fill="none" ed:parentid="134" d="M-13.5,-70.4C5.4,-70.4,-13.5,70.4,13.5,70.4" ed:tosuperid="140" stroke-linejoin="round" id="141"/><path transform="matrix(1,0,0,1,370,1497)" stroke="#696969" stroke-linecap="round" fill="none" ed:parentid="101" d="M-88.5,-405C17.8,-258.7,-98.5,432,136.5,432" ed:tosuperid="146" stroke-linejoin="round" id="147"/><path transform="matrix(1,0,0,1,740,1894)" stroke="#696969" stroke-linecap="round" fill="none" ed:parentid="146" d="M-13.5,34.6C4.1,34.6,-10.6,-34.6,13.5,-34.6" ed:tosuperid="148" stroke-linejoin="round" id="149"/><path transform="matrix(1,0,0,1,740,1979)" stroke="#696969" stroke-linecap="round" fill="none" ed:parentid="146" d="M-13.5,-50.4C5.4,-50.4,-13.4,50.4,13.5,50.4" ed:tosuperid="150" stroke-linejoin="round" id="151"/><path transform="matrix(1,0,0,1,740,2019)" stroke="#696969" stroke-linecap="round" fill="none" ed:parentid="146" d="M-13.5,-89.9C5.4,-89.9,-13.5,89.9,13.5,89.9" ed:tosuperid="154" stroke-linejoin="round" id="155"/><path transform="matrix(1,0,0,1,917,101)" stroke="#696969" stroke-linecap="round" fill="none" ed:parentid="104" d="M-13.5,60C5.4,60,-13.5,-60,13.5,-60" ed:tosuperid="156" stroke-linejoin="round" id="157"/><path transform="matrix(1,0,0,1,917,121)" stroke="#696969" stroke-linecap="round" fill="none" ed:parentid="104" d="M-13.5,40C4.7,40,-12,-40,13.5,-40" ed:tosuperid="158" stroke-linejoin="round" id="159"/><path transform="matrix(1,0,0,1,917,148)" stroke="#696969" stroke-linecap="round" fill="none" ed:parentid="104" d="M-13.5,13C0.3,13,-1.6,-13,13.5,-13" ed:tosuperid="160" stroke-linejoin="round" id="161"/><path transform="matrix(1,0,0,1,917,168)" stroke="#696969" stroke-linecap="round" fill="none" ed:parentid="104" d="M-13.5,-7C-1.1,-7,1.6,7,13.5,7" ed:tosuperid="162" stroke-linejoin="round" id="163"/><path transform="matrix(1,0,0,1,917,188)" stroke="#696969" stroke-linecap="round" fill="none" ed:parentid="104" d="M-13.5,-27C3,-27,-8,27,13.5,27" ed:tosuperid="164" stroke-linejoin="round" id="165"/><path transform="matrix(1,0,0,1,917,201)" stroke="#696969" stroke-linecap="round" fill="none" ed:parentid="104" d="M-13.5,-40C4.7,-40,-12,40,13.5,40" ed:tosuperid="166" stroke-linejoin="round" id="167"/><path transform="matrix(1,0,0,1,917,221)" stroke="#696969" stroke-linecap="round" fill="none" ed:parentid="104" d="M-13.5,-60C5.4,-60,-13.5,60,13.5,60" ed:tosuperid="168" stroke-linejoin="round" id="169"/><path transform="matrix(1,0,0,1,881,313)" stroke="#696969" stroke-linecap="round" fill="none" ed:parentid="106" d="M-13.5,6.5C-1.2,6.5,1.8,-6.5,13.5,-6.5" ed:tosuperid="172" stroke-linejoin="round" id="173"/><path transform="matrix(1,0,0,1,881,326)" stroke="#696969" stroke-linecap="round" fill="none" ed:parentid="106" d="M-13.5,-6.5C-1.2,-6.5,1.8,6.5,13.5,6.5" ed:tosuperid="176" stroke-linejoin="round" id="177"/><path transform="matrix(1,0,0,1,929,406)" stroke="#696969" stroke-linecap="round" fill="none" ed:parentid="108" d="M-13.5,33C3.9,33,-10.1,-33,13.5,-33" ed:tosuperid="178" stroke-linejoin="round" id="179"/><path transform="matrix(1,0,0,1,929,426)" stroke="#696969" stroke-linecap="round" fill="none" ed:parentid="108" d="M-13.5,13C0.3,13,-1.6,-13,13.5,-13" ed:tosuperid="180" stroke-linejoin="round" id="181"/><path transform="matrix(1,0,0,1,929,439)" stroke="#696969" stroke-linecap="round" fill="none" ed:parentid="108" d="M-13.5,0C-2.7,0,5.4,0,13.5,0" ed:tosuperid="182" stroke-linejoin="round" id="183"/><path transform="matrix(1,0,0,1,929,459)" stroke="#696969" stroke-linecap="round" fill="none" ed:parentid="108" d="M-13.5,-20C1.8,-20,-5,20,13.5,20" ed:tosuperid="184" stroke-linejoin="round" id="185"/><path transform="matrix(1,0,0,1,929,479)" stroke="#696969" stroke-linecap="round" fill="none" ed:parentid="108" d="M-13.5,-40C4.7,-40,-12,40,13.5,40" ed:tosuperid="186" stroke-linejoin="round" id="187"/><path transform="matrix(1,0,0,1,941,551)" stroke="#696969" stroke-linecap="round" fill="none" ed:parentid="110" d="M-13.5,6.5C-1.2,6.5,1.8,-6.5,13.5,-6.5" ed:tosuperid="188" stroke-linejoin="round" id="189"/><path transform="matrix(1,0,0,1,941,564)" stroke="#696969" stroke-linecap="round" fill="none" ed:parentid="110" d="M-13.5,-6.5C-1.2,-6.5,1.8,6.5,13.5,6.5" ed:tosuperid="190" stroke-linejoin="round" id="191"/><path transform="matrix(1,0,0,1,941,636)" stroke="#696969" stroke-linecap="round" fill="none" ed:parentid="112" d="M-13.5,39C4.6,39,-11.7,-39,13.5,-39" ed:tosuperid="192" stroke-linejoin="round" id="193"/><path transform="matrix(1,0,0,1,941,649)" stroke="#696969" stroke-linecap="round" fill="none" ed:parentid="112" d="M-13.5,26C2.9,26,-7.6,-26,13.5,-26" ed:tosuperid="194" stroke-linejoin="round" id="195"/><path transform="matrix(1,0,0,1,941,662)" stroke="#696969" stroke-linecap="round" fill="none" ed:parentid="112" d="M-13.5,13C0.3,13,-1.6,-13,13.5,-13" ed:tosuperid="196" stroke-linejoin="round" id="197"/><path transform="matrix(1,0,0,1,941,675)" stroke="#696969" stroke-linecap="round" fill="none" ed:parentid="112" d="M-13.5,0C-2.7,0,5.4,0,13.5,0" ed:tosuperid="198" stroke-linejoin="round" id="199"/><path transform="matrix(1,0,0,1,941,688)" stroke="#696969" stroke-linecap="round" fill="none" ed:parentid="112" d="M-13.5,-13C0.3,-13,-1.6,13,13.5,13" ed:tosuperid="200" stroke-linejoin="round" id="201"/><path transform="matrix(1,0,0,1,941,701)" stroke="#696969" stroke-linecap="round" fill="none" ed:parentid="112" d="M-13.5,-26C2.9,-26,-7.6,26,13.5,26" ed:tosuperid="202" stroke-linejoin="round" id="203"/><path transform="matrix(1,0,0,1,941,714)" stroke="#696969" stroke-linecap="round" fill="none" ed:parentid="112" d="M-13.5,-39C4.6,-39,-11.7,39,13.5,39" ed:tosuperid="204" stroke-linejoin="round" id="205"/><path transform="matrix(1,0,0,1,812,818)" stroke="#696969" stroke-linecap="round" fill="none" ed:parentid="120" d="M-13.5,13C0.3,13,-1.6,-13,13.5,-13" ed:tosuperid="206" stroke-linejoin="round" id="207"/><path transform="matrix(1,0,0,1,812,831)" stroke="#696969" stroke-linecap="round" fill="none" ed:parentid="120" d="M-13.5,0C-2.7,0,5.4,0,13.5,0" ed:tosuperid="208" stroke-linejoin="round" id="209"/><path transform="matrix(1,0,0,1,812,844)" stroke="#696969" stroke-linecap="round" fill="none" ed:parentid="120" d="M-13.5,-13C0.3,-13,-1.6,13,13.5,13" ed:tosuperid="210" stroke-linejoin="round" id="211"/><path transform="matrix(1,0,0,1,914,927)" stroke="#696969" stroke-linecap="round" fill="none" ed:parentid="122" d="M-13.5,30C3.5,30,-9.1,-30,13.5,-30" ed:tosuperid="212" stroke-linejoin="round" id="213"/><path transform="matrix(1,0,0,1,914,947)" stroke="#696969" stroke-linecap="round" fill="none" ed:parentid="122" d="M-13.5,10C-0.4,10,-0,-10,13.5,-10" ed:tosuperid="214" stroke-linejoin="round" id="215"/><path transform="matrix(1,0,0,1,914,967)" stroke="#696969" stroke-linecap="round" fill="none" ed:parentid="122" d="M-13.5,-10C-0.4,-10,-0,10,13.5,10" ed:tosuperid="216" stroke-linejoin="round" id="217"/><path transform="matrix(1,0,0,1,914,994)" stroke="#696969" stroke-linecap="round" fill="none" ed:parentid="122" d="M-13.5,-37C4.4,-37,-11.2,37,13.5,37" ed:tosuperid="218" stroke-linejoin="round" id="219"/><path transform="matrix(1,0,0,1,977,1090)" stroke="#696969" stroke-linecap="round" fill="none" ed:parentid="124" d="M-13.5,6.5C-1.2,6.5,1.8,-6.5,13.5,-6.5" ed:tosuperid="220" stroke-linejoin="round" id="221"/><path transform="matrix(1,0,0,1,977,1103)" stroke="#696969" stroke-linecap="round" fill="none" ed:parentid="124" d="M-13.5,-6.5C-1.2,-6.5,1.8,6.5,13.5,6.5" ed:tosuperid="222" stroke-linejoin="round" id="223"/><path transform="matrix(1,0,0,1,977,1136)" stroke="#696969" stroke-linecap="round" fill="none" ed:parentid="126" d="M-13.5,0C-2.7,0,5.4,0,13.5,0" ed:tosuperid="224" stroke-linejoin="round" id="225"/><path transform="matrix(1,0,0,1,953,1175)" stroke="#696969" stroke-linecap="round" fill="none" ed:parentid="128" d="M-13.5,13C0.3,13,-1.6,-13,13.5,-13" ed:tosuperid="226" stroke-linejoin="round" id="227"/><path transform="matrix(1,0,0,1,953,1188)" stroke="#696969" stroke-linecap="round" fill="none" ed:parentid="128" d="M-13.5,0C-2.7,0,5.4,0,13.5,0" ed:tosuperid="228" stroke-linejoin="round" id="229"/><path transform="matrix(1,0,0,1,953,1201)" stroke="#696969" stroke-linecap="round" fill="none" ed:parentid="128" d="M-13.5,-13C0.3,-13,-1.6,13,13.5,13" ed:tosuperid="230" stroke-linejoin="round" id="231"/><path transform="matrix(1,0,0,1,965,1250)" stroke="#696969" stroke-linecap="round" fill="none" ed:parentid="130" d="M-13.5,10C-0.4,10,-0,-10,13.5,-10" ed:tosuperid="232" stroke-linejoin="round" id="233"/><path transform="matrix(1,0,0,1,965,1270)" stroke="#696969" stroke-linecap="round" fill="none" ed:parentid="130" d="M-13.5,-10C-0.4,-10,-0,10,13.5,10" ed:tosuperid="234" stroke-linejoin="round" id="235"/><path transform="matrix(1,0,0,1,977,1316)" stroke="#696969" stroke-linecap="round" fill="none" ed:parentid="132" d="M-13.5,-3.5C-1.9,-3.5,3.5,3.5,13.5,3.5" ed:tosuperid="236" stroke-linejoin="round" id="237"/><path transform="matrix(1,0,0,1,956,1415)" stroke="#696969" stroke-linecap="round" fill="none" ed:parentid="136" d="M-13.5,42.5C5,42.5,-12.5,-42.5,13.5,-42.5" ed:tosuperid="238" stroke-linejoin="round" id="239"/><path transform="matrix(1,0,0,1,956,1428)" stroke="#696969" stroke-linecap="round" fill="none" ed:parentid="136" d="M-13.5,29.5C3.4,29.5,-8.9,-29.5,13.5,-29.5" ed:tosuperid="240" stroke-linejoin="round" id="241"/><path transform="matrix(1,0,0,1,956,1441)" stroke="#696969" stroke-linecap="round" fill="none" ed:parentid="136" d="M-13.5,16.5C1,16.5,-3.3,-16.5,13.5,-16.5" ed:tosuperid="242" stroke-linejoin="round" id="243"/><path transform="matrix(1,0,0,1,956,1454)" stroke="#696969" stroke-linecap="round" fill="none" ed:parentid="136" d="M-13.5,3.5C-1.9,3.5,3.5,-3.5,13.5,-3.5" ed:tosuperid="244" stroke-linejoin="round" id="245"/><path transform="matrix(1,0,0,1,956,1474)" stroke="#696969" stroke-linecap="round" fill="none" ed:parentid="136" d="M-13.5,-16.5C1,-16.5,-3.3,16.5,13.5,16.5" ed:tosuperid="246" stroke-linejoin="round" id="247"/><path transform="matrix(1,0,0,1,956,1487)" stroke="#696969" stroke-linecap="round" fill="none" ed:parentid="136" d="M-13.5,-29.5C3.4,-29.5,-8.9,29.5,13.5,29.5" ed:tosuperid="248" stroke-linejoin="round" id="249"/><path transform="matrix(1,0,0,1,956,1500)" stroke="#696969" stroke-linecap="round" fill="none" ed:parentid="136" d="M-13.5,-42.5C5,-42.5,-12.5,42.5,13.5,42.5" ed:tosuperid="250" stroke-linejoin="round" id="251"/><path transform="matrix(1,0,0,1,932,1578)" stroke="#696969" stroke-linecap="round" fill="none" ed:parentid="138" d="M-13.5,10C-0.4,10,-0,-10,13.5,-10" ed:tosuperid="252" stroke-linejoin="round" id="253"/><path transform="matrix(1,0,0,1,932,1598)" stroke="#696969" stroke-linecap="round" fill="none" ed:parentid="138" d="M-13.5,-10C-0.4,-10,-0,10,13.5,10" ed:tosuperid="254" stroke-linejoin="round" id="255"/><path transform="matrix(1,0,0,1,884,1676)" stroke="#696969" stroke-linecap="round" fill="none" ed:parentid="140" d="M-13.5,-0.5C-2.7,-0.5,5.4,0.5,13.5,0.5" ed:tosuperid="256" stroke-linejoin="round" id="257"/><path transform="matrix(1,0,0,1,884,1696)" stroke="#696969" stroke-linecap="round" fill="none" ed:parentid="140" d="M-13.5,-20.5C1.8,-20.5,-5.2,20.5,13.5,20.5" ed:tosuperid="258" stroke-linejoin="round" id="259"/><path transform="matrix(1,0,0,1,857,1814)" stroke="#696969" stroke-linecap="round" fill="none" ed:parentid="148" d="M-13.5,45.5C5.2,45.5,-12.9,-45.5,13.5,-45.5" ed:tosuperid="260" stroke-linejoin="round" id="261"/><path transform="matrix(1,0,0,1,857,1827)" stroke="#696969" stroke-linecap="round" fill="none" ed:parentid="148" d="M-13.5,32.5C3.9,32.5,-9.9,-32.5,13.5,-32.5" ed:tosuperid="262" stroke-linejoin="round" id="263"/><path transform="matrix(1,0,0,1,857,1840)" stroke="#696969" stroke-linecap="round" fill="none" ed:parentid="148" d="M-13.5,19.5C1.7,19.5,-4.8,-19.5,13.5,-19.5" ed:tosuperid="264" stroke-linejoin="round" id="265"/><path transform="matrix(1,0,0,1,857,1853)" stroke="#696969" stroke-linecap="round" fill="none" ed:parentid="148" d="M-13.5,6.5C-1.2,6.5,1.8,-6.5,13.5,-6.5" ed:tosuperid="266" stroke-linejoin="round" id="267"/><path transform="matrix(1,0,0,1,857,1866)" stroke="#696969" stroke-linecap="round" fill="none" ed:parentid="148" d="M-13.5,-6.5C-1.2,-6.5,1.8,6.5,13.5,6.5" ed:tosuperid="268" stroke-linejoin="round" id="269"/><path transform="matrix(1,0,0,1,857,1879)" stroke="#696969" stroke-linecap="round" fill="none" ed:parentid="148" d="M-13.5,-19.5C1.7,-19.5,-4.8,19.5,13.5,19.5" ed:tosuperid="270" stroke-linejoin="round" id="271"/><path transform="matrix(1,0,0,1,857,1892)" stroke="#696969" stroke-linecap="round" fill="none" ed:parentid="148" d="M-13.5,-32.5C3.9,-32.5,-9.9,32.5,13.5,32.5" ed:tosuperid="272" stroke-linejoin="round" id="273"/><path transform="matrix(1,0,0,1,857,1905)" stroke="#696969" stroke-linecap="round" fill="none" ed:parentid="148" d="M-13.5,-45.5C5.2,-45.5,-12.9,45.5,13.5,45.5" ed:tosuperid="274" stroke-linejoin="round" id="275"/><path transform="matrix(1,0,0,1,857,2003)" stroke="#696969" stroke-linecap="round" fill="none" ed:parentid="150" d="M-13.5,26.5C2.9,26.5,-7.8,-26.5,13.5,-26.5" ed:tosuperid="276" stroke-linejoin="round" id="277"/><path transform="matrix(1,0,0,1,857,2016)" stroke="#696969" stroke-linecap="round" fill="none" ed:parentid="150" d="M-13.5,13.5C0.4,13.5,-1.8,-13.5,13.5,-13.5" ed:tosuperid="278" stroke-linejoin="round" id="279"/><path transform="matrix(1,0,0,1,857,2036)" stroke="#696969" stroke-linecap="round" fill="none" ed:parentid="150" d="M-13.5,-6.5C-1.2,-6.5,1.8,6.5,13.5,6.5" ed:tosuperid="280" stroke-linejoin="round" id="281"/><path transform="matrix(1,0,0,1,857,2056)" stroke="#696969" stroke-linecap="round" fill="none" ed:parentid="150" d="M-13.5,-26.5C2.9,-26.5,-7.8,26.5,13.5,26.5" ed:tosuperid="282" stroke-linejoin="round" id="283"/><path transform="matrix(1,0,0,1,983,2109)" stroke="#696969" stroke-linecap="round" fill="none" ed:parentid="154" d="M-13.5,0C-2.7,0,5.4,0,13.5,0" ed:tosuperid="284" stroke-linejoin="round" id="285"/><g transform="matrix(1,0,0,1,23,1038)" ed:layout="rightmap" ed:topictype="mainidea" id="101" ed:height="54" ed:width="420"><path fill="#435fbc" stroke="#435fbc" d="M4,0L416,0C418.7,0,420,1.3,420,4L420,50C420,52.7,418.7,54,416,54L4,54C1.3,54,0,52.7,0,50L0,4C0,1.3,1.3,0,4,0z" stroke-linejoin="round" stroke-width="3"/><text class="st1"><tspan style="white-space:pre" y="34.9" x="21">《Python数据科学 - 技术详解与商业实践》</tspan></text></g><g transform="matrix(1,0,0,1,506,370)" ed:parentid="101" id="102" ed:height="33" ed:width="220"><path fill="#ebecf3" stroke="#ebecf3" d="M4,0L216,0C218.7,0,220,1.3,220,4L220,29C220,31.7,218.7,33,216,33L4,33C1.3,33,0,31.7,0,29L0,4C0,1.3,1.3,0,4,0z" stroke-linejoin="round"/><text class="st2"><tspan style="white-space:pre" y="22.9" x="18">第1章 数据科学家的武器库</tspan></text></g><g transform="matrix(1,0,0,1,753,141)" ed:parentid="102" id="104" ed:height="19.5" ed:width="150"><path stroke="#696969" fill="none" d="M0,19.5L150,19.5" stroke-linejoin="round"/><text class="st3"><tspan style="white-space:pre" y="14.6" x="8">1.1.数据科学的基本概念</tspan></text></g><g transform="matrix(1,0,0,1,753,300)" ed:parentid="102" id="106" ed:height="19.5" ed:width="114"><path stroke="#696969" fill="none" d="M0,19.5L114,19.5" stroke-linejoin="round"/><text class="st3"><tspan style="white-space:pre" y="14.6" x="8">1.2.数据统计技术</tspan></text></g><g transform="matrix(1,0,0,1,753,419)" ed:parentid="102" id="108" ed:height="19.5" ed:width="162"><path stroke="#696969" fill="none" d="M0,19.5L162,19.5" stroke-linejoin="round"/><text class="st3"><tspan style="white-space:pre" y="14.6" x="8">1.3.数据挖掘的技术与方法</tspan></text></g><g transform="matrix(1,0,0,1,753,538)" ed:parentid="102" id="110" ed:height="19.5" ed:width="174"><path stroke="#696969" fill="none" d="M0,19.5L174,19.5" stroke-linejoin="round"/><text class="st3"><tspan style="white-space:pre" y="14.6" x="8">1.4.描述性数据挖掘算法示例</tspan></text></g><g transform="matrix(1,0,0,1,753,655)" ed:parentid="102" id="112" ed:height="19.5" ed:width="174"><path stroke="#696969" fill="none" d="M0,19.5L174,19.5" stroke-linejoin="round"/><text class="st3"><tspan style="white-space:pre" y="14.6" x="8">1.5.预测性数据挖掘算法示例</tspan></text></g><g transform="matrix(1,0,0,1,506,892)" ed:parentid="101" id="116" ed:height="33" ed:width="163"><path fill="#ebecf3" stroke="#ebecf3" d="M4,0L159,0C161.7,0,163,1.3,163,4L163,29C163,31.7,161.7,33,159,33L4,33C1.3,33,0,31.7,0,29L0,4C0,1.3,1.3,0,4,0z" stroke-linejoin="round"/><text class="st2"><tspan style="white-space:pre" y="22.9" x="18">第2章 Python概述</tspan></text></g><g transform="matrix(1,0,0,1,506,1175)" ed:parentid="101" id="118" ed:height="33" ed:width="268"><path fill="#ebecf3" stroke="#ebecf3" d="M4,0L264,0C266.7,0,268,1.3,268,4L268,29C268,31.7,266.7,33,264,33L4,33C1.3,33,0,31.7,0,29L0,4C0,1.3,1.3,0,4,0z" stroke-linejoin="round"/><text class="st2"><tspan style="white-space:pre" y="22.9" x="18">第3章 数据科学的Python编程基础</tspan></text></g><g transform="matrix(1,0,0,1,696,812)" ed:parentid="116" id="120" ed:height="19.5" ed:width="102"><path stroke="#696969" fill="none" d="M0,19.5L102,19.5" stroke-linejoin="round"/><text class="st3"><tspan style="white-space:pre" y="14.6" x="8">2.1.Python概述</tspan></text></g><g transform="matrix(1,0,0,1,696,938)" ed:parentid="116" id="122" ed:height="19.5" ed:width="204"><path stroke="#696969" fill="none" d="M0,19.5L204,19.5" stroke-linejoin="round"/><text class="st3"><tspan style="white-space:pre" y="14.6" x="8">2.2.Anaconda Python的安装、使用</tspan></text></g><g transform="matrix(1,0,0,1,801,1077)" ed:parentid="118" id="124" ed:height="19.5" ed:width="162"><path stroke="#696969" fill="none" d="M0,19.5L162,19.5" stroke-linejoin="round"/><text class="st3"><tspan style="white-space:pre" y="14.6" x="8">3.1.Python的基本数据类型</tspan></text></g><g transform="matrix(1,0,0,1,801,1116)" ed:parentid="118" id="126" ed:height="19.5" ed:width="162"><path stroke="#696969" fill="none" d="M0,19.5L162,19.5" stroke-linejoin="round"/><text class="st3"><tspan style="white-space:pre" y="14.6" x="8">3.2.Python的基本数据结构</tspan></text></g><g transform="matrix(1,0,0,1,801,1168)" ed:parentid="118" id="128" ed:height="19.5" ed:width="138"><path stroke="#696969" fill="none" d="M0,19.5L138,19.5" stroke-linejoin="round"/><text class="st3"><tspan style="white-space:pre" y="14.6" x="8">3.3.Python的程序控制</tspan></text></g><g transform="matrix(1,0,0,1,801,1240)" ed:parentid="118" id="130" ed:height="19.5" ed:width="150"><path stroke="#696969" fill="none" d="M0,19.5L150,19.5" stroke-linejoin="round"/><text class="st3"><tspan style="white-space:pre" y="14.6" x="8">3.4.Python的函数与模块</tspan></text></g><g transform="matrix(1,0,0,1,801,1293)" ed:parentid="118" id="132" ed:height="19.5" ed:width="162"><path stroke="#696969" fill="none" d="M0,19.5L162,19.5" stroke-linejoin="round"/><text class="st3"><tspan style="white-space:pre" y="14.6" x="8">3.5.Pandas读取结构化数据</tspan></text></g><g transform="matrix(1,0,0,1,506,1518)" ed:parentid="101" id="134" ed:height="33" ed:width="235"><path fill="#ebecf3" stroke="#ebecf3" d="M4,0L231,0C233.7,0,235,1.3,235,4L235,29C235,31.7,233.7,33,231,33L4,33C1.3,33,0,31.7,0,29L0,4C0,1.3,1.3,0,4,0z" stroke-linejoin="round"/><text class="st2"><tspan style="white-space:pre" y="22.9" x="18">第4章 描述性统计分析与绘图</tspan></text></g><g transform="matrix(1,0,0,1,768,1438)" ed:parentid="134" id="136" ed:height="19.5" ed:width="174"><path stroke="#696969" fill="none" d="M0,19.5L174,19.5" stroke-linejoin="round"/><text class="st3"><tspan style="white-space:pre" y="14.6" x="8">4.1.描述性统计进行数据探索</tspan></text></g><g transform="matrix(1,0,0,1,768,1569)" ed:parentid="134" id="138" ed:height="19.5" ed:width="150"><path stroke="#696969" fill="none" d="M0,19.5L150,19.5" stroke-linejoin="round"/><text class="st3"><tspan style="white-space:pre" y="14.6" x="8">4.2.制作报表和统计制图</tspan></text></g><g transform="matrix(1,0,0,1,768,1656)" ed:parentid="134" id="140" ed:height="19.5" ed:width="102"><path stroke="#696969" fill="none" d="M0,19.5L102,19.5" stroke-linejoin="round"/><text class="st3"><tspan style="white-space:pre" y="14.6" x="8">4.3.制图的步骤</tspan></text></g><g transform="matrix(1,0,0,1,506,1912)" ed:parentid="101" id="146" ed:height="33" ed:width="220"><path fill="#ebecf3" stroke="#ebecf3" d="M4,0L216,0C218.7,0,220,1.3,220,4L220,29C220,31.7,218.7,33,216,33L4,33C1.3,33,0,31.7,0,29L0,4C0,1.3,1.3,0,4,0z" stroke-linejoin="round"/><text class="st2"><tspan style="white-space:pre" y="22.9" x="18">第5章 数据整合和数据清洗</tspan></text></g><g transform="matrix(1,0,0,1,753,1840)" ed:parentid="146" id="148" ed:height="19.5" ed:width="90"><path stroke="#696969" fill="none" d="M0,19.5L90,19.5" stroke-linejoin="round"/><text class="st3"><tspan style="white-space:pre" y="14.6" x="8">5.1.数据整合</tspan></text></g><g transform="matrix(1,0,0,1,753,2010)" ed:parentid="146" id="150" ed:height="19.5" ed:width="90"><path stroke="#696969" fill="none" d="M0,19.5L90,19.5" stroke-linejoin="round"/><text class="st3"><tspan style="white-space:pre" y="14.6" x="8">5.2.数据清洗</tspan></text></g><g transform="matrix(1,0,0,1,753,2089)" ed:parentid="146" id="154" ed:height="19.5" ed:width="216"><path stroke="#696969" fill="none" d="M0,19.5L216,19.5" stroke-linejoin="round"/><text class="st3"><tspan style="white-space:pre" y="14.6" x="8">5.3.RFM方法在客户行为分析上的应用</tspan></text></g><g transform="matrix(1,0,0,1,930,21)" ed:parentid="104" id="156" ed:height="19.5" ed:width="366"><path stroke="#696969" fill="none" d="M0,19.5L366,19.5" stroke-linejoin="round"/><text class="st3"><tspan style="white-space:pre" y="14.6" x="8">数据科学目前使用最广泛的就是描述性数据分析和预测性数据分析</tspan></text></g><g transform="matrix(1,0,0,1,930,47)" ed:parentid="104" id="158" ed:height="33.5" ed:width="514"><path stroke="#696969" fill="none" d="M0,33.5L514,33.5" stroke-linejoin="round"/><text class="st3"><tspan style="white-space:pre" y="14.6" x="8">数据科学的整体目标就是在已有的数据集的基础上，通过特定的算法提取信息，并将其转化为</tspan><tspan style="white-space:pre" y="28.6" x="8">可理解的知识，方便进一步探索使用</tspan></text></g><g transform="matrix(1,0,0,1,930,87)" ed:parentid="104" id="160" ed:height="47.5" ed:width="514"><path stroke="#696969" fill="none" d="M0,47.5L514,47.5" stroke-linejoin="round"/><text class="st3"><tspan style="white-space:pre" y="14.6" x="8">数据学是研究数据本身，研究数据的各种类型、状态、属性及变化形式和变化规律；数据科学</tspan><tspan style="white-space:pre" y="28.6" x="8">是为自然科学和社会科学研究一种新的方法，称为科学研究的数据方法，其目的在于揭示自然</tspan><tspan style="white-space:pre" y="42.5" x="8">界与人类的行为现象和规律</tspan></text></g><g transform="matrix(1,0,0,1,930,141)" ed:parentid="104" id="162" ed:height="33.5" ed:width="514"><path stroke="#696969" fill="none" d="M0,33.5L514,33.5" stroke-linejoin="round"/><text class="st3"><tspan style="white-space:pre" y="14.6" x="8">数据科学的工作范式：数据 -（维度分析）- 信息 -（建模分析）- 知识 -（业务目标）-决</tspan><tspan style="white-space:pre" y="28.6" x="8">策和行动</tspan></text></g><g transform="matrix(1,0,0,1,930,181)" ed:parentid="104" id="164" ed:height="33.5" ed:width="514"><path stroke="#696969" fill="none" d="M0,33.5L514,33.5" stroke-linejoin="round"/><text class="st3"><tspan style="white-space:pre" y="14.6" x="8">基础客户标签是可以从原始数据直接获取的，比如性别、年龄段、职业。可以供决策使用的知</tspan><tspan style="white-space:pre" y="28.6" x="8">识，也等价于信息和数据。统计标签是通过原始数据汇总得到的，等价于信息。</tspan></text></g><g transform="matrix(1,0,0,1,930,221)" ed:parentid="104" id="166" ed:height="19.5" ed:width="462"><path stroke="#696969" fill="none" d="M0,19.5L462,19.5" stroke-linejoin="round"/><text class="st3"><tspan style="white-space:pre" y="14.6" x="8">RFM模型：R最后一次消费时间，F一段时间内消费的频次，M一段时期内消费的总金额</tspan></text></g><g transform="matrix(1,0,0,1,930,247)" ed:parentid="104" id="168" ed:height="33.5" ed:width="514"><path stroke="#696969" fill="none" d="M0,33.5L514,33.5" stroke-linejoin="round"/><text class="st3"><tspan style="white-space:pre" y="14.6" x="8">与数据科学相关的知识涉及多个学科与领域，包括统计学、数据挖掘、模式识别、人工智能</tspan><tspan style="white-space:pre" y="28.6" x="8">（机器学习）、数据库等</tspan></text></g><g transform="matrix(1,0,0,1,894,287)" ed:parentid="106" id="172" ed:height="19.5" ed:width="210"><path stroke="#696969" fill="none" d="M0,19.5L210,19.5" stroke-linejoin="round"/><text class="st3"><tspan style="white-space:pre" y="14.6" x="8">数理统计分为频率和贝叶斯两大学派</tspan></text></g><g transform="matrix(1,0,0,1,894,313)" ed:parentid="106" id="176" ed:height="19.5" ed:width="492"><path stroke="#696969" fill="none" d="M0,19.5L492,19.5" stroke-linejoin="round"/><text class="st3"><tspan style="white-space:pre" y="14.6" x="8">目前针对统计推断，广泛存在两个误解：统计推断无用论；学习统计推断的产出/投入比低</tspan></text></g><g transform="matrix(1,0,0,1,942,339)" ed:parentid="108" id="178" ed:height="33.5" ed:width="514"><path stroke="#696969" fill="none" d="M0,33.5L514,33.5" stroke-linejoin="round"/><text class="st3"><tspan style="white-space:pre" y="14.6" x="8">数据挖掘的方法分为描述性与预测性两种。描述类模型用于直观的反应历史状况，预测性模型</tspan><tspan style="white-space:pre" y="28.6" x="8">从历史数据中找出规律，并用于预测未来</tspan></text></g><g transform="matrix(1,0,0,1,942,379)" ed:parentid="108" id="180" ed:height="33.5" ed:width="514"><path stroke="#696969" fill="none" d="M0,33.5L514,33.5" stroke-linejoin="round"/><text class="st3"><tspan style="white-space:pre" y="14.6" x="8">描述性数据挖掘也被称为模式识别，建模数据一般都具有多个属性和变量，属性用于描述各个</tspan><tspan style="white-space:pre" y="28.6" x="8">观测的特征。</tspan></text></g><g transform="matrix(1,0,0,1,942,419)" ed:parentid="108" id="182" ed:height="19.5" ed:width="318"><path stroke="#696969" fill="none" d="M0,19.5L318,19.5" stroke-linejoin="round"/><text class="st3"><tspan style="white-space:pre" y="14.6" x="8">预测性数据分析的数据有明确的预测变量与相应的因变量</tspan></text></g><g transform="matrix(1,0,0,1,942,445)" ed:parentid="108" id="184" ed:height="33.5" ed:width="514"><path stroke="#696969" fill="none" d="M0,33.5L514,33.5" stroke-linejoin="round"/><text class="st3"><tspan style="white-space:pre" y="14.6" x="8">描述性数据挖掘用于描述现有的规律，常见的算法：聚类分析、关联规则分析、因子&amp;主成分</tspan><tspan style="white-space:pre" y="28.6" x="8">分析</tspan></text></g><g transform="matrix(1,0,0,1,942,485)" ed:parentid="108" id="186" ed:height="33.5" ed:width="514"><path stroke="#696969" fill="none" d="M0,33.5L514,33.5" stroke-linejoin="round"/><text class="st3"><tspan style="white-space:pre" y="14.6" x="8">预测性数据挖掘用于预测未来发生了什么，使用的模型和算法：线性回归、逻辑回归、神经元</tspan><tspan style="white-space:pre" y="28.6" x="8">网络、决策树、支持向量机</tspan></text></g><g transform="matrix(1,0,0,1,954,525)" ed:parentid="110" id="188" ed:height="19.5" ed:width="288"><path stroke="#696969" fill="none" d="M0,19.5L288,19.5" stroke-linejoin="round"/><text class="st3"><tspan style="white-space:pre" y="14.6" x="8">1.聚类分析 - 客户细分：信用卡客户分群营销策略</tspan></text></g><g transform="matrix(1,0,0,1,954,551)" ed:parentid="110" id="190" ed:height="19.5" ed:width="270"><path stroke="#696969" fill="none" d="M0,19.5L270,19.5" stroke-linejoin="round"/><text class="st3"><tspan style="white-space:pre" y="14.6" x="8">2.关联规则分析：金融产品交叉销售或捆绑销售</tspan></text></g><g transform="matrix(1,0,0,1,954,577)" ed:parentid="112" id="192" ed:height="19.5" ed:width="222"><path stroke="#696969" fill="none" d="M0,19.5L222,19.5" stroke-linejoin="round"/><text class="st3"><tspan style="white-space:pre" y="14.6" x="8">1.决策树：候选相亲数据进行分类预测</tspan></text></g><g transform="matrix(1,0,0,1,954,603)" ed:parentid="112" id="194" ed:height="19.5" ed:width="228"><path stroke="#696969" fill="none" d="M0,19.5L228,19.5" stroke-linejoin="round"/><text class="st3"><tspan style="white-space:pre" y="14.6" x="8">2.KNN算法：预测某个男性的相亲成功率</tspan></text></g><g transform="matrix(1,0,0,1,954,629)" ed:parentid="112" id="196" ed:height="19.5" ed:width="270"><path stroke="#696969" fill="none" d="M0,19.5L270,19.5" stroke-linejoin="round"/><text class="st3"><tspan style="white-space:pre" y="14.6" x="8">3.Logistic回归：创建一种新人打分的评分机制</tspan></text></g><g transform="matrix(1,0,0,1,954,655)" ed:parentid="112" id="198" ed:height="19.5" ed:width="198"><path stroke="#696969" fill="none" d="M0,19.5L198,19.5" stroke-linejoin="round"/><text class="st3"><tspan style="white-space:pre" y="14.6" x="8">4.神经网络：得到精确的预测结果</tspan></text></g><g transform="matrix(1,0,0,1,954,681)" ed:parentid="112" id="200" ed:height="19.5" ed:width="306"><path stroke="#696969" fill="none" d="M0,19.5L306,19.5" stroke-linejoin="round"/><text class="st3"><tspan style="white-space:pre" y="14.6" x="8">5.支持向量机：划分开低维度下相亲成功与不成功的点</tspan></text></g><g transform="matrix(1,0,0,1,954,707)" ed:parentid="112" id="202" ed:height="19.5" ed:width="378"><path stroke="#696969" fill="none" d="M0,19.5L378,19.5" stroke-linejoin="round"/><text class="st3"><tspan style="white-space:pre" y="14.6" x="8">6.集成学习：通过七大姑八大姨集体讨论定出的人选往往是不会错的</tspan></text></g><g transform="matrix(1,0,0,1,954,733)" ed:parentid="112" id="204" ed:height="19.5" ed:width="282"><path stroke="#696969" fill="none" d="M0,19.5L282,19.5" stroke-linejoin="round"/><text class="st3"><tspan style="white-space:pre" y="14.6" x="8">7.预测类模型讲解：排序类分类器、决策类分类器</tspan></text></g><g transform="matrix(1,0,0,1,825,786)" ed:parentid="120" id="206" ed:height="19.5" ed:width="258"><path stroke="#696969" fill="none" d="M0,19.5L258,19.5" stroke-linejoin="round"/><text class="st3"><tspan style="white-space:pre" y="14.6" x="8">Python是面向对象、直译式的计算机编程语言</tspan></text></g><g transform="matrix(1,0,0,1,825,812)" ed:parentid="120" id="208" ed:height="19.5" ed:width="348"><path stroke="#696969" fill="none" d="M0,19.5L348,19.5" stroke-linejoin="round"/><text class="st3"><tspan style="white-space:pre" y="14.6" x="8">Python的主要应用分为网站开发、科学计算、图形用户界面GUI</tspan></text></g><g transform="matrix(1,0,0,1,825,838)" ed:parentid="120" id="210" ed:height="19.5" ed:width="462"><path stroke="#696969" fill="none" d="M0,19.5L462,19.5" stroke-linejoin="round"/><text class="st3"><tspan style="white-space:pre" y="14.6" x="8">在数据计算方面，Python的Scipy、Numpy、Pandas、Scikit-learn等框架也非常成熟</tspan></text></g><g transform="matrix(1,0,0,1,927,864)" ed:parentid="122" id="212" ed:height="33.5" ed:width="514"><path stroke="#696969" fill="none" d="M0,33.5L514,33.5" stroke-linejoin="round"/><text class="st3"><tspan style="white-space:pre" y="14.6" x="8">Anaconda Python是一款适合数据分析者的集成开发环境，包含了常用科学计算、数据分析、</tspan><tspan style="white-space:pre" y="28.6" x="8">自然语言处理、绘图等包，所有的模块几乎都是最新的，容量适中</tspan></text></g><g transform="matrix(1,0,0,1,927,904)" ed:parentid="122" id="214" ed:height="33.5" ed:width="514"><path stroke="#696969" fill="none" d="M0,33.5L514,33.5" stroke-linejoin="round"/><text class="st3"><tspan style="white-space:pre" y="14.6" x="8">Anaconda集成了Python、IPython、Spyder和众多的框架与环境，且支持Python2和Python3，</tspan><tspan style="white-space:pre" y="28.6" x="8">包括免费版、协作版、企业版等</tspan></text></g><g transform="matrix(1,0,0,1,927,944)" ed:parentid="122" id="216" ed:height="33.5" ed:width="514"><path stroke="#696969" fill="none" d="M0,33.5L514,33.5" stroke-linejoin="round"/><text class="st3"><tspan style="white-space:pre" y="14.6" x="8">Jupyter Notebook是一款Anaconda默认提供的一款交互式的开发环境，该环境既可以集成</tspan><tspan style="white-space:pre" y="28.6" x="8">Python，同时也可以集成R</tspan></text></g><g transform="matrix(1,0,0,1,927,984)" ed:parentid="122" id="218" ed:height="47.5" ed:width="514"><path stroke="#696969" fill="none" d="M0,47.5L514,47.5" stroke-linejoin="round"/><text class="st3"><tspan style="white-space:pre" y="14.6" x="8">Spyder是Anaconda提供的一款类似于MATLAB、Rstudio界面的Python开发环境，其提供了语法</tspan><tspan style="white-space:pre" y="28.6" x="8">着色、语法检查、运行调试、自动补全功能，集成脚本编辑器、控制台、对象查看器等模块，</tspan><tspan style="white-space:pre" y="42.5" x="8">非常适合进行有关数据分析项目的开发工作</tspan></text></g><g transform="matrix(1,0,0,1,990,1064)" ed:parentid="124" id="220" ed:height="19.5" ed:width="342"><path stroke="#696969" fill="none" d="M0,19.5L342,19.5" stroke-linejoin="round"/><text class="st3"><tspan style="white-space:pre" y="14.6" x="8">str字符串、float浮点数、int整数、bool布尔、complex复数</tspan></text></g><g transform="matrix(1,0,0,1,990,1090)" ed:parentid="124" id="222" ed:height="19.5" ed:width="360"><path stroke="#696969" fill="none" d="M0,19.5L360,19.5" stroke-linejoin="round"/><text class="st3"><tspan style="white-space:pre" y="14.6" x="8">还有一些特殊的数据类型，例如无穷值、nan（非数值）、None等</tspan></text></g><g transform="matrix(1,0,0,1,990,1116)" ed:parentid="126" id="224" ed:height="19.5" ed:width="246"><path stroke="#696969" fill="none" d="M0,19.5L246,19.5" stroke-linejoin="round"/><text class="st3"><tspan style="white-space:pre" y="14.6" x="8">列表list、元组tuple、集合set、字典dict</tspan></text></g><g transform="matrix(1,0,0,1,966,1142)" ed:parentid="128" id="226" ed:height="19.5" ed:width="222"><path stroke="#696969" fill="none" d="M0,19.5L222,19.5" stroke-linejoin="round"/><text class="st3"><tspan style="white-space:pre" y="14.6" x="8">三种：顺承结构、分支结构、循环结构</tspan></text></g><g transform="matrix(1,0,0,1,966,1168)" ed:parentid="128" id="228" ed:height="19.5" ed:width="318"><path stroke="#696969" fill="none" d="M0,19.5L318,19.5" stroke-linejoin="round"/><text class="st3"><tspan style="white-space:pre" y="14.6" x="8">pass语句一般是为了保持程序的完整性而座位占位符使用</tspan></text></g><g transform="matrix(1,0,0,1,966,1194)" ed:parentid="128" id="230" ed:height="19.5" ed:width="408"><path stroke="#696969" fill="none" d="M0,19.5L408,19.5" stroke-linejoin="round"/><text class="st3"><tspan style="white-space:pre" y="14.6" x="8">列表、元祖、集合、字典都是可迭代对象，遍历简洁写法：i for i in 10</tspan></text></g><g transform="matrix(1,0,0,1,978,1220)" ed:parentid="130" id="232" ed:height="19.5" ed:width="330"><path stroke="#696969" fill="none" d="M0,19.5L330,19.5" stroke-linejoin="round"/><text class="st3"><tspan style="white-space:pre" y="14.6" x="8">设定了匿名函数lambda，简化了自定义函数定义的书写形式</tspan></text></g><g transform="matrix(1,0,0,1,978,1246)" ed:parentid="130" id="234" ed:height="33.5" ed:width="514"><path stroke="#696969" fill="none" d="M0,33.5L514,33.5" stroke-linejoin="round"/><text class="st3"><tspan style="white-space:pre" y="14.6" x="8">Numpy提供了强大的多维数组、向量、稠密矩阵、稀疏矩阵等对象，支持线性代数、傅立叶变</tspan><tspan style="white-space:pre" y="28.6" x="8">换等科学计算、提供了C/C++及Fortron代码的整合工具</tspan></text></g><g transform="matrix(1,0,0,1,990,1286)" ed:parentid="132" id="236" ed:height="33.5" ed:width="514"><path stroke="#696969" fill="none" d="M0,33.5L514,33.5" stroke-linejoin="round"/><text class="st3"><tspan style="white-space:pre" y="14.6" x="8">Pandas是一个基于Numpy开发的更高级的结构化数据分析工具，提供了Series、DataFrame、</tspan><tspan style="white-space:pre" y="28.6" x="8">Panel等数据结构，可以方便的对序列、截面数据（二维表）、面板数据进行处理。</tspan></text></g><g transform="matrix(1,0,0,1,969,1353)" ed:parentid="136" id="238" ed:height="19.5" ed:width="354"><path stroke="#696969" fill="none" d="M0,19.5L354,19.5" stroke-linejoin="round"/><text class="st3"><tspan style="white-space:pre" y="14.6" x="8">数据描述强调方法，即如何从现有的数据中获取得到主要的信息</tspan></text></g><g transform="matrix(1,0,0,1,969,1379)" ed:parentid="136" id="240" ed:height="19.5" ed:width="414"><path stroke="#696969" fill="none" d="M0,19.5L414,19.5" stroke-linejoin="round"/><text class="st3"><tspan style="white-space:pre" y="14.6" x="8">数据探索强调过程，即通过数据描述的方法，对研究的客体有更深入的认识</tspan></text></g><g transform="matrix(1,0,0,1,969,1405)" ed:parentid="136" id="242" ed:height="19.5" ed:width="282"><path stroke="#696969" fill="none" d="M0,19.5L282,19.5" stroke-linejoin="round"/><text class="st3"><tspan style="white-space:pre" y="14.6" x="8">变量的度量类型：名义变量，等级变量，连续变量</tspan></text></g><g transform="matrix(1,0,0,1,969,1431)" ed:parentid="136" id="244" ed:height="19.5" ed:width="294"><path stroke="#696969" fill="none" d="M0,19.5L294,19.5" stroke-linejoin="round"/><text class="st3"><tspan style="white-space:pre" y="14.6" x="8">变量的分布类型是对时机变量分布的一个概括和抽象</tspan></text></g><g transform="matrix(1,0,0,1,969,1457)" ed:parentid="136" id="246" ed:height="33.5" ed:width="514"><path stroke="#696969" fill="none" d="M0,33.5L514,33.5" stroke-linejoin="round"/><text class="st3"><tspan style="white-space:pre" y="14.6" x="8">描述连续变量的统计量主要有四类统计量，分别用于描述数据的集中趋势、离中趋势、偏态程</tspan><tspan style="white-space:pre" y="28.6" x="8">度与尖峰程度</tspan></text></g><g transform="matrix(1,0,0,1,969,1497)" ed:parentid="136" id="248" ed:height="19.5" ed:width="330"><path stroke="#696969" fill="none" d="M0,19.5L330,19.5" stroke-linejoin="round"/><text class="st3"><tspan style="white-space:pre" y="14.6" x="8">描述数据离散程度的常见指标有极差、方差和平均绝对偏差</tspan></text></g><g transform="matrix(1,0,0,1,969,1523)" ed:parentid="136" id="250" ed:height="19.5" ed:width="324"><path stroke="#696969" fill="none" d="M0,19.5L324,19.5" stroke-linejoin="round"/><text class="st3"><tspan style="white-space:pre" y="14.6" x="8">偏度即数据分布的偏斜程度 ，峰度即数据分析的高矮程度</tspan></text></g><g transform="matrix(1,0,0,1,945,1549)" ed:parentid="138" id="252" ed:height="19.5" ed:width="474"><path stroke="#696969" fill="none" d="M0,19.5L474,19.5" stroke-linejoin="round"/><text class="st3"><tspan style="white-space:pre" y="14.6" x="8">报表会展现数据的主要信息，其中分为维度（分类变量）指标和度量（连续变量）指标</tspan></text></g><g transform="matrix(1,0,0,1,945,1575)" ed:parentid="138" id="254" ed:height="33.5" ed:width="514"><path stroke="#696969" fill="none" d="M0,33.5L514,33.5" stroke-linejoin="round"/><text class="st3"><tspan style="white-space:pre" y="14.6" x="8">盒须图也称为箱线图，能够提供某变量分布以及异常值的信息，其通过分位数来概括某变量的</tspan><tspan style="white-space:pre" y="28.6" x="8">分布信息从而比较不同变量的分布</tspan></text></g><g transform="matrix(1,0,0,1,897,1615)" ed:parentid="140" id="256" ed:height="61.5" ed:width="514"><path stroke="#696969" fill="none" d="M0,61.5L514,61.5" stroke-linejoin="round"/><text class="st3"><tspan style="white-space:pre" y="14.6" x="8">制图分为以下四步：1、整理原始数据：对初始数据进行预处理和清洗，以达到制图的要求；</tspan><tspan style="white-space:pre" y="28.6" x="8">2、明确表达的信息：根据初始可用数据，明确分析所要表达的信息；3、确定表达的类型：明</tspan><tspan style="white-space:pre" y="42.5" x="8">确所要表达信息中对目标比较的类型；4、选择图表类型：选择合适的图表类型，进行绘制并</tspan><tspan style="white-space:pre" y="56.5" x="8">进行展示。</tspan></text></g><g transform="matrix(1,0,0,1,897,1683)" ed:parentid="140" id="258" ed:height="33.5" ed:width="514"><path stroke="#696969" fill="none" d="M0,33.5L514,33.5" stroke-linejoin="round"/><text class="st3"><tspan style="white-space:pre" y="14.6" x="8">统计图分为描述性统计图和检验性统计图，前者是对某些变量分布、趋势的描述，多出现在工</tspan><tspan style="white-space:pre" y="28.6" x="8">作报告和统计报告中，后者是对特定统计检验和统计量的形象展示，仅出现在特定统计报告中</tspan></text></g><g transform="matrix(1,0,0,1,870,1749)" ed:parentid="148" id="260" ed:height="19.5" ed:width="258"><path stroke="#696969" fill="none" d="M0,19.5L258,19.5" stroke-linejoin="round"/><text class="st3"><tspan style="white-space:pre" y="14.6" x="8">行列操作：选择单列、选择多列、创建删除列</tspan></text></g><g transform="matrix(1,0,0,1,870,1775)" ed:parentid="148" id="262" ed:height="19.5" ed:width="228"><path stroke="#696969" fill="none" d="M0,19.5L228,19.5" stroke-linejoin="round"/><text class="st3"><tspan style="white-space:pre" y="14.6" x="8">条件查询：单条件、多条件、使用query</tspan></text></g><g transform="matrix(1,0,0,1,870,1801)" ed:parentid="148" id="264" ed:height="19.5" ed:width="384"><path stroke="#696969" fill="none" d="M0,19.5L384,19.5" stroke-linejoin="round"/><text class="st3"><tspan style="white-space:pre" y="14.6" x="8">横向连接：内连接（merge）、外连接、行索引连接（concat、join）</tspan></text></g><g transform="matrix(1,0,0,1,870,1827)" ed:parentid="148" id="266" ed:height="19.5" ed:width="246"><path stroke="#696969" fill="none" d="M0,19.5L246,19.5" stroke-linejoin="round"/><text class="st3"><tspan style="white-space:pre" y="14.6" x="8">纵向合并：concat用于完成横向和纵向合并</tspan></text></g><g transform="matrix(1,0,0,1,870,1853)" ed:parentid="148" id="268" ed:height="19.5" ed:width="258"><path stroke="#696969" fill="none" d="M0,19.5L258,19.5" stroke-linejoin="round"/><text class="st3"><tspan style="white-space:pre" y="14.6" x="8">排序：sort_values、sort_index、sortlevel</tspan></text></g><g transform="matrix(1,0,0,1,870,1879)" ed:parentid="148" id="270" ed:height="19.5" ed:width="372"><path stroke="#696969" fill="none" d="M0,19.5L372,19.5" stroke-linejoin="round"/><text class="st3"><tspan style="white-space:pre" y="14.6" x="8">分组汇总：group by 分组变量、汇总变量、汇总统计量、多重索引</tspan></text></g><g transform="matrix(1,0,0,1,870,1905)" ed:parentid="148" id="272" ed:height="19.5" ed:width="348"><path stroke="#696969" fill="none" d="M0,19.5L348,19.5" stroke-linejoin="round"/><text class="st3"><tspan style="white-space:pre" y="14.6" x="8">拆分、堆叠列：pivot_table用于拆分列，melt用于完成堆叠列</tspan></text></g><g transform="matrix(1,0,0,1,870,1931)" ed:parentid="148" id="274" ed:height="19.5" ed:width="198"><path stroke="#696969" fill="none" d="M0,19.5L198,19.5" stroke-linejoin="round"/><text class="st3"><tspan style="white-space:pre" y="14.6" x="8">赋值与条件赋值：replace、apply</tspan></text></g><g transform="matrix(1,0,0,1,870,1957)" ed:parentid="150" id="276" ed:height="19.5" ed:width="252"><path stroke="#696969" fill="none" d="M0,19.5L252,19.5" stroke-linejoin="round"/><text class="st3"><tspan style="white-space:pre" y="14.6" x="8">重复值处理：duplicated和drop_duplicates</tspan></text></g><g transform="matrix(1,0,0,1,870,1983)" ed:parentid="150" id="278" ed:height="19.5" ed:width="258"><path stroke="#696969" fill="none" d="M0,19.5L258,19.5" stroke-linejoin="round"/><text class="st3"><tspan style="white-space:pre" y="14.6" x="8">缺失值处理：fillna方法用于替换缺失值数据</tspan></text></g><g transform="matrix(1,0,0,1,870,2009)" ed:parentid="150" id="280" ed:height="33.5" ed:width="514"><path stroke="#696969" fill="none" d="M0,33.5L514,33.5" stroke-linejoin="round"/><text class="st3"><tspan style="white-space:pre" y="14.6" x="8">噪声值处理：与其他数值相比差异较大的值，又称异常值、离群值。处理的方法，对于单变量</tspan><tspan style="white-space:pre" y="28.6" x="8">常见的方法有盖帽法、分箱法；多变量的处理方法为聚类法</tspan></text></g><g transform="matrix(1,0,0,1,870,2049)" ed:parentid="150" id="282" ed:height="33.5" ed:width="514"><path stroke="#696969" fill="none" d="M0,33.5L514,33.5" stroke-linejoin="round"/><text class="st3"><tspan style="white-space:pre" y="14.6" x="8">盖帽法：将某连续变量均值上下三倍标准差范围外的记录替换为均值上下三倍标准差值；分箱</tspan><tspan style="white-space:pre" y="28.6" x="8">法：通过考察数据的近邻来光滑有序数据的值；聚类法：将数据对象分组成为多个簇</tspan></text></g><g transform="matrix(1,0,0,1,996,2089)" ed:parentid="154" id="284" ed:height="19.5" ed:width="504"><path stroke="#696969" fill="none" d="M0,19.5L504,19.5" stroke-linejoin="round"/><text class="st3"><tspan style="white-space:pre" y="14.6" x="8">3个重要指标：最近一次消费（Recency）、消费频率（Frequency）、消费金额（Monetary）</tspan></text></g><symbol id="plus"><path fill="url(#lg1)" d="M11,6C11,8.8,8.8,11,6,11C3.2,11,1,8.8,1,6C1,3.2,3.2,1,6,1C8.8,1,11,3.2,11,6z"/><path fill="none" stroke="#46a000" d="M11,6C11,8.8,8.8,11,6,11C3.2,11,1,8.8,1,6C1,3.2,3.2,1,6,1C8.8,1,11,3.2,11,6zM3,6L9,6M6,3L6,9" stroke-width="0.7"/></symbol><symbol id="minus"><path fill="url(#lg1)" d="M11,6C11,8.8,8.8,11,6,11C3.2,11,1,8.8,1,6C1,3.2,3.2,1,6,1C8.8,1,11,3.2,11,6z"/><path fill="none" stroke="#46a000" d="M11,6C11,8.8,8.8,11,6,11C3.2,11,1,8.8,1,6C1,3.2,3.2,1,6,1C8.8,1,11,3.2,11,6zM3,6L9,6" stroke-width="0.7"/></symbol><g transform="translate(444,1059)" ed:togtopicid="101"><use xlink:href="#minus"/></g><g transform="translate(727,381)" ed:togtopicid="102"><use xlink:href="#minus"/></g><g transform="translate(904,145)" ed:togtopicid="104"><use xlink:href="#minus"/></g><g transform="translate(868,304)" ed:togtopicid="106"><use xlink:href="#minus"/></g><g transform="translate(916,423)" ed:togtopicid="108"><use xlink:href="#minus"/></g><g transform="translate(928,542)" ed:togtopicid="110"><use xlink:href="#minus"/></g><g transform="translate(928,659)" ed:togtopicid="112"><use xlink:href="#minus"/></g><g transform="translate(670,902)" ed:togtopicid="116"><use xlink:href="#minus"/></g><g transform="translate(775,1186)" ed:togtopicid="118"><use xlink:href="#minus"/></g><g transform="translate(799,815)" ed:togtopicid="120"><use xlink:href="#minus"/></g><g transform="translate(901,941)" ed:togtopicid="122"><use xlink:href="#minus"/></g><g transform="translate(964,1081)" ed:togtopicid="124"><use xlink:href="#minus"/></g><g transform="translate(964,1120)" ed:togtopicid="126"><use xlink:href="#minus"/></g><g transform="translate(940,1172)" ed:togtopicid="128"><use xlink:href="#minus"/></g><g transform="translate(952,1244)" ed:togtopicid="130"><use xlink:href="#minus"/></g><g transform="translate(964,1297)" ed:togtopicid="132"><use xlink:href="#minus"/></g><g transform="translate(742,1528)" ed:togtopicid="134"><use xlink:href="#minus"/></g><g transform="translate(943,1441)" ed:togtopicid="136"><use xlink:href="#minus"/></g><g transform="translate(919,1572)" ed:togtopicid="138"><use xlink:href="#minus"/></g><g transform="translate(871,1659)" ed:togtopicid="140"><use xlink:href="#minus"/></g><g transform="translate(727,1923)" ed:togtopicid="146"><use xlink:href="#minus"/></g><g transform="translate(844,1844)" ed:togtopicid="148"><use xlink:href="#minus"/></g><g transform="translate(844,2014)" ed:togtopicid="150"><use xlink:href="#minus"/></g><g transform="translate(970,2093)" ed:togtopicid="154"><use xlink:href="#minus"/></g></svg>