<svg height="2662" width="1289" xmlns="http://www.w3.org/2000/svg" xmlns:ed="https://www.edrawsoft.cn/xml/2017/SVGExtensions/" ed:hSpacing="30" ed:vSpacing="30" xmlns:xlink="http://www.w3.org/1999/xlink" viewBox="0 0 1289 2662" xmlns:ev="http://www.w3.org/2001/xml-events" ed:name="Page-1" id="page100"><style type="text/css"><![CDATA[
g[ed\:togtopicid],g[ed\:hyperlink],g[ed\:comment],g[ed\:note] {cursor:pointer;}
g[id] {-moz-user-select: none;-ms-user-select: none;user-select: none;}
svg text::selection,svg tspan::selection{background-color: #4285f4;color: #ffffff;fill: #ffffff;}
.st2 {fill:#303030;font-family:微软雅黑;font-size:12pt}
.st3 {fill:#454545;font-family:微软雅黑;font-size:10pt}
.st1 {fill:#ffffff;font-family:微软雅黑;font-size:14pt}
]]></style><defs><linearGradient x2="0%" y2="100%" y1="0%" x1="0%" id="lg1"><stop offset="0" stop-color="#ffffff"/><stop offset="0.25" stop-color="#f0f5f0"/><stop offset="0.75" stop-color="#e1ebe1"/><stop offset="1" stop-color="#c8d7c8"/></linearGradient></defs><rect height="2662" y="0" width="1289" fill="#ffffff" x="0"/><path transform="matrix(1,0,0,1,217,685)" stroke="#696969" stroke-linecap="round" fill="none" ed:parentid="101" d="M-59,617.2C15.3,427.5,-70.4,-645.8,85.5,-645.8" ed:tosuperid="102" stroke-linejoin="round" id="103"/><path transform="matrix(1,0,0,1,217,720)" stroke="#696969" stroke-linecap="round" fill="none" ed:parentid="101" d="M-58.4,582.3C14.8,398.6,-69.9,-610.8,85.5,-610.8" ed:tosuperid="104" stroke-linejoin="round" id="105"/><path transform="matrix(1,0,0,1,217,937)" stroke="#696969" stroke-linecap="round" fill="none" ed:parentid="101" d="M-53.1,365.9C10.7,224.5,-66,-394.4,85.5,-394.4" ed:tosuperid="106" stroke-linejoin="round" id="107"/><path transform="matrix(1,0,0,1,217,1219)" stroke="#696969" stroke-linecap="round" fill="none" ed:parentid="101" d="M-38.7,83.6C0.6,23.2,-0.2,-112.1,85.5,-112.1" ed:tosuperid="108" stroke-linejoin="round" id="109"/><path transform="matrix(1,0,0,1,217,1470)" stroke="#696969" stroke-linecap="round" fill="none" ed:parentid="101" d="M-41.7,-110.6C0.2,-39.7,-12.9,139.1,85.5,139.1" ed:tosuperid="110" stroke-linejoin="round" id="111"/><path transform="matrix(1,0,0,1,217,1764)" stroke="#696969" stroke-linecap="round" fill="none" ed:parentid="101" d="M-54.2,-404.1C11.6,-254.6,-66.9,432.6,85.5,432.6" ed:tosuperid="112" stroke-linejoin="round" id="113"/><path transform="matrix(1,0,0,1,217,1907)" stroke="#696969" stroke-linecap="round" fill="none" ed:parentid="101" d="M-57.7,-547.3C14.3,-369.8,-69.5,575.8,85.5,575.8" ed:tosuperid="114" stroke-linejoin="round" id="115"/><path transform="matrix(1,0,0,1,217,1942)" stroke="#696969" stroke-linecap="round" fill="none" ed:parentid="101" d="M-58.4,-582.2C14.8,-398.6,-69.9,610.8,85.5,610.8" ed:tosuperid="116" stroke-linejoin="round" id="117"/><path transform="matrix(1,0,0,1,217,1977)" stroke="#696969" stroke-linecap="round" fill="none" ed:parentid="101" d="M-59,-617.3C15.3,-427.5,-70.4,645.8,85.5,645.8" ed:tosuperid="118" stroke-linejoin="round" id="119"/><path transform="matrix(1,0,0,1,741,373)" stroke="#696969" stroke-linecap="round" fill="none" ed:parentid="106" d="M-13.5,168.9C5.4,168.9,-13.5,-168.9,13.5,-168.9" ed:tosuperid="124" stroke-linejoin="round" id="125"/><path transform="matrix(1,0,0,1,741,398)" stroke="#696969" stroke-linecap="round" fill="none" ed:parentid="106" d="M-13.5,143.9C5.4,143.9,-13.5,-143.9,13.5,-143.9" ed:tosuperid="126" stroke-linejoin="round" id="127"/><path transform="matrix(1,0,0,1,741,423)" stroke="#696969" stroke-linecap="round" fill="none" ed:parentid="106" d="M-13.5,118.9C5.4,118.9,-13.5,-118.9,13.5,-118.9" ed:tosuperid="128" stroke-linejoin="round" id="129"/><path transform="matrix(1,0,0,1,741,439)" stroke="#696969" stroke-linecap="round" fill="none" ed:parentid="106" d="M-13.5,103.4C5.4,103.4,-13.5,-103.4,13.5,-103.4" ed:tosuperid="130" stroke-linejoin="round" id="131"/><path transform="matrix(1,0,0,1,741,464)" stroke="#696969" stroke-linecap="round" fill="none" ed:parentid="106" d="M-13.5,78.4C5.4,78.4,-13.5,-78.4,13.5,-78.4" ed:tosuperid="132" stroke-linejoin="round" id="133"/><path transform="matrix(1,0,0,1,741,489)" stroke="#696969" stroke-linecap="round" fill="none" ed:parentid="106" d="M-13.5,53.4C5.4,53.4,-13.5,-53.4,13.5,-53.4" ed:tosuperid="134" stroke-linejoin="round" id="135"/><path transform="matrix(1,0,0,1,741,504)" stroke="#696969" stroke-linecap="round" fill="none" ed:parentid="106" d="M-13.5,37.9C4.5,37.9,-11.5,-37.9,13.5,-37.9" ed:tosuperid="136" stroke-linejoin="round" id="137"/><path transform="matrix(1,0,0,1,741,520)" stroke="#696969" stroke-linecap="round" fill="none" ed:parentid="106" d="M-13.5,22.4C2.2,22.4,-6.1,-22.4,13.5,-22.4" ed:tosuperid="138" stroke-linejoin="round" id="139"/><path transform="matrix(1,0,0,1,741,545)" stroke="#696969" stroke-linecap="round" fill="none" ed:parentid="106" d="M-13.5,-2.6C-2.1,-2.6,4,2.6,13.5,2.6" ed:tosuperid="142" stroke-linejoin="round" id="143"/><path transform="matrix(1,0,0,1,741,560)" stroke="#696969" stroke-linecap="round" fill="none" ed:parentid="106" d="M-13.5,-18.1C1.4,-18.1,-4.1,18.1,13.5,18.1" ed:tosuperid="144" stroke-linejoin="round" id="145"/><path transform="matrix(1,0,0,1,741,595)" stroke="#696969" stroke-linecap="round" fill="none" ed:parentid="106" d="M-13.5,-52.6C5.4,-52.6,-13.5,52.6,13.5,52.6" ed:tosuperid="146" stroke-linejoin="round" id="147"/><path transform="matrix(1,0,0,1,741,620)" stroke="#696969" stroke-linecap="round" fill="none" ed:parentid="106" d="M-13.5,-77.6C5.4,-77.6,-13.5,77.6,13.5,77.6" ed:tosuperid="148" stroke-linejoin="round" id="149"/><path transform="matrix(1,0,0,1,741,645)" stroke="#696969" stroke-linecap="round" fill="none" ed:parentid="106" d="M-13.5,-102.6C5.4,-102.6,-13.5,102.6,13.5,102.6" ed:tosuperid="150" stroke-linejoin="round" id="151"/><path transform="matrix(1,0,0,1,741,670)" stroke="#696969" stroke-linecap="round" fill="none" ed:parentid="106" d="M-13.5,-127.6C5.4,-127.6,-13.5,127.6,13.5,127.6" ed:tosuperid="152" stroke-linejoin="round" id="153"/><path transform="matrix(1,0,0,1,741,733)" stroke="#696969" stroke-linecap="round" fill="none" ed:parentid="106" d="M-13.5,-190.6C5.4,-190.6,-13.5,190.6,13.5,190.6" ed:tosuperid="154" stroke-linejoin="round" id="155"/><path transform="matrix(1,0,0,1,725,1053)" stroke="#696969" stroke-linecap="round" fill="none" ed:parentid="108" d="M-13.5,53.4C5.4,53.4,-13.5,-53.4,13.5,-53.4" ed:tosuperid="156" stroke-linejoin="round" id="157"/><path transform="matrix(1,0,0,1,725,1078)" stroke="#696969" stroke-linecap="round" fill="none" ed:parentid="108" d="M-13.5,28.4C3.3,28.4,-8.5,-28.4,13.5,-28.4" ed:tosuperid="158" stroke-linejoin="round" id="159"/><path transform="matrix(1,0,0,1,725,1103)" stroke="#696969" stroke-linecap="round" fill="none" ed:parentid="108" d="M-13.5,3.4C-1.9,3.4,3.5,-3.4,13.5,-3.4" ed:tosuperid="160" stroke-linejoin="round" id="161"/><path transform="matrix(1,0,0,1,725,1138)" stroke="#696969" stroke-linecap="round" fill="none" ed:parentid="108" d="M-13.5,-31.1C3.7,-31.1,-9.5,31.1,13.5,31.1" ed:tosuperid="162" stroke-linejoin="round" id="163"/><path transform="matrix(1,0,0,1,725,1182)" stroke="#696969" stroke-linecap="round" fill="none" ed:parentid="108" d="M-13.5,-75.1C5.4,-75.1,-13.5,75.1,13.5,75.1" ed:tosuperid="164" stroke-linejoin="round" id="165"/><path transform="matrix(1,0,0,1,693,1471)" stroke="#696969" stroke-linecap="round" fill="none" ed:parentid="110" d="M-13.5,137.9C5.4,137.9,-13.5,-137.9,13.5,-137.9" ed:tosuperid="166" stroke-linejoin="round" id="167"/><path transform="matrix(1,0,0,1,693,1506)" stroke="#696969" stroke-linecap="round" fill="none" ed:parentid="110" d="M-13.5,103.4C5.4,103.4,-13.5,-103.4,13.5,-103.4" ed:tosuperid="168" stroke-linejoin="round" id="169"/><path transform="matrix(1,0,0,1,693,1531)" stroke="#696969" stroke-linecap="round" fill="none" ed:parentid="110" d="M-13.5,78.4C5.4,78.4,-13.5,-78.4,13.5,-78.4" ed:tosuperid="170" stroke-linejoin="round" id="171"/><path transform="matrix(1,0,0,1,693,1556)" stroke="#696969" stroke-linecap="round" fill="none" ed:parentid="110" d="M-13.5,53.4C5.4,53.4,-13.5,-53.4,13.5,-53.4" ed:tosuperid="172" stroke-linejoin="round" id="173"/><path transform="matrix(1,0,0,1,693,1581)" stroke="#696969" stroke-linecap="round" fill="none" ed:parentid="110" d="M-13.5,28.4C3.3,28.4,-8.5,-28.4,13.5,-28.4" ed:tosuperid="174" stroke-linejoin="round" id="175"/><path transform="matrix(1,0,0,1,693,1615)" stroke="#696969" stroke-linecap="round" fill="none" ed:parentid="110" d="M-13.5,-6.1C-1.3,-6.1,2.1,6.1,13.5,6.1" ed:tosuperid="176" stroke-linejoin="round" id="177"/><path transform="matrix(1,0,0,1,693,1631)" stroke="#696969" stroke-linecap="round" fill="none" ed:parentid="110" d="M-13.5,-21.6C2.1,-21.6,-5.7,21.6,13.5,21.6" ed:tosuperid="178" stroke-linejoin="round" id="179"/><path transform="matrix(1,0,0,1,693,1656)" stroke="#696969" stroke-linecap="round" fill="none" ed:parentid="110" d="M-13.5,-46.6C5.2,-46.6,-13.1,46.6,13.5,46.6" ed:tosuperid="180" stroke-linejoin="round" id="181"/><path transform="matrix(1,0,0,1,693,1671)" stroke="#696969" stroke-linecap="round" fill="none" ed:parentid="110" d="M-13.5,-62.1C5.4,-62.1,-13.5,62.1,13.5,62.1" ed:tosuperid="182" stroke-linejoin="round" id="183"/><path transform="matrix(1,0,0,1,693,1687)" stroke="#696969" stroke-linecap="round" fill="none" ed:parentid="110" d="M-13.5,-77.6C5.4,-77.6,-13.5,77.6,13.5,77.6" ed:tosuperid="184" stroke-linejoin="round" id="185"/><path transform="matrix(1,0,0,1,693,1769)" stroke="#696969" stroke-linecap="round" fill="none" ed:parentid="110" d="M-13.5,-159.6C5.4,-159.6,-13.5,159.6,13.5,159.6" ed:tosuperid="186" stroke-linejoin="round" id="187"/><path transform="matrix(1,0,0,1,689,2120)" stroke="#696969" stroke-linecap="round" fill="none" ed:parentid="112" d="M-13.5,76.6C5.4,76.6,-13.5,-76.6,13.5,-76.6" ed:tosuperid="188" stroke-linejoin="round" id="189"/><path transform="matrix(1,0,0,1,689,2154)" stroke="#696969" stroke-linecap="round" fill="none" ed:parentid="112" d="M-13.5,42.1C4.9,42.1,-12.4,-42.1,13.5,-42.1" ed:tosuperid="190" stroke-linejoin="round" id="191"/><path transform="matrix(1,0,0,1,689,2170)" stroke="#696969" stroke-linecap="round" fill="none" ed:parentid="112" d="M-13.5,26.6C3,26.6,-7.8,-26.6,13.5,-26.6" ed:tosuperid="192" stroke-linejoin="round" id="193"/><path transform="matrix(1,0,0,1,689,2185)" stroke="#696969" stroke-linecap="round" fill="none" ed:parentid="112" d="M-13.5,11.1C-0.1,11.1,-0.6,-11.1,13.5,-11.1" ed:tosuperid="194" stroke-linejoin="round" id="195"/><path transform="matrix(1,0,0,1,689,2201)" stroke="#696969" stroke-linecap="round" fill="none" ed:parentid="112" d="M-13.5,-4.4C-1.7,-4.4,3,4.4,13.5,4.4" ed:tosuperid="196" stroke-linejoin="round" id="197"/><path transform="matrix(1,0,0,1,689,2226)" stroke="#696969" stroke-linecap="round" fill="none" ed:parentid="112" d="M-13.5,-29.4C3.4,-29.4,-8.9,29.4,13.5,29.4" ed:tosuperid="198" stroke-linejoin="round" id="199"/><path transform="matrix(1,0,0,1,689,2251)" stroke="#696969" stroke-linecap="round" fill="none" ed:parentid="112" d="M-13.5,-54.4C5.4,-54.4,-13.5,54.4,13.5,54.4" ed:tosuperid="200" stroke-linejoin="round" id="201"/><path transform="matrix(1,0,0,1,689,2314)" stroke="#696969" stroke-linecap="round" fill="none" ed:parentid="112" d="M-13.5,-117.4C5.4,-117.4,-13.5,117.4,13.5,117.4" ed:tosuperid="202" stroke-linejoin="round" id="203"/><g transform="matrix(1,0,0,1,23,1303)" ed:layout="rightmap" ed:topictype="mainidea" id="101" ed:height="57" ed:width="216"><path fill="#435fbc" stroke="#435fbc" d="M4,0L212,0C214.7,0,216,1.3,216,4L216,53C216,55.7,214.7,57,212,57L4,57C1.3,57,0,55.7,0,53L0,4C0,1.3,1.3,0,4,0z" stroke-linejoin="round" stroke-width="3"/><text class="st1"><tspan style="white-space:pre" y="34.5" x="21">《数据中台实践课》</tspan></text></g><g transform="matrix(1,0,0,1,302,21)" ed:parentid="101" id="102" ed:height="37" ed:width="327"><path fill="#ebecf3" stroke="#ebecf3" d="M4,0L323,0C325.7,0,327,1.3,327,4L327,33C327,35.7,325.7,37,323,37L4,37C1.3,37,0,35.7,0,33L0,4C0,1.3,1.3,0,4,0z" stroke-linejoin="round"/><text class="st2"><tspan style="white-space:pre" y="23.4" x="18">开篇词：数据中台，是陷阱？还是金钥匙</tspan></text></g><g transform="matrix(1,0,0,1,302,91)" ed:parentid="101" id="104" ed:height="37" ed:width="87"><path fill="#ebecf3" stroke="#ebecf3" d="M4,0L83,0C85.7,0,87,1.3,87,4L87,33C87,35.7,85.7,37,83,37L4,37C1.3,37,0,35.7,0,33L0,4C0,1.3,1.3,0,4,0z" stroke-linejoin="round"/><text class="st2"><tspan style="white-space:pre" y="23.4" x="18">原理篇</tspan></text></g><g transform="matrix(1,0,0,1,302,524)" ed:parentid="101" id="106" ed:height="37" ed:width="425"><path fill="#ebecf3" stroke="#ebecf3" d="M4,0L421,0C423.7,0,425,1.3,425,4L425,33C425,35.7,423.7,37,421,37L4,37C1.3,37,0,35.7,0,33L0,4C0,1.3,1.3,0,4,0z" stroke-linejoin="round"/><text class="st2"><tspan style="white-space:pre" y="23.4" x="18">01、前因后果：为什么说数据中台是大数据的下一站？</tspan></text></g><g transform="matrix(1,0,0,1,302,1088)" ed:parentid="101" id="108" ed:height="37" ed:width="409"><path fill="#ebecf3" stroke="#ebecf3" d="M4,0L405,0C407.7,0,409,1.3,409,4L409,33C409,35.7,407.7,37,405,37L4,37C1.3,37,0,35.7,0,33L0,4C0,1.3,1.3,0,4,0z" stroke-linejoin="round"/><text class="st2"><tspan style="white-space:pre" y="23.4" x="18">02、关键抉择：到底什么样的企业应该建数据中台？</tspan></text></g><g transform="matrix(1,0,0,1,302,1591)" ed:parentid="101" id="110" ed:height="37" ed:width="377"><path fill="#ebecf3" stroke="#ebecf3" d="M4,0L373,0C375.7,0,377,1.3,377,4L377,33C377,35.7,375.7,37,373,37L4,37C1.3,37,0,35.7,0,33L0,4C0,1.3,1.3,0,4,0z" stroke-linejoin="round"/><text class="st2"><tspan style="white-space:pre" y="23.4" x="18">03、数据中台建设三板斧：方法论、组织和技术</tspan></text></g><g transform="matrix(1,0,0,1,302,2178)" ed:parentid="101" id="112" ed:height="37" ed:width="373"><path fill="#ebecf3" stroke="#ebecf3" d="M4,0L369,0C371.7,0,373,1.3,373,4L373,33C373,35.7,371.7,37,369,37L4,37C1.3,37,0,35.7,0,33L0,4C0,1.3,1.3,0,4,0z" stroke-linejoin="round"/><text class="st2"><tspan style="white-space:pre" y="23.4" x="18">特别放送 | 史凯：建设数据中台到底有什么用？</tspan></text></g><g transform="matrix(1,0,0,1,302,2464)" ed:parentid="101" id="114" ed:height="37" ed:width="87"><path fill="#ebecf3" stroke="#ebecf3" d="M4,0L83,0C85.7,0,87,1.3,87,4L87,33C87,35.7,85.7,37,83,37L4,37C1.3,37,0,35.7,0,33L0,4C0,1.3,1.3,0,4,0z" stroke-linejoin="round"/><text class="st2"><tspan style="white-space:pre" y="23.4" x="18">实现篇</tspan></text></g><g transform="matrix(1,0,0,1,302,2534)" ed:parentid="101" id="116" ed:height="37" ed:width="345"><path fill="#ebecf3" stroke="#ebecf3" d="M4,0L341,0C343.7,0,345,1.3,345,4L345,33C345,35.7,343.7,37,341,37L4,37C1.3,37,0,35.7,0,33L0,4C0,1.3,1.3,0,4,0z" stroke-linejoin="round"/><text class="st2"><tspan style="white-space:pre" y="23.4" x="18">04、元数据中心的关键目标和技术实现方案</tspan></text></g><g transform="matrix(1,0,0,1,302,2604)" ed:parentid="101" id="118" ed:height="37" ed:width="329"><path fill="#ebecf3" stroke="#ebecf3" d="M4,0L325,0C327.7,0,329,1.3,329,4L329,33C329,35.7,327.7,37,325,37L4,37C1.3,37,0,35.7,0,33L0,4C0,1.3,1.3,0,4,0z" stroke-linejoin="round"/><text class="st2"><tspan style="white-space:pre" y="23.4" x="18">05、如何统一管理纷繁杂乱的数据指标？</tspan></text></g><g transform="matrix(1,0,0,1,754,161)" ed:parentid="106" id="124" ed:height="43.5" ed:width="514"><path stroke="#696969" fill="none" d="M0,43.5L514,43.5" stroke-linejoin="round"/><text class="st3"><tspan style="white-space:pre" y="16.1" x="8">首次给出了数据仓库的完整定义：数据仓库是在企业管理和决策中面向主题的、集成</tspan><tspan style="white-space:pre" y="35.1" x="8">的、与时间相关的，不可修改的数据集合。</tspan></text></g><g transform="matrix(1,0,0,1,754,211)" ed:parentid="106" id="126" ed:height="43.5" ed:width="514"><path stroke="#696969" fill="none" d="M0,43.5L514,43.5" stroke-linejoin="round"/><text class="st3"><tspan style="white-space:pre" y="16.1" x="8">恩门提出的建模方法自顶向下（这里的顶是指数据的来源，在传统数据仓库中，就是各</tspan><tspan style="white-space:pre" y="35.1" x="8">个业务数据库），基于业务中各个实体以及实体之间的关系，构建数据仓库。</tspan></text></g><g transform="matrix(1,0,0,1,754,261)" ed:parentid="106" id="128" ed:height="43.5" ed:width="514"><path stroke="#696969" fill="none" d="M0,43.5L514,43.5" stroke-linejoin="round"/><text class="st3"><tspan style="white-space:pre" y="16.1" x="8">恩门建模因为是从数据源开始构建，构建成本比较高，适用于应用场景比较固定的业</tspan><tspan style="white-space:pre" y="35.1" x="8">务，比如金融领域，冗余数据少是它的优势</tspan></text></g><g transform="matrix(1,0,0,1,754,311)" ed:parentid="106" id="130" ed:height="24.5" ed:width="512"><path stroke="#696969" fill="none" d="M0,24.5L512,24.5" stroke-linejoin="round"/><text class="st3"><tspan style="white-space:pre" y="16.1" x="8">金博尔建模由于是从分析场景出发，适用于变化速度比较快的业务，比如互联网业务。</tspan></text></g><g transform="matrix(1,0,0,1,754,342)" ed:parentid="106" id="132" ed:height="43.5" ed:width="514"><path stroke="#696969" fill="none" d="M0,43.5L514,43.5" stroke-linejoin="round"/><text class="st3"><tspan style="white-space:pre" y="16.1" x="8">进入互联网时代，有两个最重要的变化：一个是数据规模前所未有，另一个是数据类型</tspan><tspan style="white-space:pre" y="35.1" x="8">变得异构化</tspan></text></g><g transform="matrix(1,0,0,1,754,392)" ed:parentid="106" id="134" ed:height="43.5" ed:width="514"><path stroke="#696969" fill="none" d="M0,43.5L514,43.5" stroke-linejoin="round"/><text class="st3"><tspan style="white-space:pre" y="16.1" x="8"> Hadoop 相比传统数据仓库主要有两个优势：1、完全分布式，易于扩展；2、弱化数</tspan><tspan style="white-space:pre" y="35.1" x="8">据格式</tspan></text></g><g transform="matrix(1,0,0,1,754,442)" ed:parentid="106" id="136" ed:height="24.5" ed:width="404"><path stroke="#696969" fill="none" d="M0,24.5L404,24.5" stroke-linejoin="round"/><text class="st3"><tspan style="white-space:pre" y="16.1" x="8">数据湖（Data Lake）是一个以原始格式存储数据的存储库或系统。</tspan></text></g><g transform="matrix(1,0,0,1,754,473)" ed:parentid="106" id="138" ed:height="24.5" ed:width="447"><path stroke="#696969" fill="none" d="M0,24.5L447,24.5" stroke-linejoin="round"/><text class="st3"><tspan style="white-space:pre" y="16.1" x="8">大数据平台是面向数据研发场景的，覆盖数据研发的完整链路的数据工作台</tspan></text></g><g transform="matrix(1,0,0,1,754,504)" ed:parentid="106" id="142" ed:height="43.5" ed:width="514"><path stroke="#696969" fill="none" d="M0,43.5L514,43.5" stroke-linejoin="round"/><text class="st3"><tspan style="white-space:pre" y="16.1" x="8">大数据平台按照使用场景，分为数据集成、数据开发、数据测试……任务运维，大数据</tspan><tspan style="white-space:pre" y="35.1" x="8">平台的使用对象是数据开发。</tspan></text></g><g transform="matrix(1,0,0,1,754,554)" ed:parentid="106" id="144" ed:height="24.5" ed:width="478"><path stroke="#696969" fill="none" d="M0,24.5L478,24.5" stroke-linejoin="round"/><text class="st3"><tspan style="white-space:pre" y="16.1" x="8">数据平台的底层是以 Hadoop 为代表的基础设施，分为计算、资源调度和存储。</tspan></text></g><g transform="matrix(1,0,0,1,754,585)" ed:parentid="106" id="146" ed:height="62.5" ed:width="514"><path stroke="#696969" fill="none" d="M0,62.5L514,62.5" stroke-linejoin="round"/><text class="st3"><tspan style="white-space:pre" y="16.1" x="8">Hive、Spark、Flink、Impala 提供了大数据计算引擎：Hive、Spark 主要解决离线数</tspan><tspan style="white-space:pre" y="35.1" x="8">据清洗、加工的场景；Flink 主要是解决实时计算的场景；Impala 主要是解决交互式查</tspan><tspan style="white-space:pre" y="54.1" x="8">询的场景。</tspan></text></g><g transform="matrix(1,0,0,1,754,654)" ed:parentid="106" id="148" ed:height="43.5" ed:width="514"><path stroke="#696969" fill="none" d="M0,43.5L514,43.5" stroke-linejoin="round"/><text class="st3"><tspan style="white-space:pre" y="16.1" x="8">这些计算引擎统一运行在一个称为 Yarn 的资源调度管理框架内，由 Yarn 来分配计算</tspan><tspan style="white-space:pre" y="35.1" x="8">资源。</tspan></text></g><g transform="matrix(1,0,0,1,754,704)" ed:parentid="106" id="150" ed:height="43.5" ed:width="514"><path stroke="#696969" fill="none" d="M0,43.5L514,43.5" stroke-linejoin="round"/><text class="st3"><tspan style="white-space:pre" y="16.1" x="8">数据割裂的另外一个问题，就是大量的重复计算、开发，导致的研发效率的浪费，计</tspan><tspan style="white-space:pre" y="35.1" x="8">算、存储资源的浪费，大数据的应用成本越来越高。</tspan></text></g><g transform="matrix(1,0,0,1,754,754)" ed:parentid="106" id="152" ed:height="43.5" ed:width="514"><path stroke="#696969" fill="none" d="M0,43.5L514,43.5" stroke-linejoin="round"/><text class="st3"><tspan style="white-space:pre" y="16.1" x="8">2016 年，阿里巴巴率先提出了“数据中台”的口号。数据中台的核心，是避免数据的</tspan><tspan style="white-space:pre" y="35.1" x="8">重复计算，通过数据服务化，提高数据的共享能力，赋能数据应用。</tspan></text></g><g transform="matrix(1,0,0,1,754,804)" ed:parentid="106" id="154" ed:height="119.5" ed:width="514"><path stroke="#696969" fill="none" d="M0,119.5L514,119.5" stroke-linejoin="round"/><text class="st3"><tspan style="white-space:pre" y="16.1" x="8">数据中台构建于数据湖之上，具备数据湖异构数据统一计算、存储的能力，同时让数据</tspan><tspan style="white-space:pre" y="35.1" x="8">湖中杂乱的数据通过规范化的方式管理起来。</tspan><tspan style="white-space:pre" y="54.1" x="8">数据中台需要依赖大数据平台，大数据平台完成了数据研发的全流程覆盖，数据中台增</tspan><tspan style="white-space:pre" y="73.1" x="8">加了数据治理和数据服务化的内容。</tspan><tspan style="white-space:pre" y="92.1" x="8">数据中台借鉴了传统数据仓库面向主题域的数据组织模式，基于维度建模的理论，构建</tspan><tspan style="white-space:pre" y="111.1" x="8">统一的数据公共层。</tspan></text></g><g transform="matrix(1,0,0,1,738,957)" ed:parentid="108" id="156" ed:height="43.5" ed:width="514"><path stroke="#696969" fill="none" d="M0,43.5L514,43.5" stroke-linejoin="round"/><text class="st3"><tspan style="white-space:pre" y="16.1" x="8">数据产品暴露出很多尖锐的问题：1. 指标口径不一致；2. 数据重复建设，需求响应时</tspan><tspan style="white-space:pre" y="35.1" x="8">间长；3. 取数效率低；4. 数据质量差；5. 数据成本线性增长。</tspan></text></g><g transform="matrix(1,0,0,1,738,1007)" ed:parentid="108" id="158" ed:height="43.5" ed:width="514"><path stroke="#696969" fill="none" d="M0,43.5L514,43.5" stroke-linejoin="round"/><text class="st3"><tspan style="white-space:pre" y="16.1" x="8">指标口径不一致，可能原因包括三种：业务口径不一致、计算逻辑不一致、数据来源不</tspan><tspan style="white-space:pre" y="35.1" x="8">一致。</tspan></text></g><g transform="matrix(1,0,0,1,738,1057)" ed:parentid="108" id="160" ed:height="43.5" ed:width="514"><path stroke="#696969" fill="none" d="M0,43.5L514,43.5" stroke-linejoin="round"/><text class="st3"><tspan style="white-space:pre" y="16.1" x="8">数据中台是如何解决这些问题：1、管好指标；2、实现指标体系化的管理，提高指标</tspan><tspan style="white-space:pre" y="35.1" x="8">管理的效率；3、确保所有的数据产品、报表都引用指标系统的口径定义</tspan></text></g><g transform="matrix(1,0,0,1,738,1107)" ed:parentid="108" id="162" ed:height="62.5" ed:width="514"><path stroke="#696969" fill="none" d="M0,62.5L514,62.5" stroke-linejoin="round"/><text class="st3"><tspan style="white-space:pre" y="16.1" x="8">数据中台的构建需要非常大的投入：一方面数据中台的建设离不开系统支撑，研发系统</tspan><tspan style="white-space:pre" y="35.1" x="8">需要投入大量的人力，另外一方面，面对大量的数据需求，要花费额外的人力去做数据</tspan><tspan style="white-space:pre" y="54.1" x="8">模型的重构</tspan></text></g><g transform="matrix(1,0,0,1,738,1176)" ed:parentid="108" id="164" ed:height="81.5" ed:width="514"><path stroke="#696969" fill="none" d="M0,81.5L514,81.5" stroke-linejoin="round"/><text class="st3"><tspan style="white-space:pre" y="16.1" x="8">企业在选择数据中台的时候，应该考虑这样几个因素：1、企业是否有大量的数据应用</tspan><tspan style="white-space:pre" y="35.1" x="8">场景；2、为了消除数据孤岛，就必须要构建一个数据中台；3、面临效率、质量和成</tspan><tspan style="white-space:pre" y="54.1" x="8">本的苦恼时，面对大量的开发，却不知道如何提高效能，数据经常出问题而束手无策；</tspan><tspan style="white-space:pre" y="73.1" x="8">4、企业规模也是必须要考虑的一个因素，数据中台因为投入大，收益偏长线</tspan></text></g><g transform="matrix(1,0,0,1,706,1290)" ed:parentid="110" id="166" ed:height="43.5" ed:width="514"><path stroke="#696969" fill="none" d="M0,43.5L514,43.5" stroke-linejoin="round"/><text class="st3"><tspan style="white-space:pre" y="16.1" x="8">早在 2016 年，阿里巴巴就提出了数据中台建设的核心方法论：OneData 和 </tspan><tspan style="white-space:pre" y="35.1" x="8">OneService。</tspan></text></g><g transform="matrix(1,0,0,1,706,1340)" ed:parentid="110" id="168" ed:height="62.5" ed:width="514"><path stroke="#696969" fill="none" d="M0,62.5L514,62.5" stroke-linejoin="round"/><text class="st3"><tspan style="white-space:pre" y="16.1" x="8">为了实现模型的复用，数据中台适合采用分层的设计方式，常见的分层包括：ODS 原</tspan><tspan style="white-space:pre" y="35.1" x="8">始数据层，DWD 明细数据层，DWS 轻度汇总数据层，ADS/DM 应用数据层 / 数据</tspan><tspan style="white-space:pre" y="54.1" x="8">集市层</tspan></text></g><g transform="matrix(1,0,0,1,706,1409)" ed:parentid="110" id="170" ed:height="43.5" ed:width="514"><path stroke="#696969" fill="none" d="M0,43.5L514,43.5" stroke-linejoin="round"/><text class="st3"><tspan style="white-space:pre" y="16.1" x="8">OneData 体系的目标是构建统一的数据规范标准，让数据成为一种资产，而不是成</tspan><tspan style="white-space:pre" y="35.1" x="8">本。</tspan></text></g><g transform="matrix(1,0,0,1,706,1459)" ed:parentid="110" id="172" ed:height="43.5" ed:width="514"><path stroke="#696969" fill="none" d="M0,43.5L514,43.5" stroke-linejoin="round"/><text class="st3"><tspan style="white-space:pre" y="16.1" x="8">OneService，数据即服务，强调数据中台中的数据应该是通过 API 接口的方式被访</tspan><tspan style="white-space:pre" y="35.1" x="8">问。</tspan></text></g><g transform="matrix(1,0,0,1,706,1509)" ed:parentid="110" id="174" ed:height="43.5" ed:width="514"><path stroke="#696969" fill="none" d="M0,43.5L514,43.5" stroke-linejoin="round"/><text class="st3"><tspan style="white-space:pre" y="16.1" x="8">屏蔽异构数据源：数据服务必须要能够支撑类型丰富的查询引擎，满足不同场景下数据</tspan><tspan style="white-space:pre" y="35.1" x="8">的查询需求，常见的有 MySQL、HBase、Greenplum、Redis、Elasticsearch 等。</tspan></text></g><g transform="matrix(1,0,0,1,706,1559)" ed:parentid="110" id="176" ed:height="62.5" ed:width="514"><path stroke="#696969" fill="none" d="M0,62.5L514,62.5" stroke-linejoin="round"/><text class="st3"><tspan style="white-space:pre" y="16.1" x="8">数据网关：要实现包括权限、监控、流控、日志在内的一系列管控能力，哪个应用的哪</tspan><tspan style="white-space:pre" y="35.1" x="8">个页面访问了哪个模型，要做到实时跟踪，如果有一些模型长时间没有被访问，应该予</tspan><tspan style="white-space:pre" y="54.1" x="8">以下线。</tspan></text></g><g transform="matrix(1,0,0,1,706,1628)" ed:parentid="110" id="178" ed:height="24.5" ed:width="512"><path stroke="#696969" fill="none" d="M0,24.5L512,24.5" stroke-linejoin="round"/><text class="st3"><tspan style="white-space:pre" y="16.1" x="8">逻辑模型：从用户的视角出发，屏蔽底层的模型设计的实现，面向用户提供逻辑模型。</tspan></text></g><g transform="matrix(1,0,0,1,706,1659)" ed:parentid="110" id="180" ed:height="43.5" ed:width="514"><path stroke="#696969" fill="none" d="M0,43.5L514,43.5" stroke-linejoin="round"/><text class="st3"><tspan style="white-space:pre" y="16.1" x="8">性能和稳定性：由于数据服务侵入到用户的访问链路，所以对服务的可用性和性能都有</tspan><tspan style="white-space:pre" y="35.1" x="8">很高的要求，数据服务必须是无状态的，可以做到横向扩展。</tspan></text></g><g transform="matrix(1,0,0,1,706,1709)" ed:parentid="110" id="182" ed:height="24.5" ed:width="482"><path stroke="#696969" fill="none" d="M0,24.5L482,24.5" stroke-linejoin="round"/><text class="st3"><tspan style="white-space:pre" y="16.1" x="8">OneService 体系的目标是提高数据的共享能力，让数据可以被用得好，用得爽。</tspan></text></g><g transform="matrix(1,0,0,1,706,1740)" ed:parentid="110" id="184" ed:height="24.5" ed:width="382"><path stroke="#696969" fill="none" d="M0,24.5L382,24.5" stroke-linejoin="round"/><text class="st3"><tspan style="white-space:pre" y="16.1" x="8">对数据中台的组织定位是：懂业务，能够深入业务，扎根业务。</tspan></text></g><g transform="matrix(1,0,0,1,706,1771)" ed:parentid="110" id="186" ed:height="157.5" ed:width="514"><path stroke="#696969" fill="none" d="M0,157.5L514,157.5" stroke-linejoin="round"/><text class="st3"><tspan style="white-space:pre" y="16.1" x="8">什么样的组织架构是适合数据中台建设的：数据产品部门：负责数据中台、数据产品的</tspan><tspan style="white-space:pre" y="35.1" x="8">体系规划、产品设计、规范制定、应用效果跟进，指标口径的定义和维护（有的部门是</tspan><tspan style="white-space:pre" y="54.1" x="8">由分析师管理）。</tspan><tspan style="white-space:pre" y="73.1" x="8">数据平台部门：负责研发支撑数据中台构建的产品，例如指标系统、元数据中心、数据</tspan><tspan style="white-space:pre" y="92.1" x="8">地图等。</tspan><tspan style="white-space:pre" y="111.1" x="8">数据开发团队：负责维护数据中台的公共数据层，满足数据产品制定的数据需求。</tspan><tspan style="white-space:pre" y="130.1" x="8">应用开发团队：负责开发数据应用产品，比如报表系统、电商中的供应链系统、高层看</tspan><tspan style="white-space:pre" y="149.1" x="8">板、经营分析。</tspan></text></g><g transform="matrix(1,0,0,1,702,1962)" ed:parentid="112" id="188" ed:height="81.5" ed:width="265"><path stroke="#696969" fill="none" d="M0,81.5L265,81.5" stroke-linejoin="round"/><text class="st3"><tspan style="white-space:pre" y="16.1" x="8">大家对于数据中台最多的期待是如下三点：</tspan><tspan style="white-space:pre" y="35.1" x="8">距离业务更近；</tspan><tspan style="white-space:pre" y="54.1" x="8">为企业提供直接的业务价值；</tspan><tspan style="white-space:pre" y="73.1" x="8">提供数据服务而不仅是报表。</tspan></text></g><g transform="matrix(1,0,0,1,702,2050)" ed:parentid="112" id="190" ed:height="62.5" ed:width="514"><path stroke="#696969" fill="none" d="M0,62.5L514,62.5" stroke-linejoin="round"/><text class="st3"><tspan style="white-space:pre" y="16.1" x="8">过去企业的数据系统距离用户和业务比较远：第一，数据系统只是技术支撑而不能直接</tspan><tspan style="white-space:pre" y="35.1" x="8">产生业务价值；第二，当业务人员需要在报表里修改一些内容的时候，得到的响应慢；</tspan><tspan style="white-space:pre" y="54.1" x="8">第三，过去在数据方面的投资，大量花费在数据采集、处理和建模部分</tspan></text></g><g transform="matrix(1,0,0,1,702,2119)" ed:parentid="112" id="192" ed:height="24.5" ed:width="278"><path stroke="#696969" fill="none" d="M0,24.5L278,24.5" stroke-linejoin="round"/><text class="st3"><tspan style="white-space:pre" y="16.1" x="8">数据中台的愿景是打造数据驱动的智能企业。</tspan></text></g><g transform="matrix(1,0,0,1,702,2150)" ed:parentid="112" id="194" ed:height="24.5" ed:width="369"><path stroke="#696969" fill="none" d="M0,24.5L369,24.5" stroke-linejoin="round"/><text class="st3"><tspan style="white-space:pre" y="16.1" x="8">数据中台的使命是赋能业务以数据智能的能力，让业务更智慧</tspan></text></g><g transform="matrix(1,0,0,1,702,2181)" ed:parentid="112" id="196" ed:height="24.5" ed:width="408"><path stroke="#696969" fill="none" d="M0,24.5L408,24.5" stroke-linejoin="round"/><text class="st3"><tspan style="white-space:pre" y="16.1" x="8">企业能够获得两个方面的收益：优化现有业务和实现新业务的转型。</tspan></text></g><g transform="matrix(1,0,0,1,702,2212)" ed:parentid="112" id="198" ed:height="43.5" ed:width="514"><path stroke="#696969" fill="none" d="M0,43.5L514,43.5" stroke-linejoin="round"/><text class="st3"><tspan style="white-space:pre" y="16.1" x="8">优化现有业务：第一，增加现有业务的收入；第二，促进生产效率；第三，降低运营成</tspan><tspan style="white-space:pre" y="35.1" x="8">本，提升运营的利润；第四，提升用户体验；第五，提升资产利用率</tspan></text></g><g transform="matrix(1,0,0,1,702,2262)" ed:parentid="112" id="200" ed:height="43.5" ed:width="514"><path stroke="#696969" fill="none" d="M0,43.5L514,43.5" stroke-linejoin="round"/><text class="st3"><tspan style="white-space:pre" y="16.1" x="8">业务创新和转型：第一，数字化产品创新；第二，数字化资产销售；第三，业务平台化</tspan><tspan style="white-space:pre" y="35.1" x="8">收益；第四，数字化生态业务。</tspan></text></g><g transform="matrix(1,0,0,1,702,2312)" ed:parentid="112" id="202" ed:height="119.5" ed:width="514"><path stroke="#696969" fill="none" d="M0,119.5L514,119.5" stroke-linejoin="round"/><text class="st3"><tspan style="white-space:pre" y="16.1" x="8">信息化解决的是企业内部的管理问题，让企业能够以一个有组织、有流程的方式高效地</tspan><tspan style="white-space:pre" y="35.1" x="8">运转起来。</tspan><tspan style="white-space:pre" y="54.1" x="8">数字化解决的是企业与外部的连接问题，让企业能够直接触达客户，并且建立线上的业</tspan><tspan style="white-space:pre" y="73.1" x="8">务。</tspan><tspan style="white-space:pre" y="92.1" x="8">数智化解决的是让企业成为智能企业，业务更智慧的问题，这个过程的核心生产要素就</tspan><tspan style="white-space:pre" y="111.1" x="8">是数据。</tspan></text></g><symbol id="plus"><path fill="url(#lg1)" d="M11,6C11,8.8,8.8,11,6,11C3.2,11,1,8.8,1,6C1,3.2,3.2,1,6,1C8.8,1,11,3.2,11,6z"/><path fill="none" stroke="#46a000" d="M11,6C11,8.8,8.8,11,6,11C3.2,11,1,8.8,1,6C1,3.2,3.2,1,6,1C8.8,1,11,3.2,11,6zM3,6L9,6M6,3L6,9" stroke-width="0.7"/></symbol><symbol id="minus"><path fill="url(#lg1)" d="M11,6C11,8.8,8.8,11,6,11C3.2,11,1,8.8,1,6C1,3.2,3.2,1,6,1C8.8,1,11,3.2,11,6z"/><path fill="none" stroke="#46a000" d="M11,6C11,8.8,8.8,11,6,11C3.2,11,1,8.8,1,6C1,3.2,3.2,1,6,1C8.8,1,11,3.2,11,6zM3,6L9,6" stroke-width="0.7"/></symbol><g transform="translate(240,1325)" ed:togtopicid="101"><use xlink:href="#minus"/></g><g transform="translate(728,536)" ed:togtopicid="106"><use xlink:href="#minus"/></g><g transform="translate(712,1101)" ed:togtopicid="108"><use xlink:href="#minus"/></g><g transform="translate(680,1603)" ed:togtopicid="110"><use xlink:href="#minus"/></g><g transform="translate(676,2190)" ed:togtopicid="112"><use xlink:href="#minus"/></g></svg>