<svg height="1009" width="892" xmlns="http://www.w3.org/2000/svg" xmlns:ed="https://www.edrawsoft.cn/xml/2017/SVGExtensions/" ed:hSpacing="30" ed:vSpacing="30" xmlns:xlink="http://www.w3.org/1999/xlink" viewBox="0 0 892 1009" xmlns:ev="http://www.w3.org/2001/xml-events" ed:name="Page-1" id="page100"><style type="text/css"><![CDATA[
g[ed\:togtopicid],g[ed\:hyperlink],g[ed\:comment],g[ed\:note] {cursor:pointer;}
g[id] {-moz-user-select: none;-ms-user-select: none;user-select: none;}
svg text::selection,svg tspan::selection{background-color: #4285f4;color: #ffffff;fill: #ffffff;}
.st2 {fill:#303030;font-family:微软雅黑;font-size:12pt}
.st3 {fill:#454545;font-family:微软雅黑;font-size:10pt}
.st1 {fill:#ffffff;font-family:微软雅黑;font-size:14pt}
]]></style><defs><linearGradient x2="0%" y2="100%" y1="0%" x1="0%" id="lg1"><stop offset="0" stop-color="#ffffff"/><stop offset="0.25" stop-color="#f0f5f0"/><stop offset="0.75" stop-color="#e1ebe1"/><stop offset="1" stop-color="#c8d7c8"/></linearGradient></defs><rect height="1009" y="0" width="892" fill="#ffffff" x="0"/><path transform="matrix(1,0,0,1,351,323)" stroke="#696969" stroke-linecap="round" fill="none" ed:parentid="101" d="M-71.2,152.8C1.7,67.2,-12.9,-181.3,130.3,-181.3" ed:tosuperid="102" stroke-linejoin="round" id="103"/><path transform="matrix(1,0,0,1,351,414)" stroke="#696969" stroke-linecap="round" fill="none" ed:parentid="101" d="M-54.3,62C6.5,11,34.9,-90.5,130.3,-90.5" ed:tosuperid="104" stroke-linejoin="round" id="105"/><path transform="matrix(1,0,0,1,351,453)" stroke="#696969" stroke-linecap="round" fill="none" ed:parentid="101" d="M-30.9,22.4C20.9,-7.7,61.2,-50.9,130.3,-50.9" ed:tosuperid="106" stroke-linejoin="round" id="107"/><path transform="matrix(1,0,0,1,351,501)" stroke="#696969" stroke-linecap="round" fill="none" ed:parentid="101" d="M67.3,-2.3C88.6,-3,109.4,-3.5,130.3,-3.5" ed:tosuperid="108" stroke-linejoin="round" id="109"/><path transform="matrix(1,0,0,1,351,553)" stroke="#696969" stroke-linecap="round" fill="none" ed:parentid="101" d="M-28.5,-20C22.5,8.6,63.1,48.5,130.3,48.5" ed:tosuperid="110" stroke-linejoin="round" id="111"/><path transform="matrix(1,0,0,1,351,620)" stroke="#696969" stroke-linecap="round" fill="none" ed:parentid="101" d="M-61.6,-87.5C3.1,-25.5,20.4,116,130.3,116" ed:tosuperid="112" stroke-linejoin="round" id="113"/><path transform="matrix(1,0,0,1,351,688)" stroke="#696969" stroke-linecap="round" fill="none" ed:parentid="101" d="M-71.5,-155C1.7,-68.8,-14,183.5,130.3,183.5" ed:tosuperid="114" stroke-linejoin="round" id="115"/><path transform="matrix(1,0,0,1,351,732)" stroke="#696969" stroke-linecap="round" fill="none" ed:parentid="101" d="M-74.9,-199.3C3.5,-99.5,-34,227.8,130.3,227.8" ed:tosuperid="116" stroke-linejoin="round" id="117"/><path transform="matrix(1,0,0,1,652,94)" stroke="#696969" stroke-linecap="round" fill="none" ed:parentid="102" d="M-13.5,48.1C5.3,48.1,-13.2,-48.1,13.5,-48.1" ed:tosuperid="118" stroke-linejoin="round" id="119"/><path transform="matrix(1,0,0,1,652,109)" stroke="#696969" stroke-linecap="round" fill="none" ed:parentid="102" d="M-13.5,32.6C3.9,32.6,-10,-32.6,13.5,-32.6" ed:tosuperid="120" stroke-linejoin="round" id="121"/><path transform="matrix(1,0,0,1,652,125)" stroke="#696969" stroke-linecap="round" fill="none" ed:parentid="102" d="M-13.5,17.1C1.2,17.1,-3.6,-17.1,13.5,-17.1" ed:tosuperid="122" stroke-linejoin="round" id="123"/><path transform="matrix(1,0,0,1,652,140)" stroke="#696969" stroke-linecap="round" fill="none" ed:parentid="102" d="M-13.5,1.6C-2.3,1.6,4.5,-1.6,13.5,-1.6" ed:tosuperid="124" stroke-linejoin="round" id="125"/><path transform="matrix(1,0,0,1,652,156)" stroke="#696969" stroke-linecap="round" fill="none" ed:parentid="102" d="M-13.5,-13.9C0.5,-13.9,-2,13.9,13.5,13.9" ed:tosuperid="126" stroke-linejoin="round" id="127"/><path transform="matrix(1,0,0,1,652,171)" stroke="#696969" stroke-linecap="round" fill="none" ed:parentid="102" d="M-13.5,-29.4C3.4,-29.4,-8.9,29.4,13.5,29.4" ed:tosuperid="128" stroke-linejoin="round" id="129"/><path transform="matrix(1,0,0,1,652,187)" stroke="#696969" stroke-linecap="round" fill="none" ed:parentid="102" d="M-13.5,-44.9C5.1,-44.9,-12.8,44.9,13.5,44.9" ed:tosuperid="130" stroke-linejoin="round" id="131"/><path transform="matrix(1,0,0,1,652,202)" stroke="#696969" stroke-linecap="round" fill="none" ed:parentid="102" d="M-13.5,-60.4C5.4,-60.4,-13.5,60.4,13.5,60.4" ed:tosuperid="132" stroke-linejoin="round" id="133"/><path transform="matrix(1,0,0,1,656,322)" stroke="#696969" stroke-linecap="round" fill="none" ed:parentid="104" d="M-13.5,1.6C-2.3,1.6,4.5,-1.6,13.5,-1.6" ed:tosuperid="134" stroke-linejoin="round" id="135"/><path transform="matrix(1,0,0,1,656,337)" stroke="#696969" stroke-linecap="round" fill="none" ed:parentid="104" d="M-13.5,-13.9C0.5,-13.9,-2,13.9,13.5,13.9" ed:tosuperid="136" stroke-linejoin="round" id="137"/><path transform="matrix(1,0,0,1,611,409)" stroke="#696969" stroke-linecap="round" fill="none" ed:parentid="106" d="M-13.5,-6.1C-1.3,-6.1,2.1,6.1,13.5,6.1" ed:tosuperid="138" stroke-linejoin="round" id="139"/><path transform="matrix(1,0,0,1,645,488)" stroke="#696969" stroke-linecap="round" fill="none" ed:parentid="108" d="M-13.5,9.4C-0.5,9.4,0.3,-9.4,13.5,-9.4" ed:tosuperid="140" stroke-linejoin="round" id="141"/><path transform="matrix(1,0,0,1,645,503)" stroke="#696969" stroke-linecap="round" fill="none" ed:parentid="108" d="M-13.5,-6.1C-1.3,-6.1,2.1,6.1,13.5,6.1" ed:tosuperid="142" stroke-linejoin="round" id="143"/><path transform="matrix(1,0,0,1,645,519)" stroke="#696969" stroke-linecap="round" fill="none" ed:parentid="108" d="M-13.5,-21.6C2.1,-21.6,-5.7,21.6,13.5,21.6" ed:tosuperid="144" stroke-linejoin="round" id="145"/><path transform="matrix(1,0,0,1,614,600)" stroke="#696969" stroke-linecap="round" fill="none" ed:parentid="110" d="M-13.5,1.6C-2.3,1.6,4.5,-1.6,13.5,-1.6" ed:tosuperid="146" stroke-linejoin="round" id="147"/><path transform="matrix(1,0,0,1,614,615)" stroke="#696969" stroke-linecap="round" fill="none" ed:parentid="110" d="M-13.5,-13.9C0.5,-13.9,-2,13.9,13.5,13.9" ed:tosuperid="148" stroke-linejoin="round" id="149"/><path transform="matrix(1,0,0,1,614,711)" stroke="#696969" stroke-linecap="round" fill="none" ed:parentid="112" d="M-13.5,24.9C2.7,24.9,-7.1,-24.9,13.5,-24.9" ed:tosuperid="150" stroke-linejoin="round" id="151"/><path transform="matrix(1,0,0,1,614,727)" stroke="#696969" stroke-linecap="round" fill="none" ed:parentid="112" d="M-13.5,9.4C-0.5,9.4,0.3,-9.4,13.5,-9.4" ed:tosuperid="152" stroke-linejoin="round" id="153"/><path transform="matrix(1,0,0,1,614,742)" stroke="#696969" stroke-linecap="round" fill="none" ed:parentid="112" d="M-13.5,-6.1C-1.3,-6.1,2.1,6.1,13.5,6.1" ed:tosuperid="154" stroke-linejoin="round" id="155"/><path transform="matrix(1,0,0,1,614,758)" stroke="#696969" stroke-linecap="round" fill="none" ed:parentid="112" d="M-13.5,-21.6C2.1,-21.6,-5.7,21.6,13.5,21.6" ed:tosuperid="156" stroke-linejoin="round" id="157"/><path transform="matrix(1,0,0,1,614,773)" stroke="#696969" stroke-linecap="round" fill="none" ed:parentid="112" d="M-13.5,-37.1C4.4,-37.1,-11.3,37.1,13.5,37.1" ed:tosuperid="158" stroke-linejoin="round" id="159"/><path transform="matrix(1,0,0,1,614,870)" stroke="#696969" stroke-linecap="round" fill="none" ed:parentid="114" d="M-13.5,1.6C-2.3,1.6,4.5,-1.6,13.5,-1.6" ed:tosuperid="160" stroke-linejoin="round" id="161"/><path transform="matrix(1,0,0,1,614,885)" stroke="#696969" stroke-linecap="round" fill="none" ed:parentid="114" d="M-13.5,-13.9C0.5,-13.9,-2,13.9,13.5,13.9" ed:tosuperid="162" stroke-linejoin="round" id="163"/><path transform="matrix(1,0,0,1,646,958)" stroke="#696969" stroke-linecap="round" fill="none" ed:parentid="116" d="M-13.5,1.6C-2.3,1.6,4.5,-1.6,13.5,-1.6" ed:tosuperid="164" stroke-linejoin="round" id="165"/><path transform="matrix(1,0,0,1,646,974)" stroke="#696969" stroke-linecap="round" fill="none" ed:parentid="116" d="M-13.5,-13.9C0.5,-13.9,-2,13.9,13.5,13.9" ed:tosuperid="166" stroke-linejoin="round" id="167"/><g transform="matrix(1,0,0,1,23,476)" ed:layout="rightmap" ed:topictype="mainidea" id="101" ed:height="57" ed:width="395"><path fill="#435fbc" stroke="#435fbc" d="M4,0L391,0C393.7,0,395,1.3,395,4L395,53C395,55.7,393.7,57,391,57L4,57C1.3,57,0,55.7,0,53L0,4C0,1.3,1.3,0,4,0z" stroke-linejoin="round" stroke-width="3"/><text class="st1"><tspan style="white-space:pre" y="34.5" x="21">《零基础Python自动化办公（漫画版）》</tspan></text></g><g transform="matrix(1,0,0,1,481,123)" ed:parentid="101" id="102" ed:height="37" ed:width="157"><path fill="#ebecf3" stroke="#ebecf3" d="M4,0L153,0C155.7,0,157,1.3,157,4L157,33C157,35.7,155.7,37,153,37L4,37C1.3,37,0,35.7,0,33L0,4C0,1.3,1.3,0,4,0z" stroke-linejoin="round"/><text class="st2"><tspan style="white-space:pre" y="23.4" x="18">Excel做表自动化</tspan></text></g><g transform="matrix(1,0,0,1,481,305)" ed:parentid="101" id="104" ed:height="37" ed:width="161"><path fill="#ebecf3" stroke="#ebecf3" d="M4,0L157,0C159.7,0,161,1.3,161,4L161,33C161,35.7,159.7,37,157,37L4,37C1.3,37,0,35.7,0,33L0,4C0,1.3,1.3,0,4,0z" stroke-linejoin="round"/><text class="st2"><tspan style="white-space:pre" y="23.4" x="18">Word文档自动化</tspan></text></g><g transform="matrix(1,0,0,1,481,384)" ed:parentid="101" id="106" ed:height="37" ed:width="116"><path fill="#ebecf3" stroke="#ebecf3" d="M4,0L112,0C114.7,0,116,1.3,116,4L116,33C116,35.7,114.7,37,112,37L4,37C1.3,37,0,35.7,0,33L0,4C0,1.3,1.3,0,4,0z" stroke-linejoin="round"/><text class="st2"><tspan style="white-space:pre" y="23.4" x="18">PPT自动化</tspan></text></g><g transform="matrix(1,0,0,1,481,479)" ed:parentid="101" id="108" ed:height="37" ed:width="150"><path fill="#ebecf3" stroke="#ebecf3" d="M4,0L146,0C148.7,0,150,1.3,150,4L150,33C150,35.7,148.7,37,146,37L4,37C1.3,37,0,35.7,0,33L0,4C0,1.3,1.3,0,4,0z" stroke-linejoin="round"/><text class="st2"><tspan style="white-space:pre" y="23.4" x="18">PDF文档自动化</tspan></text></g><g transform="matrix(1,0,0,1,481,583)" ed:parentid="101" id="110" ed:height="37" ed:width="119"><path fill="#ebecf3" stroke="#ebecf3" d="M4,0L115,0C117.7,0,119,1.3,119,4L119,33C119,35.7,117.7,37,115,37L4,37C1.3,37,0,35.7,0,33L0,4C0,1.3,1.3,0,4,0z" stroke-linejoin="round"/><text class="st2"><tspan style="white-space:pre" y="23.4" x="18">文件自动化</tspan></text></g><g transform="matrix(1,0,0,1,481,718)" ed:parentid="101" id="112" ed:height="37" ed:width="119"><path fill="#ebecf3" stroke="#ebecf3" d="M4,0L115,0C117.7,0,119,1.3,119,4L119,33C119,35.7,117.7,37,115,37L4,37C1.3,37,0,35.7,0,33L0,4C0,1.3,1.3,0,4,0z" stroke-linejoin="round"/><text class="st2"><tspan style="white-space:pre" y="23.4" x="18">网站自动化</tspan></text></g><g transform="matrix(1,0,0,1,481,853)" ed:parentid="101" id="114" ed:height="37" ed:width="119"><path fill="#ebecf3" stroke="#ebecf3" d="M4,0L115,0C117.7,0,119,1.3,119,4L119,33C119,35.7,117.7,37,115,37L4,37C1.3,37,0,35.7,0,33L0,4C0,1.3,1.3,0,4,0z" stroke-linejoin="round"/><text class="st2"><tspan style="white-space:pre" y="23.4" x="18">邮件自动化</tspan></text></g><g transform="matrix(1,0,0,1,481,941)" ed:parentid="101" id="116" ed:height="37" ed:width="151"><path fill="#ebecf3" stroke="#ebecf3" d="M4,0L147,0C149.7,0,151,1.3,151,4L151,33C151,35.7,149.7,37,147,37L4,37C1.3,37,0,35.7,0,33L0,4C0,1.3,1.3,0,4,0z" stroke-linejoin="round"/><text class="st2"><tspan style="white-space:pre" y="23.4" x="18">桌面软件自动化</tspan></text></g><g transform="matrix(1,0,0,1,665,21)" ed:parentid="102" id="118" ed:height="24.5" ed:width="150"><path stroke="#696969" fill="none" d="M0,24.5L150,24.5" stroke-linejoin="round"/><text class="st3"><tspan style="white-space:pre" y="16.1" x="8">xlrd读取Excel文件数据</tspan></text></g><g transform="matrix(1,0,0,1,665,52)" ed:parentid="102" id="120" ed:height="24.5" ed:width="165"><path stroke="#696969" fill="none" d="M0,24.5L165,24.5" stroke-linejoin="round"/><text class="st3"><tspan style="white-space:pre" y="16.1" x="8">xlwt将数据写入Excel文件</tspan></text></g><g transform="matrix(1,0,0,1,665,83)" ed:parentid="102" id="122" ed:height="24.5" ed:width="110"><path stroke="#696969" fill="none" d="M0,24.5L110,24.5" stroke-linejoin="round"/><text class="st3"><tspan style="white-space:pre" y="16.1" x="8">xlutils复制Excel</tspan></text></g><g transform="matrix(1,0,0,1,665,114)" ed:parentid="102" id="124" ed:height="24.5" ed:width="152"><path stroke="#696969" fill="none" d="M0,24.5L152,24.5" stroke-linejoin="round"/><text class="st3"><tspan style="white-space:pre" y="16.1" x="8">使用openpyxl写入数据</tspan></text></g><g transform="matrix(1,0,0,1,665,145)" ed:parentid="102" id="126" ed:height="24.5" ed:width="191"><path stroke="#696969" fill="none" d="M0,24.5L191,24.5" stroke-linejoin="round"/><text class="st3"><tspan style="white-space:pre" y="16.1" x="8">使用openpyxl读取大批量数据</tspan></text></g><g transform="matrix(1,0,0,1,665,176)" ed:parentid="102" id="128" ed:height="24.5" ed:width="171"><path stroke="#696969" fill="none" d="M0,24.5L171,24.5" stroke-linejoin="round"/><text class="st3"><tspan style="white-space:pre" y="16.1" x="8">pandas读取Excel中的数据</tspan></text></g><g transform="matrix(1,0,0,1,665,207)" ed:parentid="102" id="130" ed:height="24.5" ed:width="145"><path stroke="#696969" fill="none" d="M0,24.5L145,24.5" stroke-linejoin="round"/><text class="st3"><tspan style="white-space:pre" y="16.1" x="8">pandas处理excel数据</tspan></text></g><g transform="matrix(1,0,0,1,665,238)" ed:parentid="102" id="132" ed:height="24.5" ed:width="114"><path stroke="#696969" fill="none" d="M0,24.5L114,24.5" stroke-linejoin="round"/><text class="st3"><tspan style="white-space:pre" y="16.1" x="8">pandas绘制图表</tspan></text></g><g transform="matrix(1,0,0,1,669,296)" ed:parentid="104" id="134" ed:height="24.5" ed:width="180"><path stroke="#696969" fill="none" d="M0,24.5L180,24.5" stroke-linejoin="round"/><text class="st3"><tspan style="white-space:pre" y="16.1" x="8">使用Python-docx读取docx</tspan></text></g><g transform="matrix(1,0,0,1,669,327)" ed:parentid="104" id="136" ed:height="24.5" ed:width="196"><path stroke="#696969" fill="none" d="M0,24.5L196,24.5" stroke-linejoin="round"/><text class="st3"><tspan style="white-space:pre" y="16.1" x="8">使用docx-mailmerge替换模版</tspan></text></g><g transform="matrix(1,0,0,1,624,390)" ed:parentid="106" id="138" ed:height="24.5" ed:width="122"><path stroke="#696969" fill="none" d="M0,24.5L122,24.5" stroke-linejoin="round"/><text class="st3"><tspan style="white-space:pre" y="16.1" x="8">安装Python-pptx</tspan></text></g><g transform="matrix(1,0,0,1,658,454)" ed:parentid="108" id="140" ed:height="24.5" ed:width="141"><path stroke="#696969" fill="none" d="M0,24.5L141,24.5" stroke-linejoin="round"/><text class="st3"><tspan style="white-space:pre" y="16.1" x="8">pdfminer3k了解一下</tspan></text></g><g transform="matrix(1,0,0,1,658,485)" ed:parentid="108" id="142" ed:height="24.5" ed:width="178"><path stroke="#696969" fill="none" d="M0,24.5L178,24.5" stroke-linejoin="round"/><text class="st3"><tspan style="white-space:pre" y="16.1" x="8">使用Pypdf2拆分与合并PDF</tspan></text></g><g transform="matrix(1,0,0,1,658,516)" ed:parentid="108" id="144" ed:height="24.5" ed:width="213"><path stroke="#696969" fill="none" d="M0,24.5L213,24.5" stroke-linejoin="round"/><text class="st3"><tspan style="white-space:pre" y="16.1" x="8">wkhtmltopdf将网站内容转为PDF</tspan></text></g><g transform="matrix(1,0,0,1,627,574)" ed:parentid="110" id="146" ed:height="24.5" ed:width="71"><path stroke="#696969" fill="none" d="M0,24.5L71,24.5" stroke-linejoin="round"/><text class="st3"><tspan style="white-space:pre" y="16.1" x="8">使用os库</tspan></text></g><g transform="matrix(1,0,0,1,627,605)" ed:parentid="110" id="148" ed:height="24.5" ed:width="103"><path stroke="#696969" fill="none" d="M0,24.5L103,24.5" stroke-linejoin="round"/><text class="st3"><tspan style="white-space:pre" y="16.1" x="8">使用shutil模块</tspan></text></g><g transform="matrix(1,0,0,1,627,662)" ed:parentid="112" id="150" ed:height="24.5" ed:width="96"><path stroke="#696969" fill="none" d="M0,24.5L96,24.5" stroke-linejoin="round"/><text class="st3"><tspan style="white-space:pre" y="16.1" x="8">requests使用</tspan></text></g><g transform="matrix(1,0,0,1,627,693)" ed:parentid="112" id="152" ed:height="24.5" ed:width="130"><path stroke="#696969" fill="none" d="M0,24.5L130,24.5" stroke-linejoin="round"/><text class="st3"><tspan style="white-space:pre" y="16.1" x="8">BeautifulSoup使用</tspan></text></g><g transform="matrix(1,0,0,1,627,724)" ed:parentid="112" id="154" ed:height="24.5" ed:width="80"><path stroke="#696969" fill="none" d="M0,24.5L80,24.5" stroke-linejoin="round"/><text class="st3"><tspan style="white-space:pre" y="16.1" x="8">Xpath使用</tspan></text></g><g transform="matrix(1,0,0,1,627,755)" ed:parentid="112" id="156" ed:height="24.5" ed:width="74"><path stroke="#696969" fill="none" d="M0,24.5L74,24.5" stroke-linejoin="round"/><text class="st3"><tspan style="white-space:pre" y="16.1" x="8">Selenium</tspan></text></g><g transform="matrix(1,0,0,1,627,786)" ed:parentid="112" id="158" ed:height="24.5" ed:width="102"><path stroke="#696969" fill="none" d="M0,24.5L102,24.5" stroke-linejoin="round"/><text class="st3"><tspan style="white-space:pre" y="16.1" x="8">chromeDriver</tspan></text></g><g transform="matrix(1,0,0,1,627,844)" ed:parentid="114" id="160" ed:height="24.5" ed:width="169"><path stroke="#696969" fill="none" d="M0,24.5L169,24.5" stroke-linejoin="round"/><text class="st3"><tspan style="white-space:pre" y="16.1" x="8">使用yagamil完成邮件发送</tspan></text></g><g transform="matrix(1,0,0,1,627,875)" ed:parentid="114" id="162" ed:height="24.5" ed:width="156"><path stroke="#696969" fill="none" d="M0,24.5L156,24.5" stroke-linejoin="round"/><text class="st3"><tspan style="white-space:pre" y="16.1" x="8">使用Twilio发送免费短信</tspan></text></g><g transform="matrix(1,0,0,1,659,932)" ed:parentid="116" id="164" ed:height="24.5" ed:width="123"><path stroke="#696969" fill="none" d="M0,24.5L123,24.5" stroke-linejoin="round"/><text class="st3"><tspan style="white-space:pre" y="16.1" x="8">windows计划任务</tspan></text></g><g transform="matrix(1,0,0,1,659,963)" ed:parentid="116" id="166" ed:height="24.5" ed:width="158"><path stroke="#696969" fill="none" d="M0,24.5L158,24.5" stroke-linejoin="round"/><text class="st3"><tspan style="white-space:pre" y="16.1" x="8">pyautogui控制鼠标键盘</tspan></text></g><symbol id="plus"><path fill="url(#lg1)" d="M11,6C11,8.8,8.8,11,6,11C3.2,11,1,8.8,1,6C1,3.2,3.2,1,6,1C8.8,1,11,3.2,11,6z"/><path fill="none" stroke="#46a000" d="M11,6C11,8.8,8.8,11,6,11C3.2,11,1,8.8,1,6C1,3.2,3.2,1,6,1C8.8,1,11,3.2,11,6zM3,6L9,6M6,3L6,9" stroke-width="0.7"/></symbol><symbol id="minus"><path fill="url(#lg1)" d="M11,6C11,8.8,8.8,11,6,11C3.2,11,1,8.8,1,6C1,3.2,3.2,1,6,1C8.8,1,11,3.2,11,6z"/><path fill="none" stroke="#46a000" d="M11,6C11,8.8,8.8,11,6,11C3.2,11,1,8.8,1,6C1,3.2,3.2,1,6,1C8.8,1,11,3.2,11,6zM3,6L9,6" stroke-width="0.7"/></symbol><g transform="translate(419,498)" ed:togtopicid="101"><use xlink:href="#minus"/></g><g transform="translate(639,136)" ed:togtopicid="102"><use xlink:href="#minus"/></g><g transform="translate(643,317)" ed:togtopicid="104"><use xlink:href="#minus"/></g><g transform="translate(598,397)" ed:togtopicid="106"><use xlink:href="#minus"/></g><g transform="translate(632,491)" ed:togtopicid="108"><use xlink:href="#minus"/></g><g transform="translate(601,595)" ed:togtopicid="110"><use xlink:href="#minus"/></g><g transform="translate(601,730)" ed:togtopicid="112"><use xlink:href="#minus"/></g><g transform="translate(601,865)" ed:togtopicid="114"><use xlink:href="#minus"/></g><g transform="translate(633,954)" ed:togtopicid="116"><use xlink:href="#minus"/></g></svg>