<svg width="911" xmlns:ed="https://www.edrawsoft.cn/xml/2017/SVGExtensions/" ed:vSpacing="30" id="page100" xmlns:xlink="http://www.w3.org/1999/xlink" ed:hSpacing="30" height="1034" ed:name="页面-1" xmlns:ev="http://www.w3.org/2001/xml-events" viewBox="0 0 911 1034" xmlns="http://www.w3.org/2000/svg"><style type="text/css"><![CDATA[
g[ed\:togtopicid],g[ed\:hyperlink],g[ed\:comment],g[ed\:note] {cursor:pointer;}
g[id] {-moz-user-select: none;-ms-user-select: none;user-select: none;}
svg text::selection,svg tspan::selection{background-color: #4285f4;color: #ffffff;fill: #ffffff;}
.st8 {fill:#303030;font-family:Apple LiSung Light;font-size:11.25pt}
.st9 {fill:#454545;font-family:Apple LiSung Light;font-size:9pt}
.st7 {fill:#ffffff;font-family:Apple LiSung Light;font-size:14.25pt}
]]></style><defs/><rect width="911" x="0" height="1034" y="0" fill="#ffffff"/><path d="M-38.9,146.6C1,63.1,-30.6,-175.1,76,-175.1" id="103" ed:tosuperid="102" transform="matrix(1,0,0,1,188,339)" stroke-linejoin="round" stroke="#696969" ed:parentid="101" stroke-linecap="round" fill="none"/><path d="M13,-4.3C32.4,-12.7,51.7,-20.1,76,-20.1" id="105" ed:tosuperid="104" transform="matrix(1,0,0,1,188,494)" stroke-linejoin="round" stroke="#696969" ed:parentid="101" stroke-linecap="round" fill="none"/><path d="M-35.7,-99.6C-0.2,-32.8,-12,128.1,76,128.1" id="107" ed:tosuperid="106" transform="matrix(1,0,0,1,188,643)" stroke-linejoin="round" stroke="#696969" ed:parentid="101" stroke-linecap="round" fill="none"/><path d="M-41.2,-200.6C3.6,-100.5,-46.2,229.1,76,229.1" id="109" ed:tosuperid="108" transform="matrix(1,0,0,1,188,744)" stroke-linejoin="round" stroke="#696969" ed:parentid="101" stroke-linecap="round" fill="none"/><path d="M-13.5,62.9C5.4,62.9,-13.5,-62.9,13.5,-62.9" id="111" ed:tosuperid="110" transform="matrix(1,0,0,1,347,101)" stroke-linejoin="round" stroke="#696969" ed:parentid="102" stroke-linecap="round" fill="none"/><path d="M-13.5,49.4C5.3,49.4,-13.3,-49.4,13.5,-49.4" id="113" ed:tosuperid="112" transform="matrix(1,0,0,1,347,115)" stroke-linejoin="round" stroke="#696969" ed:parentid="102" stroke-linecap="round" fill="none"/><path d="M-13.5,35.9C4.3,35.9,-10.9,-35.9,13.5,-35.9" id="115" ed:tosuperid="114" transform="matrix(1,0,0,1,347,128)" stroke-linejoin="round" stroke="#696969" ed:parentid="102" stroke-linecap="round" fill="none"/><path d="M-13.5,22.4C2.2,22.4,-6.1,-22.4,13.5,-22.4" id="117" ed:tosuperid="116" transform="matrix(1,0,0,1,347,142)" stroke-linejoin="round" stroke="#696969" ed:parentid="102" stroke-linecap="round" fill="none"/><path d="M-13.5,8.4C-0.7,8.4,0.8,-8.4,13.5,-8.4" id="119" ed:tosuperid="118" transform="matrix(1,0,0,1,347,156)" stroke-linejoin="round" stroke="#696969" ed:parentid="102" stroke-linecap="round" fill="none"/><path d="M-13.5,-4.6C-1.6,-4.6,2.9,4.6,13.5,4.6" id="121" ed:tosuperid="120" transform="matrix(1,0,0,1,347,169)" stroke-linejoin="round" stroke="#696969" ed:parentid="102" stroke-linecap="round" fill="none"/><path d="M-13.5,-18.6C1.5,-18.6,-4.3,18.6,13.5,18.6" id="123" ed:tosuperid="122" transform="matrix(1,0,0,1,347,183)" stroke-linejoin="round" stroke="#696969" ed:parentid="102" stroke-linecap="round" fill="none"/><path d="M-13.5,-45.1C5.1,-45.1,-12.9,45.1,13.5,45.1" id="125" ed:tosuperid="124" transform="matrix(1,0,0,1,347,209)" stroke-linejoin="round" stroke="#696969" ed:parentid="102" stroke-linecap="round" fill="none"/><path d="M-13.5,-58.6C5.4,-58.6,-13.5,58.6,13.5,58.6" id="127" ed:tosuperid="126" transform="matrix(1,0,0,1,347,223)" stroke-linejoin="round" stroke="#696969" ed:parentid="102" stroke-linecap="round" fill="none"/><path d="M-13.5,55.6C5.4,55.6,-13.5,-55.6,13.5,-55.6" id="133" ed:tosuperid="132" transform="matrix(1,0,0,1,347,419)" stroke-linejoin="round" stroke="#696969" ed:parentid="104" stroke-linecap="round" fill="none"/><path d="M-13.5,42.1C4.9,42.1,-12.4,-42.1,13.5,-42.1" id="135" ed:tosuperid="134" transform="matrix(1,0,0,1,347,432)" stroke-linejoin="round" stroke="#696969" ed:parentid="104" stroke-linecap="round" fill="none"/><path d="M-13.5,1.6C-2.3,1.6,4.5,-1.6,13.5,-1.6" id="139" ed:tosuperid="138" transform="matrix(1,0,0,1,347,473)" stroke-linejoin="round" stroke="#696969" ed:parentid="104" stroke-linecap="round" fill="none"/><path d="M-13.5,28.6C3.3,28.6,-8.6,-28.6,13.5,-28.6" id="147" ed:tosuperid="146" transform="matrix(1,0,0,1,347,446)" stroke-linejoin="round" stroke="#696969" ed:parentid="104" stroke-linecap="round" fill="none"/><path d="M-13.5,28.6C3.3,28.6,-8.6,-28.6,13.5,-28.6" id="159" ed:tosuperid="158" transform="matrix(1,0,0,1,347,742)" stroke-linejoin="round" stroke="#696969" ed:parentid="106" stroke-linecap="round" fill="none"/><path d="M-13.5,15.1C0.7,15.1,-2.6,-15.1,13.5,-15.1" id="161" ed:tosuperid="160" transform="matrix(1,0,0,1,347,756)" stroke-linejoin="round" stroke="#696969" ed:parentid="106" stroke-linecap="round" fill="none"/><path d="M-13.5,-11.9C0,-11.9,-1,11.9,13.5,11.9" id="165" ed:tosuperid="164" transform="matrix(1,0,0,1,347,783)" stroke-linejoin="round" stroke="#696969" ed:parentid="106" stroke-linecap="round" fill="none"/><path d="M-13.5,-25.4C2.8,-25.4,-7.3,25.4,13.5,25.4" id="169" ed:tosuperid="168" transform="matrix(1,0,0,1,347,796)" stroke-linejoin="round" stroke="#696969" ed:parentid="106" stroke-linecap="round" fill="none"/><path d="M-13.5,-65.9C5.4,-65.9,-13.5,65.9,13.5,65.9" id="171" ed:tosuperid="170" transform="matrix(1,0,0,1,347,837)" stroke-linejoin="round" stroke="#696969" ed:parentid="106" stroke-linecap="round" fill="none"/><path d="M-13.5,-5.1C-1.5,-5.1,2.6,5.1,13.5,5.1" id="175" ed:tosuperid="174" transform="matrix(1,0,0,1,347,978)" stroke-linejoin="round" stroke="#696969" ed:parentid="108" stroke-linecap="round" fill="none"/><path d="M-13.5,-18.6C1.5,-18.6,-4.3,18.6,13.5,18.6" id="177" ed:tosuperid="176" transform="matrix(1,0,0,1,347,991)" stroke-linejoin="round" stroke="#696969" ed:parentid="108" stroke-linecap="round" fill="none"/><path d="M-13.5,8.4C-0.7,8.4,0.8,-8.4,13.5,-8.4" id="179" ed:tosuperid="178" transform="matrix(1,0,0,1,347,964)" stroke-linejoin="round" stroke="#696969" ed:parentid="108" stroke-linecap="round" fill="none"/><path d="M-13.5,0C-2.7,0,5.4,0,13.5,0" id="181" ed:tosuperid="180" transform="matrix(1,0,0,1,428,606)" stroke-linejoin="round" stroke="#696969" ed:parentid="391" stroke-linecap="round" fill="none"/><path d="M-13.5,1.6C-2.3,1.6,4.5,-1.6,13.5,-1.6" id="183" ed:tosuperid="182" transform="matrix(1,0,0,1,347,769)" stroke-linejoin="round" stroke="#696969" ed:parentid="106" stroke-linecap="round" fill="none"/><path d="M-13.5,-38.9C4.6,-38.9,-11.7,38.9,13.5,38.9" id="185" ed:tosuperid="184" transform="matrix(1,0,0,1,347,810)" stroke-linejoin="round" stroke="#696969" ed:parentid="106" stroke-linecap="round" fill="none"/><path d="M-13.5,-52.4C5.4,-52.4,-13.5,52.4,13.5,52.4" id="187" ed:tosuperid="186" transform="matrix(1,0,0,1,347,823)" stroke-linejoin="round" stroke="#696969" ed:parentid="106" stroke-linecap="round" fill="none"/><path d="M-13.5,-31.6C3.7,-31.6,-9.6,31.6,13.5,31.6" id="189" ed:tosuperid="188" transform="matrix(1,0,0,1,347,196)" stroke-linejoin="round" stroke="#696969" ed:parentid="102" stroke-linecap="round" fill="none"/><path d="M-13.5,-0.5C-2.7,-0.5,5.4,0.5,13.5,0.5" id="191" ed:tosuperid="190" transform="matrix(1,0,0,1,432,39)" stroke-linejoin="round" stroke="#696969" ed:parentid="110" stroke-linecap="round" fill="none"/><path d="M-13.5,-0.5C-2.7,-0.5,5.4,0.5,13.5,0.5" id="197" ed:tosuperid="196" transform="matrix(1,0,0,1,420,66)" stroke-linejoin="round" stroke="#696969" ed:parentid="112" stroke-linecap="round" fill="none"/><path d="M-13.5,-0.5C-2.7,-0.5,5.4,0.5,13.5,0.5" id="217" ed:tosuperid="216" transform="matrix(1,0,0,1,448,93)" stroke-linejoin="round" stroke="#696969" ed:parentid="114" stroke-linecap="round" fill="none"/><path d="M-13.5,-0.5C-2.7,-0.5,5.4,0.5,13.5,0.5" id="229" ed:tosuperid="228" transform="matrix(1,0,0,1,412,120)" stroke-linejoin="round" stroke="#696969" ed:parentid="116" stroke-linecap="round" fill="none"/><path d="M-13.5,0C-2.7,0,5.4,0,13.5,0" id="241" ed:tosuperid="240" transform="matrix(1,0,0,1,416,148)" stroke-linejoin="round" stroke="#696969" ed:parentid="118" stroke-linecap="round" fill="none"/><path d="M-13.5,-0.5C-2.7,-0.5,5.4,0.5,13.5,0.5" id="257" ed:tosuperid="256" transform="matrix(1,0,0,1,439,174)" stroke-linejoin="round" stroke="#696969" ed:parentid="120" stroke-linecap="round" fill="none"/><path d="M-13.5,0C-2.7,0,5.4,0,13.5,0" id="269" ed:tosuperid="268" transform="matrix(1,0,0,1,428,202)" stroke-linejoin="round" stroke="#696969" ed:parentid="122" stroke-linecap="round" fill="none"/><path d="M-13.5,-0.5C-2.7,-0.5,5.4,0.5,13.5,0.5" id="287" ed:tosuperid="286" transform="matrix(1,0,0,1,430,228)" stroke-linejoin="round" stroke="#696969" ed:parentid="188" stroke-linecap="round" fill="none"/><path d="M-13.5,-0.5C-2.7,-0.5,5.4,0.5,13.5,0.5" id="293" ed:tosuperid="292" transform="matrix(1,0,0,1,427,255)" stroke-linejoin="round" stroke="#696969" ed:parentid="124" stroke-linecap="round" fill="none"/><path d="M-13.5,-0.5C-2.7,-0.5,5.4,0.5,13.5,0.5" id="319" ed:tosuperid="318" transform="matrix(1,0,0,1,417,282)" stroke-linejoin="round" stroke="#696969" ed:parentid="126" stroke-linecap="round" fill="none"/><path d="M-13.5,-72.1C5.4,-72.1,-13.5,72.1,13.5,72.1" id="328" ed:tosuperid="327" transform="matrix(1,0,0,1,347,236)" stroke-linejoin="round" stroke="#696969" ed:parentid="102" stroke-linecap="round" fill="none"/><path d="M-13.5,-0.5C-2.7,-0.5,5.4,0.5,13.5,0.5" id="330" ed:tosuperid="329" transform="matrix(1,0,0,1,435,309)" stroke-linejoin="round" stroke="#696969" ed:parentid="327" stroke-linecap="round" fill="none"/><path d="M-13.5,0C-2.7,0,5.4,0,13.5,0" id="332" ed:tosuperid="331" transform="matrix(1,0,0,1,440,363)" stroke-linejoin="round" stroke="#696969" ed:parentid="132" stroke-linecap="round" fill="none"/><path d="M-13.5,0C-2.7,0,5.4,0,13.5,0" id="334" ed:tosuperid="333" transform="matrix(1,0,0,1,428,390)" stroke-linejoin="round" stroke="#696969" ed:parentid="134" stroke-linecap="round" fill="none"/><path d="M-13.5,0C-2.7,0,5.4,0,13.5,0" id="336" ed:tosuperid="335" transform="matrix(1,0,0,1,446,471)" stroke-linejoin="round" stroke="#696969" ed:parentid="138" stroke-linecap="round" fill="none"/><path d="M-13.5,-11.9C0,-11.9,-1,11.9,13.5,11.9" id="338" ed:tosuperid="337" transform="matrix(1,0,0,1,347,486)" stroke-linejoin="round" stroke="#696969" ed:parentid="104" stroke-linecap="round" fill="none"/><path d="M-13.5,0C-2.7,0,5.4,0,13.5,0" id="340" ed:tosuperid="339" transform="matrix(1,0,0,1,452,498)" stroke-linejoin="round" stroke="#696969" ed:parentid="337" stroke-linecap="round" fill="none"/><path d="M-13.5,15.1C0.7,15.1,-2.6,-15.1,13.5,-15.1" id="344" ed:tosuperid="343" transform="matrix(1,0,0,1,347,459)" stroke-linejoin="round" stroke="#696969" ed:parentid="104" stroke-linecap="round" fill="none"/><path d="M-13.5,0C-2.7,0,5.4,0,13.5,0" id="346" ed:tosuperid="345" transform="matrix(1,0,0,1,428,444)" stroke-linejoin="round" stroke="#696969" ed:parentid="343" stroke-linecap="round" fill="none"/><path d="M-13.5,-25.4C2.8,-25.4,-7.3,25.4,13.5,25.4" id="348" ed:tosuperid="347" transform="matrix(1,0,0,1,347,500)" stroke-linejoin="round" stroke="#696969" ed:parentid="104" stroke-linecap="round" fill="none"/><path d="M-13.5,0C-2.7,0,5.4,0,13.5,0" id="350" ed:tosuperid="349" transform="matrix(1,0,0,1,440,525)" stroke-linejoin="round" stroke="#696969" ed:parentid="347" stroke-linecap="round" fill="none"/><path d="M-13.5,0C-2.7,0,5.4,0,13.5,0" id="352" ed:tosuperid="351" transform="matrix(1,0,0,1,428,417)" stroke-linejoin="round" stroke="#696969" ed:parentid="146" stroke-linecap="round" fill="none"/><path d="M-13.5,-38.9C4.6,-38.9,-11.7,38.9,13.5,38.9" id="354" ed:tosuperid="353" transform="matrix(1,0,0,1,347,513)" stroke-linejoin="round" stroke="#696969" ed:parentid="104" stroke-linecap="round" fill="none"/><path d="M-13.5,0C-2.7,0,5.4,0,13.5,0" id="356" ed:tosuperid="355" transform="matrix(1,0,0,1,440,552)" stroke-linejoin="round" stroke="#696969" ed:parentid="353" stroke-linecap="round" fill="none"/><path d="M-13.5,-52.4C5.4,-52.4,-13.5,52.4,13.5,52.4" id="358" ed:tosuperid="357" transform="matrix(1,0,0,1,347,527)" stroke-linejoin="round" stroke="#696969" ed:parentid="104" stroke-linecap="round" fill="none"/><path d="M-13.5,0C-2.7,0,5.4,0,13.5,0" id="390" ed:tosuperid="389" transform="matrix(1,0,0,1,440,579)" stroke-linejoin="round" stroke="#696969" ed:parentid="357" stroke-linecap="round" fill="none"/><path d="M-13.5,-65.9C5.4,-65.9,-13.5,65.9,13.5,65.9" id="392" ed:tosuperid="391" transform="matrix(1,0,0,1,347,540)" stroke-linejoin="round" stroke="#696969" ed:parentid="104" stroke-linecap="round" fill="none"/><path d="M-13.5,0C-2.7,0,5.4,0,13.5,0" id="394" ed:tosuperid="393" transform="matrix(1,0,0,1,440,983)" stroke-linejoin="round" stroke="#696969" ed:parentid="174" stroke-linecap="round" fill="none"/><path d="M-13.5,0C-2.7,0,5.4,0,13.5,0" id="396" ed:tosuperid="395" transform="matrix(1,0,0,1,440,1010)" stroke-linejoin="round" stroke="#696969" ed:parentid="176" stroke-linecap="round" fill="none"/><path d="M-13.5,0C-2.7,0,5.4,0,13.5,0" id="398" ed:tosuperid="397" transform="matrix(1,0,0,1,440,956)" stroke-linejoin="round" stroke="#696969" ed:parentid="178" stroke-linecap="round" fill="none"/><path d="M-13.5,0C-2.7,0,5.4,0,13.5,0" id="400" ed:tosuperid="399" transform="matrix(1,0,0,1,428,903)" stroke-linejoin="round" stroke="#696969" ed:parentid="170" stroke-linecap="round" fill="none"/><path d="M-13.5,0C-2.7,0,5.4,0,13.5,0" id="402" ed:tosuperid="401" transform="matrix(1,0,0,1,416,822)" stroke-linejoin="round" stroke="#696969" ed:parentid="168" stroke-linecap="round" fill="none"/><path d="M-13.5,0C-2.7,0,5.4,0,13.5,0" id="404" ed:tosuperid="403" transform="matrix(1,0,0,1,428,795)" stroke-linejoin="round" stroke="#696969" ed:parentid="164" stroke-linecap="round" fill="none"/><path d="M-13.5,0C-2.7,0,5.4,0,13.5,0" id="406" ed:tosuperid="405" transform="matrix(1,0,0,1,440,741)" stroke-linejoin="round" stroke="#696969" ed:parentid="160" stroke-linecap="round" fill="none"/><path d="M-13.5,0C-2.7,0,5.4,0,13.5,0" id="408" ed:tosuperid="407" transform="matrix(1,0,0,1,452,768)" stroke-linejoin="round" stroke="#696969" ed:parentid="182" stroke-linecap="round" fill="none"/><path d="M-13.5,0C-2.7,0,5.4,0,13.5,0" id="410" ed:tosuperid="409" transform="matrix(1,0,0,1,452,714)" stroke-linejoin="round" stroke="#696969" ed:parentid="158" stroke-linecap="round" fill="none"/><path d="M-13.5,0C-2.7,0,5.4,0,13.5,0" id="412" ed:tosuperid="411" transform="matrix(1,0,0,1,416,876)" stroke-linejoin="round" stroke="#696969" ed:parentid="186" stroke-linecap="round" fill="none"/><path d="M-13.5,0C-2.7,0,5.4,0,13.5,0" id="414" ed:tosuperid="413" transform="matrix(1,0,0,1,416,849)" stroke-linejoin="round" stroke="#696969" ed:parentid="184" stroke-linecap="round" fill="none"/><path d="M-13.5,55.6C5.4,55.6,-13.5,-55.6,13.5,-55.6" id="416" ed:tosuperid="415" transform="matrix(1,0,0,1,347,715)" stroke-linejoin="round" stroke="#696969" ed:parentid="106" stroke-linecap="round" fill="none"/><path d="M-13.5,0C-2.7,0,5.4,0,13.5,0" id="418" ed:tosuperid="417" transform="matrix(1,0,0,1,428,660)" stroke-linejoin="round" stroke="#696969" ed:parentid="415" stroke-linecap="round" fill="none"/><path d="M-13.5,42.1C4.9,42.1,-12.4,-42.1,13.5,-42.1" id="420" ed:tosuperid="419" transform="matrix(1,0,0,1,347,729)" stroke-linejoin="round" stroke="#696969" ed:parentid="106" stroke-linecap="round" fill="none"/><path d="M-13.5,0C-2.7,0,5.4,0,13.5,0" id="422" ed:tosuperid="421" transform="matrix(1,0,0,1,440,687)" stroke-linejoin="round" stroke="#696969" ed:parentid="419" stroke-linecap="round" fill="none"/><g id="101" ed:width="178" transform="matrix(1,0,0,1,23,486)" ed:topictype="mainidea" ed:layout="rightmap" ed:height="57"><path d="M4,0L174,0C176.7,0,178,1.3,178,4L178,53C178,55.7,176.7,57,174,57L4,57C1.3,57,0,55.7,0,53L0,4C0,1.3,1.3,0,4,0z" stroke-linejoin="round" stroke-width="3" stroke="#435fbc" fill="#435fbc"/><text class="st7"><tspan x="22" style="white-space:pre" y="37">大前端知识体系</tspan></text></g><g id="102" ed:width="69" transform="matrix(1,0,0,1,264,147)" ed:parentid="101" ed:height="35"><path d="M4,0L65,0C67.7,0,69,1.3,69,4L69,31C69,33.7,67.7,35,65,35L4,35C1.3,35,0,33.7,0,31L0,4C0,1.3,1.3,0,4,0z" stroke-linejoin="round" stroke="#ebecf3" fill="#ebecf3"/><text class="st8"><tspan x="18" style="white-space:pre" y="24">基础</tspan></text></g><g id="104" ed:width="69" transform="matrix(1,0,0,1,264,457)" ed:parentid="101" ed:height="35"><path d="M4,0L65,0C67.7,0,69,1.3,69,4L69,31C69,33.7,67.7,35,65,35L4,35C1.3,35,0,33.7,0,31L0,4C0,1.3,1.3,0,4,0z" stroke-linejoin="round" stroke="#ebecf3" fill="#ebecf3"/><text class="st8"><tspan x="18" style="white-space:pre" y="24">进阶</tspan></text></g><g id="106" ed:width="69" transform="matrix(1,0,0,1,264,753)" ed:parentid="101" ed:height="35"><path d="M4,0L65,0C67.7,0,69,1.3,69,4L69,31C69,33.7,67.7,35,65,35L4,35C1.3,35,0,33.7,0,31L0,4C0,1.3,1.3,0,4,0z" stroke-linejoin="round" stroke="#ebecf3" fill="#ebecf3"/><text class="st8"><tspan x="18" style="white-space:pre" y="24">资深</tspan></text></g><g id="108" ed:width="69" transform="matrix(1,0,0,1,264,955)" ed:parentid="101" ed:height="35"><path d="M4,0L65,0C67.7,0,69,1.3,69,4L69,31C69,33.7,67.7,35,65,35L4,35C1.3,35,0,33.7,0,31L0,4C0,1.3,1.3,0,4,0z" stroke-linejoin="round" stroke="#ebecf3" fill="#ebecf3"/><text class="st8"><tspan x="18" style="white-space:pre" y="24">通用</tspan></text></g><g id="110" ed:width="58.6875" transform="matrix(1,0,0,1,360,20)" ed:parentid="102" ed:height="18.5"><path d="M0,18.5L58.7,18.5" stroke-linejoin="round" stroke="#696969" fill="none"/><text class="st9"><tspan x="8" style="white-space:pre" y="12.7">HTML5</tspan></text></g><g id="112" ed:width="46.78125" transform="matrix(1,0,0,1,360,47)" ed:parentid="102" ed:height="18.5"><path d="M0,18.5L46.8,18.5" stroke-linejoin="round" stroke="#696969" fill="none"/><text class="st9"><tspan x="8" style="white-space:pre" y="12.7">CSS3</tspan></text></g><g id="114" ed:width="74.171875" transform="matrix(1,0,0,1,360,74)" ed:parentid="102" ed:height="18.5"><path d="M0,18.5L74.2,18.5" stroke-linejoin="round" stroke="#696969" fill="none"/><text class="st9"><tspan x="8" style="white-space:pre" y="12.7">JavaScript</tspan></text></g><g id="116" ed:width="38.53125" transform="matrix(1,0,0,1,360,101)" ed:parentid="102" ed:height="18.5"><path d="M0,18.5L38.5,18.5" stroke-linejoin="round" stroke="#696969" fill="none"/><text class="st9"><tspan x="8" style="white-space:pre" y="12.7">ES6</tspan></text></g><g id="118" ed:width="42" transform="matrix(1,0,0,1,360,127)" ed:parentid="102" ed:height="20.5"><path d="M0,20.5L42,20.5" stroke-linejoin="round" stroke="#696969" fill="none"/><text class="st9"><tspan x="8" style="white-space:pre" y="14.7">网络</tspan></text></g><g id="120" ed:width="65.84375" transform="matrix(1,0,0,1,360,155)" ed:parentid="102" ed:height="18.5"><path d="M0,18.5L65.8,18.5" stroke-linejoin="round" stroke="#696969" fill="none"/><text class="st9"><tspan x="8" style="white-space:pre" y="12.7">WebApp</tspan></text></g><g id="122" ed:width="54" transform="matrix(1,0,0,1,360,181)" ed:parentid="102" ed:height="20.5"><path d="M0,20.5L54,20.5" stroke-linejoin="round" stroke="#696969" fill="none"/><text class="st9"><tspan x="8" style="white-space:pre" y="14.7">小程序</tspan></text></g><g id="124" ed:width="53.5" transform="matrix(1,0,0,1,360,236)" ed:parentid="102" ed:height="18.5"><path d="M0,18.5L53.5,18.5" stroke-linejoin="round" stroke="#696969" fill="none"/><text class="st9"><tspan x="8" style="white-space:pre" y="12.7">Vue.js</tspan></text></g><g id="126" ed:width="43.296875" transform="matrix(1,0,0,1,360,263)" ed:parentid="102" ed:height="18.5"><path d="M0,18.5L43.3,18.5" stroke-linejoin="round" stroke="#696969" fill="none"/><text class="st9"><tspan x="8" style="white-space:pre" y="12.7">Sass</tspan></text></g><g id="132" ed:width="66" transform="matrix(1,0,0,1,360,343)" ed:parentid="104" ed:height="20.5"><path d="M0,20.5L66,20.5" stroke-linejoin="round" stroke="#696969" fill="none"/><text class="st9"><tspan x="8" style="white-space:pre" y="14.7">框架进阶</tspan></text></g><g id="134" ed:width="54" transform="matrix(1,0,0,1,360,370)" ed:parentid="104" ed:height="20.5"><path d="M0,20.5L54,20.5" stroke-linejoin="round" stroke="#696969" fill="none"/><text class="st9"><tspan x="8" style="white-space:pre" y="14.7">小程序</tspan></text></g><g id="138" ed:width="72.4375" transform="matrix(1,0,0,1,360,451)" ed:parentid="104" ed:height="20.5"><path d="M0,20.5L72.4,20.5" stroke-linejoin="round" stroke="#696969" fill="none"/><text class="st9"><tspan x="8" style="white-space:pre" y="14.7">Node服务</tspan></text></g><g id="146" ed:width="54" transform="matrix(1,0,0,1,360,397)" ed:parentid="104" ed:height="20.5"><path d="M0,20.5L54,20.5" stroke-linejoin="round" stroke="#696969" fill="none"/><text class="st9"><tspan x="8" style="white-space:pre" y="14.7">组件库</tspan></text></g><g id="158" ed:width="78" transform="matrix(1,0,0,1,360,693)" ed:parentid="106" ed:height="20.5"><path d="M0,20.5L78,20.5" stroke-linejoin="round" stroke="#696969" fill="none"/><text class="st9"><tspan x="8" style="white-space:pre" y="14.7">脚手架工具</tspan></text></g><g id="160" ed:width="66" transform="matrix(1,0,0,1,360,720)" ed:parentid="106" ed:height="20.5"><path d="M0,20.5L66,20.5" stroke-linejoin="round" stroke="#696969" fill="none"/><text class="st9"><tspan x="8" style="white-space:pre" y="14.7">组件平台</tspan></text></g><g id="164" ed:width="54" transform="matrix(1,0,0,1,360,774)" ed:parentid="106" ed:height="20.5"><path d="M0,20.5L54,20.5" stroke-linejoin="round" stroke="#696969" fill="none"/><text class="st9"><tspan x="8" style="white-space:pre" y="14.7">服务端</tspan></text></g><g id="168" ed:width="42" transform="matrix(1,0,0,1,360,801)" ed:parentid="106" ed:height="20.5"><path d="M0,20.5L42,20.5" stroke-linejoin="round" stroke="#696969" fill="none"/><text class="st9"><tspan x="8" style="white-space:pre" y="14.7">运维</tspan></text></g><g id="170" ed:width="54" transform="matrix(1,0,0,1,360,882)" ed:parentid="106" ed:height="20.5"><path d="M0,20.5L54,20.5" stroke-linejoin="round" stroke="#696969" fill="none"/><text class="st9"><tspan x="8" style="white-space:pre" y="14.7">云服务</tspan></text></g><g id="174" ed:width="66" transform="matrix(1,0,0,1,360,963)" ed:parentid="108" ed:height="20.5"><path d="M0,20.5L66,20.5" stroke-linejoin="round" stroke="#696969" fill="none"/><text class="st9"><tspan x="8" style="white-space:pre" y="14.7">研发流程</tspan></text></g><g id="176" ed:width="66" transform="matrix(1,0,0,1,360,990)" ed:parentid="108" ed:height="20.5"><path d="M0,20.5L66,20.5" stroke-linejoin="round" stroke="#696969" fill="none"/><text class="st9"><tspan x="8" style="white-space:pre" y="14.7">团队成长</tspan></text></g><g id="178" ed:width="66" transform="matrix(1,0,0,1,360,936)" ed:parentid="108" ed:height="20.5"><path d="M0,20.5L66,20.5" stroke-linejoin="round" stroke="#696969" fill="none"/><text class="st9"><tspan x="8" style="white-space:pre" y="14.7">日常协作</tspan></text></g><g id="180" ed:width="113.59375" transform="matrix(1,0,0,1,441,586)" ed:parentid="391" ed:height="20.5"><path d="M0,20.5L113.6,20.5" stroke-linejoin="round" stroke="#696969" fill="none"/><text class="st9"><tspan x="8" style="white-space:pre" y="14.7">OSS、CDN、SMS</tspan></text></g><g id="182" ed:width="78" transform="matrix(1,0,0,1,360,747)" ed:parentid="106" ed:height="20.5"><path d="M0,20.5L78,20.5" stroke-linejoin="round" stroke="#696969" fill="none"/><text class="st9"><tspan x="8" style="white-space:pre" y="14.7">低代码平台</tspan></text></g><g id="184" ed:width="42" transform="matrix(1,0,0,1,360,828)" ed:parentid="106" ed:height="20.5"><path d="M0,20.5L42,20.5" stroke-linejoin="round" stroke="#696969" fill="none"/><text class="st9"><tspan x="8" style="white-space:pre" y="14.7">埋点</tspan></text></g><g id="186" ed:width="42" transform="matrix(1,0,0,1,360,855)" ed:parentid="106" ed:height="20.5"><path d="M0,20.5L42,20.5" stroke-linejoin="round" stroke="#696969" fill="none"/><text class="st9"><tspan x="8" style="white-space:pre" y="14.7">监控</tspan></text></g><g id="188" ed:width="56.3125" transform="matrix(1,0,0,1,360,209)" ed:parentid="102" ed:height="18.5"><path d="M0,18.5L56.3,18.5" stroke-linejoin="round" stroke="#696969" fill="none"/><text class="st9"><tspan x="8" style="white-space:pre" y="12.7">JQuery</tspan></text></g><g id="190" ed:width="162" transform="matrix(1,0,0,1,446,19)" ed:parentid="110" ed:height="20.5"><path d="M0,20.5L162,20.5" stroke-linejoin="round" stroke="#696969" fill="none"/><text class="st9"><tspan x="8" style="white-space:pre" y="14.7">标签、属性、布局、语义化</tspan></text></g><g id="196" ed:width="294" transform="matrix(1,0,0,1,434,46)" ed:parentid="112" ed:height="20.5"><path d="M0,20.5L294,20.5" stroke-linejoin="round" stroke="#696969" fill="none"/><text class="st9"><tspan x="8" style="white-space:pre" y="14.7">选择器、盒子模型、定位、动画、默认样式、兼容性</tspan></text></g><g id="216" ed:width="373.15625" transform="matrix(1,0,0,1,461,73)" ed:parentid="114" ed:height="20.5"><path d="M0,20.5L373.2,20.5" stroke-linejoin="round" stroke="#696969" fill="none"/><text class="st9"><tspan x="8" style="white-space:pre" y="14.7">基本类型、流程控制、内置对象、变量、函数、事件、DOM、BOM</tspan></text></g><g id="228" ed:width="317.765625" transform="matrix(1,0,0,1,426,100)" ed:parentid="116" ed:height="20.5"><path d="M0,20.5L317.8,20.5" stroke-linejoin="round" stroke="#696969" fill="none"/><text class="st9"><tspan x="8" style="white-space:pre" y="14.7">数据类型、语法、类型扩展、Promise、Class、Module</tspan></text></g><g id="240" ed:width="368.171875" transform="matrix(1,0,0,1,429,127)" ed:parentid="118" ed:height="20.5"><path d="M0,20.5L368.2,20.5" stroke-linejoin="round" stroke="#696969" fill="none"/><text class="st9"><tspan x="8" style="white-space:pre" y="14.7">HTTP、AJAX、JSON、Axios、Fetch、CORS、Cookie、Storage</tspan></text></g><g id="256" ed:width="281.921875" transform="matrix(1,0,0,1,453,154)" ed:parentid="120" ed:height="20.5"><path d="M0,20.5L281.9,20.5" stroke-linejoin="round" stroke="#696969" fill="none"/><text class="st9"><tspan x="8" style="white-space:pre" y="14.7">媒体查询、响应式、Flex、适配、性能、交互事件</tspan></text></g><g id="268" ed:width="444.34375" transform="matrix(1,0,0,1,441,181)" ed:parentid="122" ed:height="20.5"><path d="M0,20.5L444.3,20.5" stroke-linejoin="round" stroke="#696969" fill="none"/><text class="st9"><tspan x="8" style="white-space:pre" y="14.7">开发工具、基础组件、常用API、数据绑定、生命周期、路由、事件、预览、发布</tspan></text></g><g id="286" ed:width="150" transform="matrix(1,0,0,1,443,208)" ed:parentid="188" ed:height="20.5"><path d="M0,20.5L150,20.5" stroke-linejoin="round" stroke="#696969" fill="none"/><text class="st9"><tspan x="8" style="white-space:pre" y="14.7">选择器、事件、工具方法</tspan></text></g><g id="292" ed:width="419.0625" transform="matrix(1,0,0,1,441,235)" ed:parentid="124" ed:height="20.5"><path d="M0,20.5L419.1,20.5" stroke-linejoin="round" stroke="#696969" fill="none"/><text class="st9"><tspan x="8" style="white-space:pre" y="14.7">组件化、数据响应、生命周期、事件绑定、vue-router、vuex、elementUI</tspan></text></g><g id="318" ed:width="258" transform="matrix(1,0,0,1,430,262)" ed:parentid="126" ed:height="20.5"><path d="M0,20.5L258,20.5" stroke-linejoin="round" stroke="#696969" fill="none"/><text class="st9"><tspan x="8" style="white-space:pre" y="14.7">语法、变量、运算、继承、嵌套、条件、函数</tspan></text></g><g id="327" ed:width="61.984375" transform="matrix(1,0,0,1,360,290)" ed:parentid="102" ed:height="18.5"><path d="M0,18.5L62,18.5" stroke-linejoin="round" stroke="#696969" fill="none"/><text class="st9"><tspan x="8" style="white-space:pre" y="12.7">Node.js</tspan></text></g><g id="329" ed:width="336.015625" transform="matrix(1,0,0,1,449,289)" ed:parentid="327" ed:height="20.5"><path d="M0,20.5L336,20.5" stroke-linejoin="round" stroke="#696969" fill="none"/><text class="st9"><tspan x="8" style="white-space:pre" y="14.7">Npm、CommonJS、Koa2、中间件、Request、Response</tspan></text></g><g id="331" ed:width="436.640625" transform="matrix(1,0,0,1,453,343)" ed:parentid="132" ed:height="20.5"><path d="M0,20.5L436.6,20.5" stroke-linejoin="round" stroke="#696969" fill="none"/><text class="st9"><tspan x="8" style="white-space:pre" y="14.7">新特性、Composition API、Vite、vue-cli、Nuxt.js、Typescript、devtools</tspan></text></g><g id="333" ed:width="260.1875" transform="matrix(1,0,0,1,441,370)" ed:parentid="134" ed:height="20.5"><path d="M0,20.5L260.2,20.5" stroke-linejoin="round" stroke="#696969" fill="none"/><text class="st9"><tspan x="8" style="white-space:pre" y="14.7">云开发、多端开发框架、npm包、自动化流程</tspan></text></g><g id="335" ed:width="354.484375" transform="matrix(1,0,0,1,459,451)" ed:parentid="138" ed:height="20.5"><path d="M0,20.5L354.5,20.5" stroke-linejoin="round" stroke="#696969" fill="none"/><text class="st9"><tspan x="8" style="white-space:pre" y="14.7">包管理、Web框架、邮件服务、信息服务、日志服务、即时消息</tspan></text></g><g id="337" ed:width="78" transform="matrix(1,0,0,1,360,478)" ed:parentid="104" ed:height="20.5"><path d="M0,20.5L78,20.5" stroke-linejoin="round" stroke="#696969" fill="none"/><text class="st9"><tspan x="8" style="white-space:pre" y="14.7">自动化测试</tspan></text></g><g id="339" ed:width="333.75" transform="matrix(1,0,0,1,465,478)" ed:parentid="337" ed:height="20.5"><path d="M0,20.5L333.8,20.5" stroke-linejoin="round" stroke="#696969" fill="none"/><text class="st9"><tspan x="8" style="white-space:pre" y="14.7">接口测试工具、数据Mock、单元测试、e2e测试、集成测试</tspan></text></g><g id="343" ed:width="54" transform="matrix(1,0,0,1,360,424)" ed:parentid="104" ed:height="20.5"><path d="M0,20.5L54,20.5" stroke-linejoin="round" stroke="#696969" fill="none"/><text class="st9"><tspan x="8" style="white-space:pre" y="14.7">工程化</tspan></text></g><g id="345" ed:width="210.890625" transform="matrix(1,0,0,1,441,424)" ed:parentid="343" ed:height="20.5"><path d="M0,20.5L210.9,20.5" stroke-linejoin="round" stroke="#696969" fill="none"/><text class="st9"><tspan x="8" style="white-space:pre" y="14.7">webpack打包、cli脚手架、doc文档</tspan></text></g><g id="347" ed:width="66" transform="matrix(1,0,0,1,360,505)" ed:parentid="104" ed:height="20.5"><path d="M0,20.5L66,20.5" stroke-linejoin="round" stroke="#696969" fill="none"/><text class="st9"><tspan x="8" style="white-space:pre" y="14.7">数据存储</tspan></text></g><g id="349" ed:width="269.078125" transform="matrix(1,0,0,1,453,505)" ed:parentid="347" ed:height="20.5"><path d="M0,20.5L269.1,20.5" stroke-linejoin="round" stroke="#696969" fill="none"/><text class="st9"><tspan x="8" style="white-space:pre" y="14.7">Mysql、MongoDB、Redis、表设计、SQL查询</tspan></text></g><g id="351" ed:width="253.6875" transform="matrix(1,0,0,1,441,397)" ed:parentid="146" ed:height="20.5"><path d="M0,20.5L253.7,20.5" stroke-linejoin="round" stroke="#696969" fill="none"/><text class="st9"><tspan x="8" style="white-space:pre" y="14.7">MintUI移动端、Antd网页端、Taro小程序端</tspan></text></g><g id="353" ed:width="66" transform="matrix(1,0,0,1,360,532)" ed:parentid="104" ed:height="20.5"><path d="M0,20.5L66,20.5" stroke-linejoin="round" stroke="#696969" fill="none"/><text class="st9"><tspan x="8" style="white-space:pre" y="14.7">开发环境</tspan></text></g><g id="355" ed:width="259.15625" transform="matrix(1,0,0,1,453,532)" ed:parentid="353" ed:height="20.5"><path d="M0,20.5L259.2,20.5" stroke-linejoin="round" stroke="#696969" fill="none"/><text class="st9"><tspan x="8" style="white-space:pre" y="14.7">虚拟机、Linux命令、Docker入门、真机调试</tspan></text></g><g id="357" ed:width="66" transform="matrix(1,0,0,1,360,559)" ed:parentid="104" ed:height="20.5"><path d="M0,20.5L66,20.5" stroke-linejoin="round" stroke="#696969" fill="none"/><text class="st9"><tspan x="8" style="white-space:pre" y="14.7">持续集成</tspan></text></g><g id="389" ed:width="153.421875" transform="matrix(1,0,0,1,453,559)" ed:parentid="357" ed:height="20.5"><path d="M0,20.5L153.4,20.5" stroke-linejoin="round" stroke="#696969" fill="none"/><text class="st9"><tspan x="8" style="white-space:pre" y="14.7">Gitlab、Jenkins、CI/CD</tspan></text></g><g id="391" ed:width="54" transform="matrix(1,0,0,1,360,586)" ed:parentid="104" ed:height="20.5"><path d="M0,20.5L54,20.5" stroke-linejoin="round" stroke="#696969" fill="none"/><text class="st9"><tspan x="8" style="white-space:pre" y="14.7">云服务</tspan></text></g><g id="393" ed:width="402" transform="matrix(1,0,0,1,453,963)" ed:parentid="174" ed:height="20.5"><path d="M0,20.5L402,20.5" stroke-linejoin="round" stroke="#696969" fill="none"/><text class="st9"><tspan x="8" style="white-space:pre" y="14.7">技术选型、方案设计、数据库设计、接口设计、开发、联调、提测、上线</tspan></text></g><g id="395" ed:width="366" transform="matrix(1,0,0,1,453,990)" ed:parentid="176" ed:height="20.5"><path d="M0,20.5L366,20.5" stroke-linejoin="round" stroke="#696969" fill="none"/><text class="st9"><tspan x="8" style="white-space:pre" y="14.7">面试技巧、工作汇报、晋升答辩、绩效考核、知识分享、新人指导</tspan></text></g><g id="397" ed:width="246" transform="matrix(1,0,0,1,453,936)" ed:parentid="178" ed:height="20.5"><path d="M0,20.5L246,20.5" stroke-linejoin="round" stroke="#696969" fill="none"/><text class="st9"><tspan x="8" style="white-space:pre" y="14.7">产品讨论、开发联调、测试调整、发版支持</tspan></text></g><g id="399" ed:width="260.703125" transform="matrix(1,0,0,1,441,882)" ed:parentid="170" ed:height="20.5"><path d="M0,20.5L260.7,20.5" stroke-linejoin="round" stroke="#696969" fill="none"/><text class="st9"><tspan x="8" style="white-space:pre" y="14.7">域名、ECS、Nginx、Serverless、k8s、日志</tspan></text></g><g id="401" ed:width="378" transform="matrix(1,0,0,1,429,801)" ed:parentid="168" ed:height="20.5"><path d="M0,20.5L378,20.5" stroke-linejoin="round" stroke="#696969" fill="none"/><text class="st9"><tspan x="8" style="white-space:pre" y="14.7">监控、日志、定时任务、安全、预警、异常处理、自修复、压力测试</tspan></text></g><g id="403" ed:width="217.359375" transform="matrix(1,0,0,1,441,774)" ed:parentid="164" ed:height="20.5"><path d="M0,20.5L217.4,20.5" stroke-linejoin="round" stroke="#696969" fill="none"/><text class="st9"><tspan x="8" style="white-space:pre" y="14.7">eggjs、加解密、登录验证、权限系统</tspan></text></g><g id="405" ed:width="298.640625" transform="matrix(1,0,0,1,453,720)" ed:parentid="160" ed:height="20.5"><path d="M0,20.5L298.6,20.5" stroke-linejoin="round" stroke="#696969" fill="none"/><text class="st9"><tspan x="8" style="white-space:pre" y="14.7">UI Components、Biz Components、utils、hooks</tspan></text></g><g id="407" ed:width="294" transform="matrix(1,0,0,1,465,747)" ed:parentid="182" ed:height="20.5"><path d="M0,20.5L294,20.5" stroke-linejoin="round" stroke="#696969" fill="none"/><text class="st9"><tspan x="8" style="white-space:pre" y="14.7">托拉拽、表单生成、表格生成、区块模版、项目骨架</tspan></text></g><g id="409" ed:width="342" transform="matrix(1,0,0,1,465,693)" ed:parentid="158" ed:height="20.5"><path d="M0,20.5L342,20.5" stroke-linejoin="round" stroke="#696969" fill="none"/><text class="st9"><tspan x="8" style="white-space:pre" y="14.7">命令行、包封装、环境区分、版本检查、项目骨架、页面模版</tspan></text></g><g id="411" ed:width="186" transform="matrix(1,0,0,1,429,855)" ed:parentid="186" ed:height="20.5"><path d="M0,20.5L186,20.5" stroke-linejoin="round" stroke="#696969" fill="none"/><text class="st9"><tspan x="8" style="white-space:pre" y="14.7">数据大屏、异常告警、状态统计</tspan></text></g><g id="413" ed:width="126" transform="matrix(1,0,0,1,429,828)" ed:parentid="184" ed:height="20.5"><path d="M0,20.5L126,20.5" stroke-linejoin="round" stroke="#696969" fill="none"/><text class="st9"><tspan x="8" style="white-space:pre" y="14.7">用户行为、业务数据</tspan></text></g><g id="415" ed:width="54" transform="matrix(1,0,0,1,360,639)" ed:parentid="106" ed:height="20.5"><path d="M0,20.5L54,20.5" stroke-linejoin="round" stroke="#696969" fill="none"/><text class="st9"><tspan x="8" style="white-space:pre" y="14.7">工程化</tspan></text></g><g id="417" ed:width="193.578125" transform="matrix(1,0,0,1,441,639)" ed:parentid="415" ed:height="20.5"><path d="M0,20.5L193.6,20.5" stroke-linejoin="round" stroke="#696969" fill="none"/><text class="st9"><tspan x="8" style="white-space:pre" y="14.7">打包、构建、git flow、质量检测</tspan></text></g><g id="419" ed:width="66" transform="matrix(1,0,0,1,360,666)" ed:parentid="106" ed:height="20.5"><path d="M0,20.5L66,20.5" stroke-linejoin="round" stroke="#696969" fill="none"/><text class="st9"><tspan x="8" style="white-space:pre" y="14.7">跨端开发</tspan></text></g><g id="421" ed:width="340.4375" transform="matrix(1,0,0,1,453,666)" ed:parentid="419" ed:height="20.5"><path d="M0,20.5L340.4,20.5" stroke-linejoin="round" stroke="#696969" fill="none"/><text class="st9"><tspan x="8" style="white-space:pre" y="14.7">多端小程序、混合式app、android、ios、flutter、electron</tspan></text></g></svg>