<svg xmlns:ed="https://www.edrawsoft.cn/xml/2017/SVGExtensions/" viewBox="0 0 804 387" height="387" ed:hSpacing="30" xmlns:ev="http://www.w3.org/2001/xml-events" xmlns="http://www.w3.org/2000/svg" width="804" id="page100" ed:vSpacing="30" xmlns:xlink="http://www.w3.org/1999/xlink" ed:name="页面-1"><style type="text/css"><![CDATA[
g[ed\:togtopicid],g[ed\:hyperlink],g[ed\:comment],g[ed\:note] {cursor:pointer;}
g[id] {-moz-user-select: none;-ms-user-select: none;user-select: none;}
svg text::selection,svg tspan::selection{background-color: #4285f4;color: #ffffff;fill: #ffffff;}
.st2 {fill:#303030;font-family:宋体;font-size:11.25pt}
.st3 {fill:#454545;font-family:宋体;font-size:9pt}
.st1 {fill:#ffffff;font-family:宋体;font-size:14.25pt}
]]></style><defs/><rect height="387" x="0" width="804" fill="#ffffff" y="0"/><path ed:tosuperid="102" stroke-linecap="round" transform="matrix(1,0,0,1,188,130)" id="103" fill="none" d="M-23,32C6,-3.8,22.4,-60.5,76,-60.5" ed:parentid="101" stroke="#696969" stroke-linejoin="round"/><path ed:tosuperid="104" stroke-linecap="round" transform="matrix(1,0,0,1,188,198)" id="105" fill="none" d="M13,1C34.9,4,55.5,6.8,76,6.8" ed:parentid="101" stroke="#696969" stroke-linejoin="round"/><path ed:tosuperid="106" stroke-linecap="round" transform="matrix(1,0,0,1,347,55)" id="107" fill="none" d="M-13.5,15.1C0.7,15.1,-2.6,-15.1,13.5,-15.1" ed:parentid="102" stroke="#696969" stroke-linejoin="round"/><path ed:tosuperid="108" stroke-linecap="round" transform="matrix(1,0,0,1,347,68)" id="109" fill="none" d="M-13.5,1.6C-2.3,1.6,4.5,-1.6,13.5,-1.6" ed:parentid="102" stroke="#696969" stroke-linejoin="round"/><path ed:tosuperid="110" stroke-linecap="round" transform="matrix(1,0,0,1,347,82)" id="111" fill="none" d="M-13.5,-11.9C0,-11.9,-1,11.9,13.5,11.9" ed:parentid="102" stroke="#696969" stroke-linejoin="round"/><path ed:tosuperid="112" stroke-linecap="round" transform="matrix(1,0,0,1,188,258)" id="113" fill="none" d="M-25.4,-38.8C4.4,0.7,18.4,67.3,76,67.3" ed:parentid="101" stroke="#696969" stroke-linejoin="round"/><path ed:tosuperid="114" stroke-linecap="round" transform="matrix(1,0,0,1,347,317)" id="115" fill="none" d="M-13.5,8.4C-0.7,8.4,0.8,-8.4,13.5,-8.4" ed:parentid="112" stroke="#696969" stroke-linejoin="round"/><path ed:tosuperid="116" stroke-linecap="round" transform="matrix(1,0,0,1,347,344)" id="117" fill="none" d="M-13.5,-18.6C1.5,-18.6,-4.3,18.6,13.5,18.6" ed:parentid="112" stroke="#696969" stroke-linejoin="round"/><path ed:tosuperid="118" stroke-linecap="round" transform="matrix(1,0,0,1,347,189)" id="119" fill="none" d="M-13.5,15.1C0.7,15.1,-2.6,-15.1,13.5,-15.1" ed:parentid="104" stroke="#696969" stroke-linejoin="round"/><path ed:tosuperid="120" stroke-linecap="round" transform="matrix(1,0,0,1,347,203)" id="121" fill="none" d="M-13.5,1.6C-2.3,1.6,4.5,-1.6,13.5,-1.6" ed:parentid="104" stroke="#696969" stroke-linejoin="round"/><path ed:tosuperid="122" stroke-linecap="round" transform="matrix(1,0,0,1,347,330)" id="123" fill="none" d="M-13.5,-5.1C-1.5,-5.1,2.6,5.1,13.5,5.1" ed:parentid="112" stroke="#696969" stroke-linejoin="round"/><path ed:tosuperid="124" stroke-linecap="round" transform="matrix(1,0,0,1,347,95)" id="125" fill="none" d="M-13.5,-25.4C2.8,-25.4,-7.3,25.4,13.5,25.4" ed:parentid="102" stroke="#696969" stroke-linejoin="round"/><path ed:tosuperid="126" stroke-linecap="round" transform="matrix(1,0,0,1,347,216)" id="127" fill="none" d="M-13.5,-11.9C0,-11.9,-1,11.9,13.5,11.9" ed:parentid="104" stroke="#696969" stroke-linejoin="round"/><path ed:tosuperid="130" stroke-linecap="round" transform="matrix(1,0,0,1,347,230)" id="131" fill="none" d="M-13.5,-25.4C2.8,-25.4,-7.3,25.4,13.5,25.4" ed:parentid="104" stroke="#696969" stroke-linejoin="round"/><path ed:tosuperid="145" stroke-linecap="round" transform="matrix(1,0,0,1,440,40)" id="146" fill="none" d="M-13.5,0C-2.7,0,5.4,0,13.5,0" ed:parentid="106" stroke="#696969" stroke-linejoin="round"/><path ed:tosuperid="147" stroke-linecap="round" transform="matrix(1,0,0,1,440,67)" id="148" fill="none" d="M-13.5,0C-2.7,0,5.4,0,13.5,0" ed:parentid="108" stroke="#696969" stroke-linejoin="round"/><path ed:tosuperid="149" stroke-linecap="round" transform="matrix(1,0,0,1,440,94)" id="150" fill="none" d="M-13.5,0C-2.7,0,5.4,0,13.5,0" ed:parentid="110" stroke="#696969" stroke-linejoin="round"/><path ed:tosuperid="151" stroke-linecap="round" transform="matrix(1,0,0,1,440,121)" id="152" fill="none" d="M-13.5,0C-2.7,0,5.4,0,13.5,0" ed:parentid="124" stroke="#696969" stroke-linejoin="round"/><path ed:tosuperid="153" stroke-linecap="round" transform="matrix(1,0,0,1,440,174)" id="154" fill="none" d="M-13.5,0C-2.7,0,5.4,0,13.5,0" ed:parentid="118" stroke="#696969" stroke-linejoin="round"/><path ed:tosuperid="155" stroke-linecap="round" transform="matrix(1,0,0,1,440,201)" id="156" fill="none" d="M-13.5,0C-2.7,0,5.4,0,13.5,0" ed:parentid="120" stroke="#696969" stroke-linejoin="round"/><path ed:tosuperid="157" stroke-linecap="round" transform="matrix(1,0,0,1,440,228)" id="158" fill="none" d="M-13.5,0C-2.7,0,5.4,0,13.5,0" ed:parentid="126" stroke="#696969" stroke-linejoin="round"/><path ed:tosuperid="159" stroke-linecap="round" transform="matrix(1,0,0,1,440,255)" id="160" fill="none" d="M-13.5,0C-2.7,0,5.4,0,13.5,0" ed:parentid="130" stroke="#696969" stroke-linejoin="round"/><path ed:tosuperid="161" stroke-linecap="round" transform="matrix(1,0,0,1,428,309)" id="162" fill="none" d="M-13.5,0C-2.7,0,5.4,0,13.5,0" ed:parentid="114" stroke="#696969" stroke-linejoin="round"/><path ed:tosuperid="163" stroke-linecap="round" transform="matrix(1,0,0,1,428,336)" id="164" fill="none" d="M-13.5,0C-2.7,0,5.4,0,13.5,0" ed:parentid="122" stroke="#696969" stroke-linejoin="round"/><path ed:tosuperid="165" stroke-linecap="round" transform="matrix(1,0,0,1,440,363)" id="166" fill="none" d="M-13.5,0C-2.7,0,5.4,0,13.5,0" ed:parentid="116" stroke="#696969" stroke-linejoin="round"/><g ed:height="57" transform="matrix(1,0,0,1,23,162)" ed:width="178" id="101" ed:layout="rightmap" ed:topictype="mainidea"><path fill="#435fbc" d="M4,0L174,0C176.7,0,178,1.3,178,4L178,53C178,55.7,176.7,57,174,57L4,57C1.3,57,0,55.7,0,53L0,4C0,1.3,1.3,0,4,0z" stroke-width="3" stroke="#435fbc" stroke-linejoin="round"/><text class="st1"><tspan x="22" style="white-space:pre" y="37">软技能知识体系</tspan></text></g><g ed:height="35" transform="matrix(1,0,0,1,264,52)" ed:width="69" id="102" ed:parentid="101"><path fill="#ebecf3" d="M4,0L65,0C67.7,0,69,1.3,69,4L69,31C69,33.7,67.7,35,65,35L4,35C1.3,35,0,33.7,0,31L0,4C0,1.3,1.3,0,4,0z" stroke="#ebecf3" stroke-linejoin="round"/><text class="st2"><tspan x="18" style="white-space:pre" y="24">工作</tspan></text></g><g ed:height="35" transform="matrix(1,0,0,1,264,187)" ed:width="69" id="104" ed:parentid="101"><path fill="#ebecf3" d="M4,0L65,0C67.7,0,69,1.3,69,4L69,31C69,33.7,67.7,35,65,35L4,35C1.3,35,0,33.7,0,31L0,4C0,1.3,1.3,0,4,0z" stroke="#ebecf3" stroke-linejoin="round"/><text class="st2"><tspan x="18" style="white-space:pre" y="24">生活</tspan></text></g><g ed:height="20.5" transform="matrix(1,0,0,1,360,19)" ed:width="66" id="106" ed:parentid="102"><path fill="none" d="M0,20.5L66,20.5" stroke="#696969" stroke-linejoin="round"/><text class="st3"><tspan x="8" style="white-space:pre" y="14.7">敏捷开发</tspan></text></g><g ed:height="20.5" transform="matrix(1,0,0,1,360,46)" ed:width="66" id="108" ed:parentid="102"><path fill="none" d="M0,20.5L66,20.5" stroke="#696969" stroke-linejoin="round"/><text class="st3"><tspan x="8" style="white-space:pre" y="14.7">精益管理</tspan></text></g><g ed:height="20.5" transform="matrix(1,0,0,1,360,73)" ed:width="66" id="110" ed:parentid="102"><path fill="none" d="M0,20.5L66,20.5" stroke="#696969" stroke-linejoin="round"/><text class="st3"><tspan x="8" style="white-space:pre" y="14.7">职场礼仪</tspan></text></g><g ed:height="35" transform="matrix(1,0,0,1,264,308)" ed:width="69" id="112" ed:parentid="101"><path fill="#ebecf3" d="M4,0L65,0C67.7,0,69,1.3,69,4L69,31C69,33.7,67.7,35,65,35L4,35C1.3,35,0,33.7,0,31L0,4C0,1.3,1.3,0,4,0z" stroke="#ebecf3" stroke-linejoin="round"/><text class="st2"><tspan x="18" style="white-space:pre" y="24">通用</tspan></text></g><g ed:height="20.5" transform="matrix(1,0,0,1,360,288)" ed:width="54" id="114" ed:parentid="112"><path fill="none" d="M0,20.5L54,20.5" stroke="#696969" stroke-linejoin="round"/><text class="st3"><tspan x="8" style="white-space:pre" y="14.7">自信力</tspan></text></g><g ed:height="20.5" transform="matrix(1,0,0,1,360,342)" ed:width="66" id="116" ed:parentid="112"><path fill="none" d="M0,20.5L66,20.5" stroke="#696969" stroke-linejoin="round"/><text class="st3"><tspan x="8" style="white-space:pre" y="14.7">心智成熟</tspan></text></g><g ed:height="20.5" transform="matrix(1,0,0,1,360,154)" ed:width="66" id="118" ed:parentid="104"><path fill="none" d="M0,20.5L66,20.5" stroke="#696969" stroke-linejoin="round"/><text class="st3"><tspan x="8" style="white-space:pre" y="14.7">恋爱心理</tspan></text></g><g ed:height="20.5" transform="matrix(1,0,0,1,360,181)" ed:width="66" id="120" ed:parentid="104"><path fill="none" d="M0,20.5L66,20.5" stroke="#696969" stroke-linejoin="round"/><text class="st3"><tspan x="8" style="white-space:pre" y="14.7">沟通情商</tspan></text></g><g ed:height="20.5" transform="matrix(1,0,0,1,360,315)" ed:width="54" id="122" ed:parentid="112"><path fill="none" d="M0,20.5L54,20.5" stroke="#696969" stroke-linejoin="round"/><text class="st3"><tspan x="8" style="white-space:pre" y="14.7">表达力</tspan></text></g><g ed:height="20.5" transform="matrix(1,0,0,1,360,100)" ed:width="66" id="124" ed:parentid="102"><path fill="none" d="M0,20.5L66,20.5" stroke="#696969" stroke-linejoin="round"/><text class="st3"><tspan x="8" style="white-space:pre" y="14.7">高效沟通</tspan></text></g><g ed:height="20.5" transform="matrix(1,0,0,1,360,208)" ed:width="66" id="126" ed:parentid="104"><path fill="none" d="M0,20.5L66,20.5" stroke="#696969" stroke-linejoin="round"/><text class="st3"><tspan x="8" style="white-space:pre" y="14.7">亲密关系</tspan></text></g><g ed:height="20.5" transform="matrix(1,0,0,1,360,235)" ed:width="66" id="130" ed:parentid="104"><path fill="none" d="M0,20.5L66,20.5" stroke="#696969" stroke-linejoin="round"/><text class="st3"><tspan x="8" style="white-space:pre" y="14.7">交际口才</tspan></text></g><g ed:height="20.5" transform="matrix(1,0,0,1,453,19)" ed:width="186" id="145" ed:parentid="106"><path fill="none" d="M0,20.5L186,20.5" stroke="#696969" stroke-linejoin="round"/><text class="st3"><tspan x="8" style="white-space:pre" y="14.7">小步快跑、快速迭代、拥抱变化</tspan></text></g><g ed:height="20.5" transform="matrix(1,0,0,1,453,46)" ed:width="330" id="147" ed:parentid="108"><path fill="none" d="M0,20.5L330,20.5" stroke="#696969" stroke-linejoin="round"/><text class="st3"><tspan x="8" style="white-space:pre" y="14.7">简单、快速、持续的提效率、品质，缩短交货期，减少浪费</tspan></text></g><g ed:height="20.5" transform="matrix(1,0,0,1,453,73)" ed:width="294" id="149" ed:parentid="110"><path fill="none" d="M0,20.5L294,20.5" stroke="#696969" stroke-linejoin="round"/><text class="st3"><tspan x="8" style="white-space:pre" y="14.7">注重服饰美、强调语言美、提倡交际美、推崇行为美</tspan></text></g><g ed:height="20.5" transform="matrix(1,0,0,1,453,100)" ed:width="246" id="151" ed:parentid="124"><path fill="none" d="M0,20.5L246,20.5" stroke="#696969" stroke-linejoin="round"/><text class="st3"><tspan x="8" style="white-space:pre" y="14.7">传递情感、提高效率、化解危机、提高魅力</tspan></text></g><g ed:height="20.5" transform="matrix(1,0,0,1,453,154)" ed:width="162" id="153" ed:parentid="118"><path fill="none" d="M0,20.5L162,20.5" stroke="#696969" stroke-linejoin="round"/><text class="st3"><tspan x="8" style="white-space:pre" y="14.7">吸引力、神秘感、生活情趣</tspan></text></g><g ed:height="20.5" transform="matrix(1,0,0,1,453,181)" ed:width="150" id="155" ed:parentid="120"><path fill="none" d="M0,20.5L150,20.5" stroke="#696969" stroke-linejoin="round"/><text class="st3"><tspan x="8" style="white-space:pre" y="14.7">细节、幽默、共情、赞美</tspan></text></g><g ed:height="20.5" transform="matrix(1,0,0,1,453,208)" ed:width="138" id="157" ed:parentid="126"><path fill="none" d="M0,20.5L138,20.5" stroke="#696969" stroke-linejoin="round"/><text class="st3"><tspan x="8" style="white-space:pre" y="14.7">爱、分享、争吵、冷战</tspan></text></g><g ed:height="20.5" transform="matrix(1,0,0,1,453,235)" ed:width="246" id="159" ed:parentid="130"><path fill="none" d="M0,20.5L246,20.5" stroke="#696969" stroke-linejoin="round"/><text class="st3"><tspan x="8" style="white-space:pre" y="14.7">不以自我为中心、注意分寸、避开敏感话题</tspan></text></g><g ed:height="20.5" transform="matrix(1,0,0,1,441,288)" ed:width="186" id="161" ed:parentid="114"><path fill="none" d="M0,20.5L186,20.5" stroke="#696969" stroke-linejoin="round"/><text class="st3"><tspan x="8" style="white-space:pre" y="14.7">直面恐惧、发挥优势、设想愿景</tspan></text></g><g ed:height="20.5" transform="matrix(1,0,0,1,441,315)" ed:width="246" id="163" ed:parentid="122"><path fill="none" d="M0,20.5L246,20.5" stroke="#696969" stroke-linejoin="round"/><text class="st3"><tspan x="8" style="white-space:pre" y="14.7">观点提炼、结构思维、散点联想、逆向思维</tspan></text></g><g ed:height="20.5" transform="matrix(1,0,0,1,453,342)" ed:width="306" id="165" ed:parentid="116"><path fill="none" d="M0,20.5L306,20.5" stroke="#696969" stroke-linejoin="round"/><text class="st3"><tspan x="8" style="white-space:pre" y="14.7">敢于试错、接受过去、成为自己、适度反思、相信明天</tspan></text></g></svg>