<svg xmlns:ed="https://www.edrawsoft.cn/xml/2017/SVGExtensions/" width="1000" height="677" id="page100" ed:hSpacing="30" xmlns:ev="http://www.w3.org/2001/xml-events" xmlns="http://www.w3.org/2000/svg" xmlns:xlink="http://www.w3.org/1999/xlink" ed:vSpacing="30" ed:name="页面-1" viewBox="0 0 1000 677"><style type="text/css"><![CDATA[
g[ed\:togtopicid],g[ed\:hyperlink],g[ed\:comment],g[ed\:note] {cursor:pointer;}
g[id] {-moz-user-select: none;-ms-user-select: none;user-select: none;}
svg text::selection,svg tspan::selection{background-color: #4285f4;color: #ffffff;fill: #ffffff;}
.st2 {fill:#303030;font-family:宋体;font-size:11.25pt}
.st3 {fill:#454545;font-family:宋体;font-size:9pt}
.st1 {fill:#ffffff;font-family:宋体;font-size:14.25pt}
]]></style><defs/><rect y="0" width="1000" x="0" fill="#ffffff" height="677"/><path ed:tosuperid="337" fill="none" stroke-linejoin="round" stroke-linecap="round" id="338" d="M-34.5,86.9C-0.1,25.2,-6.2,-115.4,76,-115.4" stroke="#696969" transform="matrix(1,0,0,1,188,221)" ed:parentid="101"/><path ed:tosuperid="339" fill="none" stroke-linejoin="round" stroke-linecap="round" id="340" d="M13,-1C34.9,-3.9,55.5,-6.6,76,-6.6" stroke="#696969" transform="matrix(1,0,0,1,188,329)" ed:parentid="101"/><path ed:tosuperid="341" fill="none" stroke-linejoin="round" stroke-linecap="round" id="342" d="M-29.2,-53.4C2.1,-6.5,10.4,81.9,76,81.9" stroke="#696969" transform="matrix(1,0,0,1,188,418)" ed:parentid="101"/><path ed:tosuperid="343" fill="none" stroke-linejoin="round" stroke-linecap="round" id="344" d="M-36.7,-111.4C-0.1,-40.2,-17,139.9,76,139.9" stroke="#696969" transform="matrix(1,0,0,1,188,476)" ed:parentid="101"/><path ed:tosuperid="345" fill="none" stroke-linejoin="round" stroke-linecap="round" id="346" d="M-13.5,32.9C3.9,32.9,-10,-32.9,13.5,-32.9" stroke="#696969" transform="matrix(1,0,0,1,347,72)" ed:parentid="337"/><path ed:tosuperid="347" fill="none" stroke-linejoin="round" stroke-linecap="round" id="348" d="M-13.5,0C-2.7,0,5.4,0,13.5,0" stroke="#696969" transform="matrix(1,0,0,1,456,40)" ed:parentid="345"/><path ed:tosuperid="349" fill="none" stroke-linejoin="round" stroke-linecap="round" id="350" d="M-13.5,19.4C1.6,19.4,-4.7,-19.4,13.5,-19.4" stroke="#696969" transform="matrix(1,0,0,1,347,86)" ed:parentid="337"/><path ed:tosuperid="351" fill="none" stroke-linejoin="round" stroke-linecap="round" id="352" d="M-13.5,0C-2.7,0,5.4,0,13.5,0" stroke="#696969" transform="matrix(1,0,0,1,456,67)" ed:parentid="349"/><path ed:tosuperid="355" fill="none" stroke-linejoin="round" stroke-linecap="round" id="353" d="M-13.5,-4.3C-1.7,-4.3,3.1,4.3,13.5,4.3" stroke="#696969" transform="matrix(1,0,0,1,440,106)" ed:parentid="354"/><path ed:tosuperid="354" fill="none" stroke-linejoin="round" stroke-linecap="round" id="356" d="M-13.5,1.6C-2.3,1.6,4.5,-1.6,13.5,-1.6" stroke="#696969" transform="matrix(1,0,0,1,347,104)" ed:parentid="337"/><path ed:tosuperid="363" fill="none" stroke-linejoin="round" stroke-linecap="round" id="360" d="M-13.5,0C-2.7,0,5.4,0,13.5,0" stroke="#696969" transform="matrix(1,0,0,1,466,138)" ed:parentid="357"/><path ed:tosuperid="364" fill="none" stroke-linejoin="round" stroke-linecap="round" id="361" d="M-13.5,0C-2.7,0,5.4,0,13.5,0" stroke="#696969" transform="matrix(1,0,0,1,459,165)" ed:parentid="358"/><path ed:tosuperid="365" fill="none" stroke-linejoin="round" stroke-linecap="round" id="362" d="M-13.5,0C-2.7,0,5.4,0,13.5,0" stroke="#696969" transform="matrix(1,0,0,1,483,192)" ed:parentid="359"/><path ed:tosuperid="357" fill="none" stroke-linejoin="round" stroke-linecap="round" id="366" d="M-13.5,-16.1C1,-16.1,-3.1,16.1,13.5,16.1" stroke="#696969" transform="matrix(1,0,0,1,347,121)" ed:parentid="337"/><path ed:tosuperid="358" fill="none" stroke-linejoin="round" stroke-linecap="round" id="367" d="M-13.5,-29.6C3.4,-29.6,-8.9,29.6,13.5,29.6" stroke="#696969" transform="matrix(1,0,0,1,347,135)" ed:parentid="337"/><path ed:tosuperid="359" fill="none" stroke-linejoin="round" stroke-linecap="round" id="368" d="M-13.5,-43.1C5,-43.1,-12.6,43.1,13.5,43.1" stroke="#696969" transform="matrix(1,0,0,1,347,148)" ed:parentid="337"/><path ed:tosuperid="371" fill="none" stroke-linejoin="round" stroke-linecap="round" id="369" d="M-13.5,-4.3C-1.7,-4.3,3.1,4.3,13.5,4.3" stroke="#696969" transform="matrix(1,0,0,1,440,258)" ed:parentid="370"/><path ed:tosuperid="370" fill="none" stroke-linejoin="round" stroke-linecap="round" id="372" d="M-13.5,34.6C4.1,34.6,-10.6,-34.6,13.5,-34.6" stroke="#696969" transform="matrix(1,0,0,1,347,288)" ed:parentid="339"/><path ed:tosuperid="380" fill="none" stroke-linejoin="round" stroke-linecap="round" id="378" d="M-13.5,0C-2.7,0,5.4,0,13.5,0" stroke="#696969" transform="matrix(1,0,0,1,440,289)" ed:parentid="379"/><path ed:tosuperid="379" fill="none" stroke-linejoin="round" stroke-linecap="round" id="381" d="M-13.5,16.9C1.1,16.9,-3.5,-16.9,13.5,-16.9" stroke="#696969" transform="matrix(1,0,0,1,347,306)" ed:parentid="339"/><path ed:tosuperid="384" fill="none" stroke-linejoin="round" stroke-linecap="round" id="382" d="M-13.5,-4.3C-1.7,-4.3,3.1,4.3,13.5,4.3" stroke="#696969" transform="matrix(1,0,0,1,440,329)" ed:parentid="383"/><path ed:tosuperid="383" fill="none" stroke-linejoin="round" stroke-linecap="round" id="385" d="M-13.5,-0.9C-2.7,-0.9,5.4,0.9,13.5,0.9" stroke="#696969" transform="matrix(1,0,0,1,347,324)" ed:parentid="339"/><path ed:tosuperid="388" fill="none" stroke-linejoin="round" stroke-linecap="round" id="386" d="M-13.5,-4.3C-1.7,-4.3,3.1,4.3,13.5,4.3" stroke="#696969" transform="matrix(1,0,0,1,452,373)" ed:parentid="387"/><path ed:tosuperid="387" fill="none" stroke-linejoin="round" stroke-linecap="round" id="389" d="M-13.5,-22.9C2.3,-22.9,-6.3,22.9,13.5,22.9" stroke="#696969" transform="matrix(1,0,0,1,347,346)" ed:parentid="339"/><path ed:tosuperid="394" fill="none" stroke-linejoin="round" stroke-linecap="round" id="395" d="M-13.5,8.4C-0.7,8.4,0.8,-8.4,13.5,-8.4" stroke="#696969" transform="matrix(1,0,0,1,347,607)" ed:parentid="343"/><path ed:tosuperid="396" fill="none" stroke-linejoin="round" stroke-linecap="round" id="397" d="M-13.5,-5.1C-1.5,-5.1,2.6,5.1,13.5,5.1" stroke="#696969" transform="matrix(1,0,0,1,347,621)" ed:parentid="343"/><path ed:tosuperid="400" fill="none" stroke-linejoin="round" stroke-linecap="round" id="398" d="M-13.5,0C-2.7,0,5.4,0,13.5,0" stroke="#696969" transform="matrix(1,0,0,1,440,546)" ed:parentid="399"/><path ed:tosuperid="399" fill="none" stroke-linejoin="round" stroke-linecap="round" id="401" d="M-13.5,-22.9C2.3,-22.9,-6.3,22.9,13.5,22.9" stroke="#696969" transform="matrix(1,0,0,1,347,523)" ed:parentid="341"/><path ed:tosuperid="406" fill="none" stroke-linejoin="round" stroke-linecap="round" id="404" d="M-13.5,-4.3C-1.7,-4.3,3.1,4.3,13.5,4.3" stroke="#696969" transform="matrix(1,0,0,1,452,487)" ed:parentid="405"/><path ed:tosuperid="405" fill="none" stroke-linejoin="round" stroke-linecap="round" id="407" d="M-13.5,8.4C-0.7,8.4,0.8,-8.4,13.5,-8.4" stroke="#696969" transform="matrix(1,0,0,1,347,491)" ed:parentid="341"/><path ed:tosuperid="408" fill="none" stroke-linejoin="round" stroke-linecap="round" id="409" d="M-13.5,-9.4C-0.5,-9.4,0.3,9.4,13.5,9.4" stroke="#696969" transform="matrix(1,0,0,1,347,509)" ed:parentid="341"/><path ed:tosuperid="410" fill="none" stroke-linejoin="round" stroke-linecap="round" id="411" d="M-13.5,0C-2.7,0,5.4,0,13.5,0" stroke="#696969" transform="matrix(1,0,0,1,452,519)" ed:parentid="408"/><path ed:tosuperid="414" fill="none" stroke-linejoin="round" stroke-linecap="round" id="412" d="M-13.5,-4.3C-1.7,-4.3,3.1,4.3,13.5,4.3" stroke="#696969" transform="matrix(1,0,0,1,440,417)" ed:parentid="413"/><path ed:tosuperid="413" fill="none" stroke-linejoin="round" stroke-linecap="round" id="415" d="M-13.5,-44.9C5.1,-44.9,-12.8,44.9,13.5,44.9" stroke="#696969" transform="matrix(1,0,0,1,347,368)" ed:parentid="339"/><path ed:tosuperid="416" fill="none" stroke-linejoin="round" stroke-linecap="round" id="417" d="M-13.5,0C-2.7,0,5.4,0,13.5,0" stroke="#696969" transform="matrix(1,0,0,1,452,626)" ed:parentid="396"/><path ed:tosuperid="418" fill="none" stroke-linejoin="round" stroke-linecap="round" id="419" d="M-13.5,0C-2.7,0,5.4,0,13.5,0" stroke="#696969" transform="matrix(1,0,0,1,440,599)" ed:parentid="394"/><path ed:tosuperid="420" fill="none" stroke-linejoin="round" stroke-linecap="round" id="421" d="M-13.5,-18.6C1.5,-18.6,-4.3,18.6,13.5,18.6" stroke="#696969" transform="matrix(1,0,0,1,347,634)" ed:parentid="343"/><path ed:tosuperid="422" fill="none" stroke-linejoin="round" stroke-linecap="round" id="423" d="M-13.5,0C-2.7,0,5.4,0,13.5,0" stroke="#696969" transform="matrix(1,0,0,1,440,653)" ed:parentid="420"/><g ed:width="178" ed:topictype="mainidea" id="101" ed:height="57" transform="matrix(1,0,0,1,23,308)" ed:layout="rightmap"><path stroke-width="3" fill="#435fbc" stroke-linejoin="round" d="M4,0L174,0C176.7,0,178,1.3,178,4L178,53C178,55.7,176.7,57,174,57L4,57C1.3,57,0,55.7,0,53L0,4C0,1.3,1.3,0,4,0z" stroke="#435fbc"/><text class="st1"><tspan y="37" x="21" style="white-space:pre">大数智知识体系</tspan></text></g><g ed:width="69" id="337" ed:height="35" transform="matrix(1,0,0,1,264,88)" ed:parentid="101"><path fill="#ebecf3" stroke-linejoin="round" d="M4,0L65,0C67.7,0,69,1.3,69,4L69,31C69,33.7,67.7,35,65,35L4,35C1.3,35,0,33.7,0,31L0,4C0,1.3,1.3,0,4,0z" stroke="#ebecf3"/><text class="st2"><tspan y="24" x="18" style="white-space:pre">基础</tspan></text></g><g ed:width="69" id="339" ed:height="35" transform="matrix(1,0,0,1,264,305)" ed:parentid="101"><path fill="#ebecf3" stroke-linejoin="round" d="M4,0L65,0C67.7,0,69,1.3,69,4L69,31C69,33.7,67.7,35,65,35L4,35C1.3,35,0,33.7,0,31L0,4C0,1.3,1.3,0,4,0z" stroke="#ebecf3"/><text class="st2"><tspan y="24" x="18" style="white-space:pre">进阶</tspan></text></g><g ed:width="69" id="341" ed:height="35" transform="matrix(1,0,0,1,264,482)" ed:parentid="101"><path fill="#ebecf3" stroke-linejoin="round" d="M4,0L65,0C67.7,0,69,1.3,69,4L69,31C69,33.7,67.7,35,65,35L4,35C1.3,35,0,33.7,0,31L0,4C0,1.3,1.3,0,4,0z" stroke="#ebecf3"/><text class="st2"><tspan y="24" x="18" style="white-space:pre">资深</tspan></text></g><g ed:width="69" id="343" ed:height="35" transform="matrix(1,0,0,1,264,598)" ed:parentid="101"><path fill="#ebecf3" stroke-linejoin="round" d="M4,0L65,0C67.7,0,69,1.3,69,4L69,31C69,33.7,67.7,35,65,35L4,35C1.3,35,0,33.7,0,31L0,4C0,1.3,1.3,0,4,0z" stroke="#ebecf3"/><text class="st2"><tspan y="24" x="18" style="white-space:pre">通用</tspan></text></g><g ed:width="82.5313" id="345" ed:height="20.5" transform="matrix(1,0,0,1,360,19)" ed:parentid="337"><path fill="none" stroke-linejoin="round" d="M0,20.5L82.5,20.5" stroke="#696969"/><text class="st3"><tspan y="14.7" x="7" style="white-space:pre">python基础</tspan></text></g><g ed:width="442.172" id="347" ed:height="20.5" transform="matrix(1,0,0,1,470,19)" ed:parentid="345"><path fill="none" stroke-linejoin="round" d="M0,20.5L442.2,20.5" stroke="#696969"/><text class="st3"><tspan y="14.7" x="8" style="white-space:pre">Python脚本结构、变量与关键字、字符串类型、列表/元组类型、字典/集合类型</tspan></text></g><g ed:width="82.5313" id="349" ed:height="20.5" transform="matrix(1,0,0,1,360,46)" ed:parentid="337"><path fill="none" stroke-linejoin="round" d="M0,20.5L82.5,20.5" stroke="#696969"/><text class="st3"><tspan y="14.7" x="7" style="white-space:pre">python高级</tspan></text></g><g ed:width="366" id="351" ed:height="20.5" transform="matrix(1,0,0,1,470,46)" ed:parentid="349"><path fill="none" stroke-linejoin="round" d="M0,20.5L366,20.5" stroke="#696969"/><text class="st3"><tspan y="14.7" x="8" style="white-space:pre">流程控制、函数式编程、递归函数、匿名函数、高阶函数、迭代器</tspan></text></g><g ed:width="66" id="354" ed:height="20.5" transform="matrix(1,0,0,1,360,82)" ed:parentid="337"><path fill="none" stroke-linejoin="round" d="M0,20.5L66,20.5" stroke="#696969"/><text class="st3"><tspan y="14.7" x="8" style="white-space:pre">面向对象</tspan></text></g><g ed:width="514" id="355" ed:height="37.5" transform="matrix(1,0,0,1,453,73)" ed:parentid="354"><path fill="none" stroke-linejoin="round" d="M0,37.5L514,37.5" stroke="#696969"/><text class="st3"><tspan y="14.6" x="8" style="white-space:pre">类和对象、继承/多态/多重继承、装饰器/类的装饰器、异常处理机制/正则表达式、文件操</tspan><tspan y="31.6" x="8" style="white-space:pre">作/模块与包、多进程/多线程</tspan></text></g><g ed:width="92.75" id="357" ed:height="20.5" transform="matrix(1,0,0,1,360,117)" ed:parentid="337"><path fill="none" stroke-linejoin="round" d="M0,20.5L92.8,20.5" stroke="#696969"/><text class="st3"><tspan y="14.7" x="8" style="white-space:pre">MySQL数据库</tspan></text></g><g ed:width="85.375" id="358" ed:height="20.5" transform="matrix(1,0,0,1,360,144)" ed:parentid="337"><path fill="none" stroke-linejoin="round" d="M0,20.5L85.4,20.5" stroke="#696969"/><text class="st3"><tspan y="14.7" x="8" style="white-space:pre">Redis数据库</tspan></text></g><g ed:width="109.828" id="359" ed:height="20.5" transform="matrix(1,0,0,1,360,171)" ed:parentid="337"><path fill="none" stroke-linejoin="round" d="M0,20.5L109.8,20.5" stroke="#696969"/><text class="st3"><tspan y="14.7" x="8" style="white-space:pre">MongoDB数据库</tspan></text></g><g ed:width="471.391" id="363" ed:height="20.5" transform="matrix(1,0,0,1,480,117)" ed:parentid="357"><path fill="none" stroke-linejoin="round" d="M0,20.5L471.4,20.5" stroke="#696969"/><text class="st3"><tspan y="14.7" x="7" style="white-space:pre">表结构与索引机制、数据库增删改查操作、MySQL基本函数、MySQL Connector模块</tspan></text></g><g ed:width="282" id="364" ed:height="20.5" transform="matrix(1,0,0,1,472,144)" ed:parentid="358"><path fill="none" stroke-linejoin="round" d="M0,20.5L282,20.5" stroke="#696969"/><text class="st3"><tspan y="14.7" x="8" style="white-space:pre">安装、配置参数、数据结构、基本命令、事务特性</tspan></text></g><g ed:width="318" id="365" ed:height="20.5" transform="matrix(1,0,0,1,497,171)" ed:parentid="359"><path fill="none" stroke-linejoin="round" d="M0,20.5L318,20.5" stroke="#696969"/><text class="st3"><tspan y="14.7" x="8" style="white-space:pre">安装与配置、数据结构、增删改查、索引机制、导入导出</tspan></text></g><g ed:width="66" id="370" ed:height="20.5" transform="matrix(1,0,0,1,360,233)" ed:parentid="339"><path fill="none" stroke-linejoin="round" d="M0,20.5L66,20.5" stroke="#696969"/><text class="st3"><tspan y="14.7" x="8" style="white-space:pre">数据采集</tspan></text></g><g ed:width="514" id="371" ed:height="37.5" transform="matrix(1,0,0,1,453,225)" ed:parentid="370"><path fill="none" stroke-linejoin="round" d="M0,37.5L514,37.5" stroke="#696969"/><text class="st3"><tspan y="14.6" x="8" style="white-space:pre">网络基础、requests模块、re模块、xpath数据解析、BeautifulSoup4、Selenium模块、自</tspan><tspan y="31.6" x="8" style="white-space:pre">动化、分布式、Scrapy框架</tspan></text></g><g ed:width="66" id="379" ed:height="20.5" transform="matrix(1,0,0,1,360,269)" ed:parentid="339"><path fill="none" stroke-linejoin="round" d="M0,20.5L66,20.5" stroke="#696969"/><text class="st3"><tspan y="14.7" x="8" style="white-space:pre">数据分析</tspan></text></g><g ed:width="394.891" id="380" ed:height="20.5" transform="matrix(1,0,0,1,453,269)" ed:parentid="379"><path fill="none" stroke-linejoin="round" d="M0,20.5L394.9,20.5" stroke="#696969"/><text class="st3"><tspan y="14.7" x="7" style="white-space:pre">数据清洗和预处理、数据计算与分析、数据可视化、Seaborn、pandas</tspan></text></g><g ed:width="66.48439999999999" id="383" ed:height="20.5" transform="matrix(1,0,0,1,360,304)" ed:parentid="339"><path fill="none" stroke-linejoin="round" d="M0,20.5L66.5,20.5" stroke="#696969"/><text class="st3"><tspan y="14.7" x="8" style="white-space:pre">Web应用</tspan></text></g><g ed:width="514" id="384" ed:height="37.5" transform="matrix(1,0,0,1,453,296)" ed:parentid="383"><path fill="none" stroke-linejoin="round" d="M0,37.5L514,37.5" stroke="#696969"/><text class="st3"><tspan y="14.6" x="8" style="white-space:pre">Jinja2模板、Flask请求/响应、Flask-ORM设计、Django模板、查询及事务处理、表单/表单</tspan><tspan y="31.6" x="8" style="white-space:pre">验证、Django-auth/用户模型</tspan></text></g><g ed:width="78" id="387" ed:height="20.5" transform="matrix(1,0,0,1,360,348)" ed:parentid="339"><path fill="none" stroke-linejoin="round" d="M0,20.5L78,20.5" stroke="#696969"/><text class="st3"><tspan y="14.7" x="8" style="white-space:pre">自动化测试</tspan></text></g><g ed:width="354.969" id="388" ed:height="37.5" transform="matrix(1,0,0,1,465,340)" ed:parentid="387"><path fill="none" stroke-linejoin="round" d="M0,37.5L355,37.5" stroke="#696969"/><text class="st3"><tspan y="14.6" x="7" style="white-space:pre">软件测试基础、接口/UI/APP自动化测试、Selenium/Fiddler、</tspan><tspan y="31.6" x="7" style="white-space:pre">Unittest/Appium框架、数据驱动/持续集成/日志规划</tspan></text></g><g ed:width="66" id="394" ed:height="20.5" transform="matrix(1,0,0,1,360,579)" ed:parentid="343"><path fill="none" stroke-linejoin="round" d="M0,20.5L66,20.5" stroke="#696969"/><text class="st3"><tspan y="14.7" x="8" style="white-space:pre">数据思维</tspan></text></g><g ed:width="78" id="396" ed:height="20.5" transform="matrix(1,0,0,1,360,606)" ed:parentid="343"><path fill="none" stroke-linejoin="round" d="M0,20.5L78,20.5" stroke="#696969"/><text class="st3"><tspan y="14.7" x="8" style="white-space:pre">自动化应用</tspan></text></g><g ed:width="66" id="399" ed:height="20.5" transform="matrix(1,0,0,1,360,525)" ed:parentid="341"><path fill="none" stroke-linejoin="round" d="M0,20.5L66,20.5" stroke="#696969"/><text class="st3"><tspan y="14.7" x="8" style="white-space:pre">人工智能</tspan></text></g><g ed:width="439.953" id="400" ed:height="20.5" transform="matrix(1,0,0,1,453,525)" ed:parentid="399"><path fill="none" stroke-linejoin="round" d="M0,20.5L440,20.5" stroke="#696969"/><text class="st3"><tspan y="14.7" x="8" style="white-space:pre">监督学习、scikit-learn、无监督学习、k均值聚类算法、KMEANS实现图像分割</tspan></text></g><g ed:width="78" id="405" ed:height="20.5" transform="matrix(1,0,0,1,360,463)" ed:parentid="341"><path fill="none" stroke-linejoin="round" d="M0,20.5L78,20.5" stroke="#696969"/><text class="st3"><tspan y="14.7" x="8" style="white-space:pre">自动化运维</tspan></text></g><g ed:width="514" id="406" ed:height="37.5" transform="matrix(1,0,0,1,465,454)" ed:parentid="405"><path fill="none" stroke-linejoin="round" d="M0,37.5L514,37.5" stroke="#696969"/><text class="st3"><tspan y="14.6" x="8" style="white-space:pre">VirtualBox虚拟机、Linux命令、CentOS服务器、uWSGI服务器部署、阿里云发布上线部署、</tspan><tspan y="31.6" x="8" style="white-space:pre">Jenkins持续集成</tspan></text></g><g ed:width="78" id="408" ed:height="20.5" transform="matrix(1,0,0,1,360,498)" ed:parentid="341"><path fill="none" stroke-linejoin="round" d="M0,20.5L78,20.5" stroke="#696969"/><text class="st3"><tspan y="14.7" x="8" style="white-space:pre">大数据计算</tspan></text></g><g ed:width="410.875" id="410" ed:height="20.5" transform="matrix(1,0,0,1,465,498)" ed:parentid="408"><path fill="none" stroke-linejoin="round" d="M0,20.5L410.9,20.5" stroke="#696969"/><text class="st3"><tspan y="14.7" x="8" style="white-space:pre">Elasticsearch、Hadoop、Flume、Hive、Hbase、Spark、Kafka、Flink</tspan></text></g><g ed:width="66" id="413" ed:height="20.5" transform="matrix(1,0,0,1,360,392)" ed:parentid="339"><path fill="none" stroke-linejoin="round" d="M0,20.5L66,20.5" stroke="#696969"/><text class="st3"><tspan y="14.7" x="8" style="white-space:pre">数据中台</tspan></text></g><g ed:width="514" id="414" ed:height="37.5" transform="matrix(1,0,0,1,453,384)" ed:parentid="413"><path fill="none" stroke-linejoin="round" d="M0,37.5L514,37.5" stroke="#696969"/><text class="st3"><tspan y="14.6" x="8" style="white-space:pre">数据中台架构、数据加工总线架构、数据可视化报表/大屏、实时数据采集计算、离线数据采</tspan><tspan y="31.6" x="8" style="white-space:pre">集计算</tspan></text></g><g ed:width="339.906" id="416" ed:height="20.5" transform="matrix(1,0,0,1,465,606)" ed:parentid="396"><path fill="none" stroke-linejoin="round" d="M0,20.5L339.9,20.5" stroke="#696969"/><text class="st3"><tspan y="14.7" x="7" style="white-space:pre">Office自动化、邮件自动化、文件自动化管理、定时任务管理</tspan></text></g><g ed:width="246" id="418" ed:height="20.5" transform="matrix(1,0,0,1,453,579)" ed:parentid="394"><path fill="none" stroke-linejoin="round" d="M0,20.5L246,20.5" stroke="#696969"/><text class="st3"><tspan y="14.7" x="8" style="white-space:pre">数据量化、数据关联、数据驱动、数据反馈</tspan></text></g><g ed:width="66" id="420" ed:height="20.5" transform="matrix(1,0,0,1,360,633)" ed:parentid="343"><path fill="none" stroke-linejoin="round" d="M0,20.5L66,20.5" stroke="#696969"/><text class="st3"><tspan y="14.7" x="8" style="white-space:pre">数学基础</tspan></text></g><g ed:width="294" id="422" ed:height="20.5" transform="matrix(1,0,0,1,453,633)" ed:parentid="420"><path fill="none" stroke-linejoin="round" d="M0,20.5L294,20.5" stroke="#696969"/><text class="st3"><tspan y="14.7" x="8" style="white-space:pre">线性代数、数理统计、概率论、信息论、最优化理论</tspan></text></g></svg>